<svg width="224" height="229" viewBox="0 0 224 229" fill="none" xmlns="http://www.w3.org/2000/svg">
<rect x="13.928" y="111.362" width="194.946" height="115.473" rx="11.1216" transform="rotate(-0.117265 13.928 111.362)" fill="#2200FF" stroke="black" stroke-width="3.17761"/>
<rect x="32.3556" y="194.091" width="10.8039" height="40.7812" rx="5.40194" transform="rotate(-90 32.3556 194.091)" fill="white" stroke="black" stroke-width="1.90657"/>
<rect x="94.1095" y="194.091" width="10.8039" height="40.7812" rx="5.40194" transform="rotate(-90 94.1095 194.091)" fill="#39FF14" stroke="black" stroke-width="1.90657"/>
<rect x="155.861" y="194.091" width="10.8039" height="40.7812" rx="5.40194" transform="rotate(-90 155.861 194.091)" fill="white" stroke="black" stroke-width="1.90657"/>
<rect x="32.2624" y="129.376" width="37.2032" height="30.6401" rx="5.7197" transform="rotate(0.876429 32.2624 129.376)" fill="#F3F1F2" stroke="black" stroke-width="1.27104"/>
<path d="M40.9159 134.664C44.0744 134.712 46.5958 137.312 46.5475 140.471L46.4473 147.023C46.3988 150.182 43.7991 152.703 40.6407 152.655L31.9093 152.521L32.1845 134.53L40.9159 134.664Z" fill="#F5F4F9" stroke="black" stroke-width="1.27104"/>
<path d="M60.6525 134.967C57.494 134.919 54.8943 137.441 54.846 140.599L54.7457 147.152C54.6976 150.31 57.2189 152.91 60.3773 152.959L69.1087 153.092L69.3839 135.101L60.6525 134.967Z" fill="#F5F4F9" stroke="black" stroke-width="1.27104"/>
<rect x="50.3672" y="130.282" width="0.970167" height="29.3801" transform="rotate(0.876429 50.3672 130.282)" fill="black"/>
<rect x="68.9434" y="144.774" width="0.970167" height="36.673" transform="rotate(90.8764 68.9434 144.774)" fill="black"/>
<rect x="46.9929" y="140.634" width="7.25786" height="6.24412" rx="0.635522" transform="rotate(0.876429 46.9929 140.634)" fill="#F5F4F9" stroke="black" stroke-width="1.27104"/>
<path d="M128.734 143.854C128.346 143.387 127.866 143.029 127.295 142.781C126.74 142.532 126.094 142.41 125.356 142.414C124.619 142.418 123.932 142.564 123.296 142.853C122.677 143.141 122.135 143.546 121.668 144.069C121.218 144.574 120.861 145.18 120.596 145.886C120.349 146.591 120.227 147.355 120.231 148.176C120.236 149.015 120.366 149.785 120.621 150.488C120.893 151.174 121.257 151.776 121.713 152.293C122.168 152.794 122.698 153.185 123.304 153.467C123.925 153.748 124.589 153.887 125.293 153.883C126.098 153.879 126.809 153.708 127.428 153.369C128.046 153.03 128.555 152.558 128.954 151.952L132.237 154.374C131.489 155.434 130.537 156.219 129.383 156.729C128.229 157.238 127.04 157.496 125.815 157.503C124.424 157.51 123.14 157.299 121.964 156.869C120.788 156.44 119.77 155.825 118.91 155.025C118.051 154.208 117.375 153.222 116.882 152.068C116.406 150.914 116.165 149.624 116.157 148.198C116.149 146.773 116.377 145.481 116.84 144.321C117.32 143.162 117.986 142.177 118.836 141.368C119.687 140.542 120.698 139.907 121.869 139.465C123.041 139.023 124.322 138.798 125.714 138.79C126.217 138.787 126.737 138.835 127.274 138.933C127.828 139.013 128.365 139.153 128.886 139.351C129.424 139.55 129.937 139.815 130.425 140.148C130.913 140.481 131.351 140.889 131.739 141.373L128.734 143.854ZM133.835 144.782L137.607 144.762L137.618 146.724L137.668 146.723C138.066 145.967 138.541 145.402 139.093 145.031C139.644 144.642 140.339 144.445 141.177 144.441C141.395 144.44 141.613 144.447 141.831 144.462C142.049 144.478 142.251 144.51 142.435 144.56L142.454 148.005C142.185 147.923 141.917 147.866 141.648 147.834C141.396 147.785 141.128 147.761 140.843 147.763C140.122 147.767 139.552 147.87 139.134 148.074C138.716 148.277 138.391 148.564 138.158 148.934C137.942 149.287 137.802 149.716 137.737 150.219C137.673 150.723 137.643 151.276 137.646 151.88L137.674 156.985L133.901 157.006L133.835 144.782ZM155.259 154.777C154.66 155.552 153.9 156.151 152.98 156.575C152.06 156.999 151.105 157.214 150.116 157.22C149.177 157.225 148.288 157.079 147.448 156.781C146.624 156.484 145.901 156.06 145.278 155.51C144.671 154.944 144.189 154.267 143.833 153.481C143.477 152.695 143.296 151.816 143.291 150.843C143.285 149.87 143.457 148.989 143.804 148.199C144.152 147.409 144.626 146.736 145.227 146.179C145.844 145.606 146.563 145.166 147.383 144.86C148.22 144.553 149.108 144.398 150.046 144.393C150.918 144.388 151.707 144.534 152.413 144.832C153.136 145.13 153.742 145.563 154.231 146.13C154.737 146.681 155.126 147.35 155.399 148.136C155.672 148.923 155.81 149.802 155.816 150.775L155.822 151.957L147.07 152.005C147.224 152.725 147.555 153.301 148.06 153.735C148.565 154.151 149.187 154.357 149.925 154.353C150.545 154.35 151.064 154.213 151.482 153.942C151.916 153.655 152.291 153.293 152.608 152.855L155.259 154.777ZM152.036 149.412C152.049 148.775 151.836 148.231 151.398 147.781C150.96 147.33 150.397 147.107 149.709 147.111C149.29 147.113 148.921 147.182 148.604 147.318C148.286 147.454 148.01 147.631 147.776 147.851C147.56 148.053 147.385 148.297 147.252 148.583C147.136 148.852 147.071 149.137 147.056 149.439L152.036 149.412ZM170.97 156.805L167.499 156.823L167.491 155.214L167.44 155.214C167.291 155.433 167.091 155.66 166.84 155.896C166.607 156.116 166.323 156.318 165.989 156.505C165.671 156.691 165.311 156.844 164.91 156.963C164.525 157.083 164.122 157.144 163.703 157.146C162.798 157.151 161.975 157.004 161.236 156.707C160.496 156.392 159.857 155.959 159.317 155.409C158.795 154.842 158.388 154.173 158.099 153.404C157.81 152.634 157.663 151.788 157.658 150.866C157.653 150.01 157.775 149.197 158.022 148.424C158.286 147.634 158.651 146.936 159.117 146.33C159.6 145.724 160.184 145.243 160.87 144.887C161.555 144.515 162.334 144.326 163.206 144.321C163.994 144.317 164.724 144.439 165.396 144.686C166.085 144.918 166.649 145.325 167.088 145.91L167.138 145.909L167.094 137.811L170.867 137.79L170.97 156.805ZM167.466 150.712C167.461 149.789 167.189 149.045 166.649 148.478C166.126 147.91 165.387 147.629 164.431 147.635C163.476 147.64 162.731 147.929 162.198 148.502C161.681 149.075 161.425 149.822 161.43 150.744C161.435 151.667 161.699 152.411 162.222 152.979C162.761 153.546 163.509 153.827 164.465 153.822C165.421 153.816 166.157 153.527 166.674 152.955C167.207 152.382 167.471 151.634 167.466 150.712ZM173.969 144.564L177.742 144.544L177.808 156.767L174.036 156.788L173.969 144.564ZM173.647 140.718C173.643 140.114 173.85 139.602 174.267 139.18C174.701 138.742 175.219 138.521 175.823 138.518C176.427 138.515 176.939 138.73 177.361 139.164C177.799 139.58 178.02 140.091 178.023 140.694C178.026 141.298 177.811 141.819 177.378 142.257C176.961 142.679 176.45 142.891 175.847 142.894C175.243 142.898 174.722 142.691 174.284 142.274C173.862 141.84 173.65 141.322 173.647 140.718ZM188.794 147.502L185.474 147.52L185.496 151.595C185.498 151.93 185.516 152.24 185.551 152.525C185.586 152.793 185.663 153.027 185.782 153.228C185.9 153.429 186.077 153.587 186.312 153.703C186.564 153.802 186.892 153.851 187.294 153.849C187.495 153.848 187.755 153.829 188.074 153.794C188.409 153.742 188.66 153.64 188.826 153.488L188.843 156.632C188.425 156.785 187.99 156.888 187.537 156.941C187.085 156.994 186.641 157.021 186.205 157.024C185.567 157.027 184.98 156.963 184.443 156.832C183.906 156.701 183.435 156.494 183.031 156.211C182.627 155.911 182.306 155.527 182.069 155.059C181.849 154.591 181.736 154.021 181.733 153.351L181.701 147.541L179.287 147.554L179.27 144.536L181.685 144.523L181.665 140.901L185.438 140.88L185.458 144.502L188.778 144.484L188.794 147.502Z" fill="white"/>
<rect x="5.06186" y="84.0925" width="194.946" height="115.473" rx="11.1216" transform="rotate(-10.6396 5.06186 84.0925)" fill="#2200FF" stroke="black" stroke-width="3.17761"/>
<rect x="38.2866" y="162.065" width="10.8039" height="40.7812" rx="5.40194" transform="rotate(-100.522 38.2866 162.065)" fill="white" stroke="black" stroke-width="1.90657"/>
<rect x="99.0034" y="150.788" width="10.8039" height="40.7812" rx="5.40194" transform="rotate(-100.522 99.0034 150.788)" fill="#39FF14" stroke="black" stroke-width="1.90657"/>
<rect x="159.718" y="139.511" width="10.8039" height="40.7812" rx="5.40194" transform="rotate(-100.522 159.718 139.511)" fill="white" stroke="black" stroke-width="1.90657"/>
<rect x="26.3776" y="98.4554" width="37.2032" height="30.6401" rx="5.7197" transform="rotate(-9.6459 26.3776 98.4554)" fill="#F3F1F2" stroke="black" stroke-width="1.27104"/>
<path d="M35.8501 102.074C38.9642 101.545 41.918 103.641 42.4473 106.755L43.5454 113.216C44.0745 116.33 41.979 119.284 38.865 119.813L30.256 121.276L27.2411 103.538L35.8501 102.074Z" fill="#F5F4F9" stroke="black" stroke-width="1.27104"/>
<path d="M55.3103 98.7687C52.1961 99.2981 50.1005 102.252 50.6298 105.366L51.7279 111.827C52.2574 114.941 55.2111 117.037 58.3252 116.508L66.9341 115.044L63.9192 97.3055L55.3103 98.7687Z" fill="#F5F4F9" stroke="black" stroke-width="1.27104"/>
<rect x="44.3438" y="96.0404" width="0.970167" height="29.3801" transform="rotate(-9.6459 44.3438 96.0404)" fill="black"/>
<rect x="65.2539" y="106.896" width="0.970167" height="36.673" transform="rotate(80.3541 65.2539 106.896)" fill="black"/>
<rect x="42.9166" y="106.834" width="7.25786" height="6.24412" rx="0.635522" transform="rotate(-9.6459 42.9166 106.834)" fill="#F5F4F9" stroke="black" stroke-width="1.27104"/>
<path d="M123.873 95.0725C123.406 94.6839 122.869 94.4196 122.261 94.2797C121.671 94.1367 121.013 94.1345 120.288 94.2732C119.564 94.4119 118.915 94.6811 118.343 95.0808C117.787 95.4774 117.328 95.975 116.964 96.5738C116.614 97.153 116.373 97.8136 116.242 98.5557C116.128 99.2947 116.148 100.068 116.302 100.875C116.46 101.698 116.728 102.432 117.107 103.076C117.5 103.701 117.968 104.226 118.51 104.652C119.049 105.061 119.642 105.348 120.289 105.515C120.951 105.678 121.629 105.694 122.32 105.561C123.111 105.41 123.779 105.112 124.326 104.666C124.872 104.22 125.286 103.662 125.568 102.994L129.238 104.776C128.695 105.955 127.903 106.9 126.861 107.612C125.819 108.323 124.697 108.794 123.495 109.024C122.128 109.286 120.827 109.313 119.593 109.105C118.358 108.898 117.245 108.479 116.254 107.849C115.259 107.203 114.415 106.357 113.72 105.312C113.041 104.264 112.568 103.04 112.3 101.64C112.032 100.241 112.02 98.9284 112.264 97.7038C112.524 96.4761 112.998 95.3866 113.687 94.4353C114.372 93.4676 115.251 92.6594 116.321 92.0106C117.392 91.3618 118.611 90.9066 119.978 90.645C120.472 90.5505 120.992 90.5022 121.538 90.5001C122.097 90.4785 122.651 90.5176 123.199 90.6175C123.764 90.7143 124.317 90.8817 124.858 91.1197C125.398 91.3577 125.904 91.6792 126.374 92.0843L123.873 95.0725ZM129.056 95.0536L132.762 94.3445L133.131 96.2714L133.18 96.2619C133.434 95.4452 133.797 94.8036 134.271 94.3373C134.742 93.8545 135.39 93.5344 136.213 93.3768C136.427 93.3358 136.643 93.3031 136.86 93.2786C137.077 93.2541 137.281 93.2492 137.472 93.2639L138.12 96.6483C137.84 96.6164 137.566 96.6091 137.296 96.6266C137.039 96.6245 136.771 96.6502 136.491 96.7038C135.783 96.8393 135.242 97.0453 134.868 97.3217C134.494 97.5981 134.227 97.9395 134.065 98.346C133.918 98.7328 133.858 99.1795 133.887 99.6862C133.915 100.193 133.986 100.743 134.1 101.336L135.059 106.35L131.354 107.059L129.056 95.0536ZM151.946 100.968C151.498 101.839 150.861 102.567 150.034 103.152C149.207 103.737 148.307 104.122 147.336 104.308C146.413 104.485 145.512 104.504 144.632 104.365C143.768 104.223 142.98 103.938 142.266 103.511C141.566 103.065 140.969 102.488 140.475 101.78C139.981 101.072 139.643 100.241 139.46 99.2854C139.277 98.3302 139.285 97.4325 139.483 96.5923C139.68 95.7521 140.024 95.0035 140.513 94.3466C141.015 93.67 141.641 93.1063 142.391 92.6554C143.158 92.2014 144.002 91.8862 144.925 91.7097C145.781 91.5458 146.583 91.5459 147.332 91.71C148.097 91.8709 148.772 92.1856 149.356 92.6542C149.954 93.1031 150.459 93.6894 150.871 94.413C151.282 95.1366 151.58 95.976 151.762 96.9312L151.985 98.0922L143.388 99.7373C143.672 100.417 144.102 100.924 144.678 101.257C145.25 101.575 145.899 101.664 146.624 101.525C147.233 101.409 147.718 101.179 148.08 100.837C148.454 100.475 148.757 100.05 148.988 99.5619L151.946 100.968ZM147.797 96.2816C147.694 95.6526 147.385 95.1568 146.872 94.7941C146.359 94.4314 145.765 94.3146 145.089 94.4438C144.678 94.5226 144.328 94.6578 144.04 94.8494C143.753 95.0411 143.514 95.266 143.324 95.5242C143.148 95.7628 143.021 96.0347 142.943 96.3399C142.878 96.6254 142.865 96.918 142.906 97.2176L147.797 96.2816ZM167.763 100.092L164.354 100.744L164.052 99.1632L164.002 99.1727C163.895 99.4152 163.74 99.6753 163.537 99.9531C163.347 100.211 163.105 100.463 162.811 100.707C162.532 100.948 162.207 101.164 161.833 101.355C161.477 101.542 161.092 101.676 160.681 101.755C159.791 101.925 158.956 101.931 158.175 101.773C157.39 101.599 156.682 101.29 156.051 100.848C155.434 100.386 154.912 99.8025 154.488 99.0985C154.063 98.3945 153.763 97.5896 153.59 96.6839C153.429 95.8439 153.4 95.0216 153.502 94.2167C153.617 93.3923 153.849 92.6395 154.197 91.9584C154.561 91.2741 155.047 90.6944 155.656 90.2194C156.262 89.7278 156.993 89.4001 157.85 89.2362C158.624 89.0881 159.364 89.0745 160.07 89.1955C160.789 89.2969 161.418 89.5948 161.957 90.0892L162.006 90.0798L160.484 82.1253L164.189 81.4162L167.763 100.092ZM163.205 94.7414C163.032 93.8356 162.628 93.1532 161.994 92.6941C161.377 92.2318 160.598 92.0905 159.66 92.2702C158.721 92.4498 158.042 92.87 157.622 93.5308C157.218 94.1884 157.103 94.9702 157.277 95.8759C157.45 96.7817 157.846 97.4657 158.463 97.928C159.097 98.3871 159.884 98.5268 160.823 98.3472C161.761 98.1675 162.432 97.7489 162.836 97.0912C163.256 96.4304 163.379 95.6472 163.205 94.7414ZM168.477 87.5099L172.182 86.8008L174.48 98.8066L170.774 99.5157L168.477 87.5099ZM167.457 83.7871C167.343 83.1942 167.453 82.6525 167.786 82.162C168.132 81.6519 168.602 81.3401 169.195 81.2266C169.788 81.1131 170.331 81.2311 170.825 81.5805C171.332 81.9103 171.642 82.3716 171.755 82.9645C171.869 83.5574 171.752 84.1089 171.406 84.619C171.073 85.1095 170.61 85.4115 170.017 85.525C169.425 85.6384 168.875 85.5303 168.368 85.2005C167.874 84.8511 167.57 84.3799 167.457 83.7871ZM183.588 87.691L180.328 88.315L181.093 92.3169C181.156 92.6463 181.231 92.9478 181.318 93.2215C181.401 93.4787 181.519 93.6951 181.672 93.8707C181.825 94.0462 182.028 94.1696 182.281 94.2407C182.547 94.2923 182.877 94.2802 183.273 94.2046C183.47 94.1668 183.722 94.1015 184.029 94.0086C184.349 93.8962 184.577 93.7501 184.713 93.5704L185.304 96.6583C184.921 96.8853 184.512 97.066 184.077 97.2005C183.641 97.335 183.21 97.4433 182.781 97.5252C182.156 97.645 181.567 97.6894 181.014 97.6585C180.462 97.6276 179.962 97.51 179.513 97.3056C179.061 97.0848 178.675 96.7659 178.357 96.3489C178.054 95.9288 177.84 95.3893 177.714 94.7306L176.622 89.0241L174.251 89.478L173.683 86.5136L176.055 86.0597L175.374 82.5025L179.079 81.7934L179.76 85.3506L183.021 84.7266L183.588 87.691Z" fill="white"/>
<rect x="2.06848" y="54.7164" width="194.946" height="115.473" rx="11.1216" transform="rotate(-15.6814 2.06848 54.7164)" fill="#2200FF" stroke="black" stroke-width="3.17761"/>
<rect x="42.0161" y="129.467" width="10.8039" height="40.7812" rx="5.40194" transform="rotate(-105.564 42.0161 129.467)" fill="white" stroke="black" stroke-width="1.90657"/>
<rect x="101.504" y="112.898" width="10.8039" height="40.7812" rx="5.40194" transform="rotate(-105.564 101.504 112.898)" fill="#39FF14" stroke="black" stroke-width="1.90657"/>
<rect x="160.995" y="96.3287" width="10.8039" height="40.7812" rx="5.40194" transform="rotate(-105.564 160.995 96.3287)" fill="white" stroke="black" stroke-width="1.90657"/>
<rect x="24.563" y="67.1499" width="37.2032" height="30.6401" rx="5.7197" transform="rotate(-14.6877 24.563 67.1499)" fill="#F3F1F2" stroke="black" stroke-width="1.27104"/>
<path d="M34.317 69.9224C37.3726 69.1216 40.4991 70.9494 41.3 74.005L42.9617 80.3445C43.7624 83.4001 41.9346 86.5266 38.8791 87.3276L30.4321 89.5417L25.8699 72.1365L34.317 69.9224Z" fill="#F5F4F9" stroke="black" stroke-width="1.27104"/>
<path d="M53.4117 64.9191C50.3561 65.7201 48.5281 68.8465 49.3291 71.9021L50.9908 78.2417C51.7918 81.2971 54.9183 83.1251 57.9738 82.3243L66.4209 80.1102L61.8587 62.705L53.4117 64.9191Z" fill="#F5F4F9" stroke="black" stroke-width="1.27104"/>
<rect x="42.248" y="63.1654" width="0.970167" height="29.3801" transform="rotate(-14.6877 42.248 63.1654)" fill="black"/>
<rect x="64.0312" y="72.1418" width="0.970167" height="36.673" transform="rotate(75.3123 64.0312 72.1418)" fill="black"/>
<rect x="41.7739" y="74.0427" width="7.25786" height="6.24412" rx="0.635522" transform="rotate(-14.6877 41.7739 74.0427)" fill="#F5F4F9" stroke="black" stroke-width="1.27104"/>
<path d="M121.383 55.2128C120.884 54.8667 120.325 54.6506 119.708 54.5647C119.107 54.4741 118.452 54.5297 117.742 54.7316C117.032 54.9334 116.41 55.2585 115.875 55.707C115.357 56.1509 114.942 56.687 114.633 57.3154C114.335 57.9231 114.154 58.6023 114.088 59.3531C114.039 60.0993 114.127 60.8675 114.351 61.6578C114.581 62.4642 114.913 63.1717 115.347 63.7803C115.793 64.3681 116.305 64.8501 116.883 65.2263C117.456 65.5863 118.072 65.8208 118.73 65.9298C119.405 66.0343 120.081 65.9902 120.758 65.7976C121.533 65.5774 122.172 65.2212 122.677 64.7289C123.182 64.2367 123.546 63.6452 123.768 62.9545L127.58 64.4067C127.143 65.6292 126.437 66.6406 125.462 67.4409C124.487 68.2413 123.41 68.8088 122.233 69.1437C120.894 69.5244 119.601 69.6656 118.353 69.5673C117.104 69.4691 115.959 69.1498 114.916 68.6096C113.869 68.0532 112.953 67.2851 112.169 66.3053C111.401 65.3209 110.822 64.1432 110.432 62.7723C110.042 61.4015 109.915 60.0954 110.05 58.8541C110.201 57.6082 110.578 56.4813 111.18 55.4732C111.778 54.449 112.582 53.5667 113.592 52.8263C114.601 52.0859 115.776 51.5254 117.114 51.1447C117.598 51.0071 118.112 50.9133 118.655 50.8633C119.211 50.7925 119.766 50.7829 120.321 50.8342C120.892 50.881 121.457 50.9991 122.017 51.1887C122.576 51.3782 123.108 51.6541 123.612 52.0163L121.383 55.2128ZM126.545 54.7384L130.174 53.7064L130.71 55.5934L130.759 55.5796C130.939 54.7438 131.245 54.0728 131.677 53.5666C132.104 53.0443 132.72 52.6684 133.527 52.4391C133.736 52.3795 133.948 52.3279 134.162 52.2844C134.377 52.2409 134.579 52.2181 134.771 52.2161L135.713 55.5304C135.432 55.5232 135.158 55.5401 134.891 55.5812C134.635 55.6016 134.37 55.6508 134.096 55.7288C133.402 55.926 132.882 56.1787 132.533 56.487C132.185 56.7952 131.949 57.1588 131.824 57.5778C131.711 57.9761 131.69 58.4264 131.764 58.9286C131.837 59.4308 131.956 59.9722 132.121 60.5528L133.517 65.4638L129.889 66.4958L126.545 54.7384ZM149.866 58.618C149.496 59.5251 148.925 60.3063 148.153 60.9618C147.38 61.6172 146.518 62.0803 145.567 62.3509C144.664 62.6078 143.767 62.7057 142.878 62.6447C142.006 62.5792 141.195 62.3651 140.447 62.0026C139.71 61.6194 139.065 61.0969 138.511 60.4352C137.957 59.7735 137.546 58.9749 137.28 58.0395C137.014 57.1041 136.943 56.2092 137.066 55.3548C137.189 54.5005 137.465 53.7247 137.895 53.0273C138.335 52.3092 138.91 51.6927 139.617 51.1776C140.341 50.658 141.155 50.2697 142.058 50.0129C142.897 49.7744 143.696 49.704 144.456 49.8016C145.232 49.8947 145.932 50.1489 146.555 50.5643C147.191 50.9589 147.745 51.4985 148.219 52.1831C148.692 52.8678 149.062 53.6778 149.328 54.6132L149.651 55.7503L141.233 58.1445C141.575 58.7968 142.048 59.2637 142.651 59.5455C143.249 59.8111 143.903 59.843 144.613 59.6412C145.21 59.4714 145.673 59.2002 146.003 58.8275C146.344 58.4341 146.608 57.9841 146.796 57.4777L149.866 58.618ZM145.321 54.3147C145.163 53.6972 144.812 53.2304 144.269 52.9142C143.726 52.598 143.123 52.5339 142.462 52.722C142.059 52.8366 141.723 53.002 141.453 53.2182C141.183 53.4344 140.965 53.6794 140.799 53.9533C140.644 54.2065 140.541 54.4885 140.49 54.7994C140.451 55.0895 140.464 55.382 140.531 55.6769L145.321 54.3147ZM165.545 56.3556L162.206 57.305L161.766 55.7567L161.718 55.7705C161.632 56.0214 161.5 56.2942 161.323 56.5888C161.156 56.8626 160.937 57.1342 160.665 57.4033C160.409 57.6679 160.104 57.9116 159.749 58.1346C159.41 58.353 159.039 58.5195 158.636 58.6342C157.765 58.8819 156.933 58.9615 156.141 58.873C155.344 58.7683 154.612 58.5233 153.945 58.1379C153.289 57.7317 152.718 57.1966 152.233 56.5327C151.748 55.8688 151.379 55.0933 151.127 54.2063C150.893 53.3837 150.792 52.5671 150.822 51.7564C150.865 50.925 151.029 50.1548 151.316 49.4458C151.618 48.7321 152.052 48.1119 152.617 47.5852C153.178 47.0423 153.877 46.6516 154.716 46.4131C155.474 46.1976 156.21 46.119 156.924 46.1774C157.649 46.2152 158.302 46.4567 158.882 46.9019L158.93 46.8881L156.715 39.0983L160.343 38.0663L165.545 56.3556ZM160.534 51.4263C160.282 50.5392 159.82 49.8949 159.148 49.4933C158.492 49.0872 157.704 49.0148 156.785 49.2763C155.866 49.5377 155.226 50.016 154.866 50.7111C154.522 51.4017 154.476 52.1905 154.728 53.0775C154.981 53.9645 155.435 54.6112 156.091 55.0173C156.763 55.4189 157.558 55.489 158.478 55.2275C159.397 54.9661 160.029 54.4901 160.373 53.7996C160.733 53.1044 160.787 52.3133 160.534 51.4263ZM165.15 43.7596L168.778 42.7276L172.122 54.485L168.493 55.517L165.15 43.7596ZM163.807 40.1407C163.642 39.5601 163.703 39.0109 163.992 38.493C164.292 37.9544 164.732 37.6026 165.313 37.4375C165.893 37.2723 166.445 37.3421 166.967 37.6468C167.501 37.9307 167.851 38.363 168.016 38.9436C168.181 39.5242 168.114 40.0838 167.814 40.6224C167.525 41.1403 167.091 41.4818 166.51 41.6469C165.929 41.812 165.372 41.7526 164.838 41.4687C164.316 41.164 163.972 40.7214 163.807 40.1407ZM180.219 42.6119L177.025 43.5201L178.14 47.4392C178.232 47.7618 178.333 48.0556 178.443 48.3206C178.549 48.5695 178.685 48.7746 178.853 48.936C179.021 49.0975 179.234 49.2025 179.492 49.2512C179.762 49.2792 180.09 49.2381 180.477 49.128C180.67 49.073 180.916 48.9858 181.213 48.8664C181.522 48.7263 181.736 48.5607 181.856 48.3697L182.716 51.3937C182.354 51.6535 181.963 51.8695 181.541 52.0418C181.119 52.214 180.699 52.3597 180.279 52.479C179.666 52.6533 179.084 52.7493 178.531 52.767C177.978 52.7848 177.469 52.7116 177.004 52.5475C176.534 52.3673 176.122 52.0835 175.768 51.6961C175.43 51.3042 175.169 50.7856 174.986 50.1405L173.397 44.5521L171.074 45.2126L170.249 42.3095L172.571 41.649L171.58 38.1654L175.209 37.1334L176.2 40.617L179.393 39.7089L180.219 42.6119Z" fill="white"/>
</svg>
