<svg width="242" height="222" viewBox="0 0 242 222" fill="none" xmlns="http://www.w3.org/2000/svg">
<rect x="72.7377" y="142.511" width="126.563" height="69.7488" rx="3.07858" transform="rotate(-90.6271 72.7377 142.511)" fill="#39FF14" stroke="black" stroke-width="0.879596"/>
<mask id="path-2-inside-1_2092_3162" fill="white">
<path d="M80.3883 35.3083C80.996 35.4283 81.6253 35.4891 82.2692 35.482C87.3179 35.4266 91.3655 31.2886 91.3102 26.24C91.2949 24.8452 90.9661 23.5279 90.3946 22.3513L121.963 22.0058C121.719 22.8459 121.592 23.7356 121.602 24.6554C121.658 29.7039 125.795 33.7515 130.843 33.6964C131.399 33.6903 131.943 33.632 132.471 33.5311L133.463 124.186C132.933 124.097 132.388 124.05 131.832 124.056C126.784 124.112 122.736 128.25 122.791 133.298C122.799 134.007 122.89 134.696 123.05 135.357L92.47 135.692C92.4905 135.425 92.5022 135.155 92.4993 134.882C92.444 129.833 88.3068 125.785 83.2582 125.84C82.6142 125.847 81.9864 125.921 81.3815 126.055L80.3883 35.3083Z"/>
</mask>
<path d="M80.3883 35.3083C80.996 35.4283 81.6253 35.4891 82.2692 35.482C87.3179 35.4266 91.3655 31.2886 91.3102 26.24C91.2949 24.8452 90.9661 23.5279 90.3946 22.3513L121.963 22.0058C121.719 22.8459 121.592 23.7356 121.602 24.6554C121.658 29.7039 125.795 33.7515 130.843 33.6964C131.399 33.6903 131.943 33.632 132.471 33.5311L133.463 124.186C132.933 124.097 132.388 124.05 131.832 124.056C126.784 124.112 122.736 128.25 122.791 133.298C122.799 134.007 122.89 134.696 123.05 135.357L92.47 135.692C92.4905 135.425 92.5022 135.155 92.4993 134.882C92.444 129.833 88.3068 125.785 83.2582 125.84C82.6142 125.847 81.9864 125.921 81.3815 126.055L80.3883 35.3083Z" fill="white"/>
<path d="M80.3883 35.3083L80.5587 34.4453L79.4969 34.2357L79.5088 35.3179L80.3883 35.3083ZM82.2692 35.482L82.2789 36.3616L82.2789 36.3616L82.2692 35.482ZM91.3102 26.24L92.1898 26.2303L92.1898 26.2303L91.3102 26.24ZM90.3946 22.3513L90.3849 21.4718L88.9968 21.487L89.6034 22.7356L90.3946 22.3513ZM121.963 22.0058L122.808 22.2507L123.138 21.1133L121.953 21.1263L121.963 22.0058ZM121.602 24.6554L120.723 24.665L120.723 24.6651L121.602 24.6554ZM130.843 33.6964L130.853 34.576L130.853 34.576L130.843 33.6964ZM132.471 33.5311L133.35 33.5215L133.339 32.4697L132.305 32.6672L132.471 33.5311ZM133.463 124.186L133.317 125.053L134.354 125.228L134.342 124.176L133.463 124.186ZM131.832 124.056L131.823 123.177L131.823 123.177L131.832 124.056ZM122.791 133.298L121.912 133.308L121.912 133.308L122.791 133.298ZM123.05 135.357L123.06 136.237L124.165 136.225L123.905 135.15L123.05 135.357ZM92.47 135.692L91.593 135.624L91.5195 136.582L92.4797 136.571L92.47 135.692ZM92.4993 134.882L93.3788 134.872L93.3788 134.872L92.4993 134.882ZM83.2582 125.84L83.2486 124.96L83.2485 124.96L83.2582 125.84ZM81.3815 126.055L80.5019 126.064L80.5138 127.147L81.5708 126.914L81.3815 126.055ZM80.3883 35.3083L80.2179 36.1712C80.8835 36.3026 81.5731 36.3693 82.2789 36.3616L82.2692 35.482L82.2596 34.6025C81.6775 34.6089 81.1085 34.5539 80.5587 34.4453L80.3883 35.3083ZM82.2692 35.482L82.2789 36.3616C87.8133 36.3008 92.2503 31.7647 92.1898 26.2303L91.3102 26.24L90.4307 26.2496C90.4806 30.8126 86.8224 34.5524 82.2596 34.6025L82.2692 35.482ZM91.3102 26.24L92.1898 26.2303C92.173 24.702 91.8124 23.2571 91.1858 21.967L90.3946 22.3513L89.6034 22.7356C90.1198 23.7987 90.4169 24.9884 90.4307 26.2496L91.3102 26.24ZM90.3946 22.3513L90.4042 23.2308L121.973 22.8853L121.963 22.0058L121.953 21.1263L90.3849 21.4718L90.3946 22.3513ZM121.963 22.0058L121.118 21.7609C120.851 22.6822 120.712 23.6575 120.723 24.665L121.602 24.6554L122.482 24.6458C122.473 23.8137 122.588 23.0097 122.808 22.2507L121.963 22.0058ZM121.602 24.6554L120.723 24.6651C120.784 30.1993 125.319 34.6363 130.853 34.576L130.843 33.6964L130.834 32.8169C126.271 32.8666 122.532 29.2085 122.482 24.6457L121.602 24.6554ZM130.843 33.6964L130.853 34.576C131.464 34.5693 132.06 34.5051 132.636 34.3951L132.471 33.5311L132.305 32.6672C131.826 32.7589 131.334 32.8114 130.834 32.8169L130.843 33.6964ZM132.471 33.5311L131.591 33.5408L132.583 124.195L133.463 124.186L134.342 124.176L133.35 33.5215L132.471 33.5311ZM133.463 124.186L133.609 123.319C133.031 123.221 132.434 123.17 131.823 123.177L131.832 124.056L131.842 124.936C132.343 124.93 132.835 124.972 133.317 125.053L133.463 124.186ZM131.832 124.056L131.823 123.177C126.288 123.238 121.851 127.774 121.912 133.308L122.791 133.298L123.671 133.289C123.621 128.726 127.279 124.986 131.842 124.936L131.832 124.056ZM122.791 133.298L121.912 133.308C121.92 134.086 122.02 134.841 122.195 135.564L123.05 135.357L123.905 135.15C123.76 134.551 123.678 133.928 123.671 133.289L122.791 133.298ZM123.05 135.357L123.041 134.478L92.4604 134.812L92.47 135.692L92.4797 136.571L123.06 136.237L123.05 135.357ZM92.47 135.692L93.3471 135.759C93.3691 135.473 93.3821 135.176 93.3788 134.872L92.4993 134.882L91.6197 134.891C91.6224 135.133 91.612 135.377 91.593 135.624L92.47 135.692ZM92.4993 134.882L93.3788 134.872C93.3182 129.338 88.783 124.9 83.2486 124.96L83.2582 125.84L83.2678 126.719C87.8306 126.67 91.5698 130.328 91.6197 134.892L92.4993 134.882ZM83.2582 125.84L83.2485 124.96C82.5428 124.968 81.8548 125.05 81.1922 125.196L81.3815 126.055L81.5708 126.914C82.118 126.793 82.6856 126.726 83.2678 126.719L83.2582 125.84ZM81.3815 126.055L82.261 126.045L81.2678 35.2986L80.3883 35.3083L79.5088 35.3179L80.5019 126.064L81.3815 126.055Z" fill="black" mask="url(#path-2-inside-1_2092_3162)"/>
<path d="M91.1391 79.801C91.0449 71.1948 97.9455 64.1417 106.552 64.0474C115.158 63.9532 122.211 70.8536 122.305 79.4599C122.399 88.066 115.499 95.1193 106.893 95.2135C98.2866 95.3075 91.2334 88.407 91.1391 79.801Z" fill="#39FF14" stroke="black" stroke-width="0.879596"/>
<path d="M110.604 72.0148C106.828 70.4685 102.402 71.9419 100.349 75.5903C98.8649 78.2266 98.9946 81.3326 100.419 83.7684L98.6479 84.8062C96.8675 81.7615 96.7054 77.8791 98.5603 74.5836C101.17 69.9464 106.846 68.1202 111.617 70.2151L112.397 68.8295L114.716 73.0786L109.88 73.3008L110.604 72.0148ZM104.402 87.2191C108.178 88.7654 112.604 87.292 114.657 83.6437C116.141 81.0073 116.011 77.9014 114.587 75.4657L116.358 74.4279C118.139 77.4726 118.301 81.3549 116.446 84.6504C113.836 89.2875 108.16 91.1137 103.389 89.0189L102.609 90.4044L100.29 86.1554L105.126 85.9331L104.402 87.2191ZM109.595 83.186L109.533 77.5423C109.53 77.2588 109.297 77.0317 109.014 77.0348C108.731 77.0379 108.504 77.2701 108.507 77.5535L108.552 81.658C108.567 83.0748 107.431 84.2359 106.014 84.2514C104.598 84.2669 103.436 83.1309 103.421 81.7142L103.41 80.688L102.384 80.6993L102.361 78.647L103.387 78.6358L103.359 76.0704L105.411 76.048L105.473 81.6917C105.476 81.9751 105.709 82.2022 105.992 82.1991C106.275 82.196 106.502 81.9638 106.499 81.6805L106.454 77.5759C106.439 76.1592 107.575 74.998 108.992 74.9825C110.408 74.967 111.57 76.103 111.585 77.5198L111.596 78.5459L112.622 78.5347L112.645 80.587L111.619 80.5982L111.647 83.1635L109.595 83.186Z" fill="black"/>
<circle cx="6.20056" cy="6.20056" r="5.76076" transform="matrix(-0.010944 -0.99994 -0.99994 0.010944 112.84 53.5875)" fill="#C59FFF" stroke="black" stroke-width="0.879596"/>
<circle cx="6.20056" cy="6.20056" r="5.76076" transform="matrix(-0.010944 -0.99994 -0.99994 0.010944 113.543 117.933)" fill="#C59FFF" stroke="black" stroke-width="0.879596"/>
<rect x="79.246" y="119.049" width="126.563" height="69.7488" rx="3.07858" transform="rotate(-69.4154 79.246 119.049)" fill="#39FF14" stroke="black" stroke-width="0.879596"/>
<mask id="path-9-inside-2_2092_3162" fill="white">
<path d="M125.165 21.8753C125.688 22.2071 126.253 22.4915 126.855 22.7179C131.582 24.4928 136.853 22.0997 138.628 17.3731C139.118 16.0678 139.289 14.7211 139.182 13.4179L168.735 24.5173C168.204 25.2125 167.764 25.9957 167.441 26.8569C165.665 31.5836 168.058 36.8545 172.784 38.6299C173.305 38.8254 173.833 38.9677 174.361 39.0646L142.486 123.936C142.024 123.662 141.534 123.421 141.013 123.226C136.287 121.451 131.015 123.844 129.24 128.57C128.991 129.234 128.826 129.908 128.736 130.582L100.107 119.83C100.223 119.589 100.332 119.341 100.428 119.086C102.203 114.359 99.81 109.088 95.0833 107.312C94.4806 107.086 93.8689 106.929 93.2569 106.834L125.165 21.8753Z"/>
</mask>
<path d="M125.165 21.8753C125.688 22.2071 126.253 22.4915 126.855 22.7179C131.582 24.4928 136.853 22.0997 138.628 17.3731C139.118 16.0678 139.289 14.7211 139.182 13.4179L168.735 24.5173C168.204 25.2125 167.764 25.9957 167.441 26.8569C165.665 31.5836 168.058 36.8545 172.784 38.6299C173.305 38.8254 173.833 38.9677 174.361 39.0646L142.486 123.936C142.024 123.662 141.534 123.421 141.013 123.226C136.287 121.451 131.015 123.844 129.24 128.57C128.991 129.234 128.826 129.908 128.736 130.582L100.107 119.83C100.223 119.589 100.332 119.341 100.428 119.086C102.203 114.359 99.81 109.088 95.0833 107.312C94.4806 107.086 93.8689 106.929 93.2569 106.834L125.165 21.8753Z" fill="white"/>
<path d="M125.165 21.8753L125.636 21.1325L124.722 20.5529L124.341 21.5661L125.165 21.8753ZM126.855 22.7179L126.546 23.5413L126.546 23.5413L126.855 22.7179ZM138.628 17.3731L139.451 17.6824L139.451 17.6823L138.628 17.3731ZM139.182 13.4179L139.491 12.5944L138.192 12.1064L138.305 13.4898L139.182 13.4179ZM168.735 24.5173L169.434 25.0514L170.153 24.1103L169.045 23.6939L168.735 24.5173ZM167.441 26.8569L166.617 26.5477L166.617 26.5477L167.441 26.8569ZM172.784 38.6299L172.475 39.4533L172.475 39.4533L172.784 38.6299ZM174.361 39.0646L175.184 39.3738L175.554 38.3891L174.519 38.1994L174.361 39.0646ZM142.486 123.936L142.035 124.692L142.939 125.23L143.309 124.246L142.486 123.936ZM141.013 123.226L141.323 122.403L141.323 122.403L141.013 123.226ZM129.24 128.57L128.417 128.261L128.417 128.261L129.24 128.57ZM128.736 130.582L128.427 131.406L129.462 131.794L129.608 130.699L128.736 130.582ZM100.107 119.83L99.3142 119.45L98.8993 120.316L99.7982 120.654L100.107 119.83ZM100.428 119.086L101.251 119.395L101.251 119.395L100.428 119.086ZM95.0833 107.312L95.3925 106.489L95.3925 106.489L95.0833 107.312ZM93.2569 106.834L92.4335 106.525L92.053 107.538L93.1225 107.703L93.2569 106.834ZM125.165 21.8753L124.694 22.6182C125.267 22.9815 125.885 23.2932 126.546 23.5413L126.855 22.7179L127.165 21.8944C126.62 21.6898 126.109 21.4326 125.636 21.1325L125.165 21.8753ZM126.855 22.7179L126.546 23.5413C131.728 25.487 137.505 22.8637 139.451 17.6824L138.628 17.3731L137.804 17.0639C136.2 21.3358 131.436 23.4985 127.165 21.8944L126.855 22.7179ZM138.628 17.3731L139.451 17.6823C139.988 16.2522 140.176 14.7752 140.058 13.346L139.182 13.4179L138.305 13.4898C138.402 14.6671 138.248 15.8833 137.804 17.0639L138.628 17.3731ZM139.182 13.4179L138.872 14.2413L168.426 25.3408L168.735 24.5173L169.045 23.6939L139.491 12.5944L139.182 13.4179ZM168.735 24.5173L168.037 23.9833C167.454 24.7457 166.971 25.6043 166.617 26.5477L167.441 26.8569L168.264 27.1662C168.557 26.387 168.955 25.6794 169.434 25.0514L168.735 24.5173ZM167.441 26.8569L166.617 26.5477C164.671 31.729 167.293 37.5071 172.475 39.4533L172.784 38.6299L173.093 37.8065C168.822 36.202 166.66 31.4381 168.264 27.1662L167.441 26.8569ZM172.784 38.6299L172.475 39.4533C173.047 39.6683 173.626 39.8241 174.202 39.9297L174.361 39.0646L174.519 38.1994C174.039 38.1114 173.562 37.9825 173.093 37.8065L172.784 38.6299ZM174.361 39.0646L173.537 38.7553L141.662 123.627L142.486 123.936L143.309 124.246L175.184 39.3738L174.361 39.0646ZM142.486 123.936L142.936 123.181C142.432 122.881 141.895 122.618 141.323 122.403L141.013 123.226L140.704 124.049C141.173 124.225 141.616 124.442 142.035 124.692L142.486 123.936ZM141.013 123.226L141.323 122.403C136.141 120.457 130.363 123.08 128.417 128.261L129.24 128.57L130.064 128.88C131.668 124.608 136.432 122.445 140.704 124.049L141.013 123.226ZM129.24 128.57L128.417 128.261C128.143 128.989 127.963 129.728 127.864 130.466L128.736 130.582L129.608 130.699C129.689 130.089 129.839 129.479 130.064 128.88L129.24 128.57ZM128.736 130.582L129.045 129.759L100.417 119.007L100.107 119.83L99.7982 120.654L128.427 131.406L128.736 130.582ZM100.107 119.83L100.901 120.21C101.025 119.951 101.144 119.68 101.251 119.395L100.428 119.086L99.6043 118.776C99.5193 119.003 99.4215 119.226 99.3142 119.45L100.107 119.83ZM100.428 119.086L101.251 119.395C103.197 114.213 100.574 108.435 95.3925 106.489L95.0833 107.312L94.774 108.136C99.046 109.74 101.209 114.504 99.6043 118.776L100.428 119.086ZM95.0833 107.312L95.3925 106.489C94.732 106.241 94.0615 106.068 93.3913 105.965L93.2569 106.834L93.1225 107.703C93.6762 107.789 94.2293 107.931 94.7741 108.136L95.0833 107.312ZM93.2569 106.834L94.0804 107.143L125.988 22.1846L125.165 21.8753L124.341 21.5661L92.4335 106.525L93.2569 106.834Z" fill="black" mask="url(#path-9-inside-2_2092_3162)"/>
<path d="M119.092 67.2453C122.118 59.1881 131.103 55.1096 139.16 58.1355C147.217 61.1615 151.296 70.1464 148.27 78.2036C145.244 86.2607 136.259 90.3395 128.202 87.3135C120.145 84.2874 116.066 75.3024 119.092 67.2453Z" fill="#39FF14" stroke="black" stroke-width="0.879596"/>
<g clip-path="url(#clip0_2092_3162)">
<path d="M140.055 67.0299C137.094 64.2219 132.435 63.9943 129.201 66.6525C126.864 68.5734 125.861 71.5159 126.307 74.302L124.281 74.6287C123.722 71.1461 124.976 67.4681 127.898 65.0669C132.009 61.6883 137.96 62.0392 141.651 65.7186L142.879 64.7091L143.503 69.5093L138.915 67.9669L140.055 67.0299ZM128.772 78.96C131.733 81.7679 136.392 81.9955 139.626 79.3373C141.963 77.4165 142.966 74.4741 142.52 71.6881L144.546 71.3614C145.104 74.8439 143.851 78.5218 140.929 80.923C136.818 84.3016 130.866 83.9506 127.176 80.2713L125.948 81.2808L125.323 76.4807L129.912 78.0229L128.772 78.96ZM135.072 77.0789L137.056 71.7952C137.156 71.5299 137.022 71.2341 136.756 71.1345C136.491 71.0348 136.195 71.1691 136.096 71.4344L134.652 75.2771C134.154 76.6035 132.675 77.2749 131.349 76.7768C130.022 76.2786 129.351 74.7995 129.849 73.4731L130.21 72.5124L129.249 72.1516L129.971 70.2303L130.931 70.5911L131.833 68.1894L133.755 68.911L131.77 74.1947C131.671 74.46 131.805 74.7558 132.07 74.8554C132.336 74.955 132.631 74.8208 132.731 74.5555L134.174 70.7128C134.672 69.3864 136.152 68.7149 137.478 69.2131C138.804 69.7113 139.476 71.1904 138.978 72.5168L138.617 73.4775L139.577 73.8383L138.856 75.7596L137.895 75.3988L136.993 77.8005L135.072 77.0789Z" fill="black"/>
</g>
<circle cx="6.20056" cy="6.20056" r="5.76076" transform="matrix(0.35159 -0.936154 -0.936154 -0.35159 148.805 50.6575)" fill="#C59FFF" stroke="black" stroke-width="0.879596"/>
<circle cx="6.20056" cy="6.20056" r="5.76076" transform="matrix(0.35159 -0.936154 -0.936154 -0.35159 126.18 110.901)" fill="#C59FFF" stroke="black" stroke-width="0.879596"/>
<rect x="108.113" y="113.141" width="126.563" height="69.7488" rx="3.07858" transform="rotate(-52.3185 108.113 113.141)" fill="#39FF14" stroke="black" stroke-width="0.879596"/>
<mask id="path-16-inside-3_2092_3162" fill="white">
<path d="M180.572 33.7619C180.975 34.2326 181.43 34.6701 181.94 35.0636C185.936 38.15 191.677 37.4126 194.764 33.4166C195.616 32.3131 196.175 31.0761 196.456 29.799L221.44 49.0958C220.728 49.604 220.077 50.2228 219.515 50.9506C216.429 54.9466 217.166 60.6884 221.162 63.7748C221.602 64.1148 222.065 64.4059 222.541 64.6538L167.124 136.403C166.764 136.005 166.365 135.631 165.925 135.291C161.929 132.205 156.187 132.942 153.101 136.938C152.667 137.5 152.311 138.097 152.027 138.715L127.825 120.021C128.006 119.825 128.183 119.62 128.35 119.404C131.436 115.408 130.698 109.666 126.703 106.58C126.193 106.186 125.655 105.856 125.097 105.586L180.572 33.7619Z"/>
</mask>
<path d="M180.572 33.7619C180.975 34.2326 181.43 34.6701 181.94 35.0636C185.936 38.15 191.677 37.4126 194.764 33.4166C195.616 32.3131 196.175 31.0761 196.456 29.799L221.44 49.0958C220.728 49.604 220.077 50.2228 219.515 50.9506C216.429 54.9466 217.166 60.6884 221.162 63.7748C221.602 64.1148 222.065 64.4059 222.541 64.6538L167.124 136.403C166.764 136.005 166.365 135.631 165.925 135.291C161.929 132.205 156.187 132.942 153.101 136.938C152.667 137.5 152.311 138.097 152.027 138.715L127.825 120.021C128.006 119.825 128.183 119.62 128.35 119.404C131.436 115.408 130.698 109.666 126.703 106.58C126.193 106.186 125.655 105.856 125.097 105.586L180.572 33.7619Z" fill="white"/>
<path d="M180.572 33.7619L181.241 33.1904L180.538 32.3677L179.876 33.2242L180.572 33.7619ZM181.94 35.0636L181.402 35.7597L181.402 35.7598L181.94 35.0636ZM194.764 33.4166L195.46 33.9543L195.46 33.9543L194.764 33.4166ZM196.456 29.799L196.994 29.1029L195.895 28.2544L195.597 29.61L196.456 29.799ZM221.44 49.0958L221.951 49.8117L222.915 49.1236L221.978 48.3997L221.44 49.0958ZM219.515 50.9506L218.819 50.4129L218.819 50.4129L219.515 50.9506ZM221.162 63.7748L220.624 64.471L220.624 64.471L221.162 63.7748ZM222.541 64.6538L223.237 65.1915L223.88 64.359L222.947 63.8735L222.541 64.6538ZM167.124 136.403L166.472 136.993L167.177 137.774L167.82 136.941L167.124 136.403ZM165.925 135.291L166.463 134.595L166.463 134.595L165.925 135.291ZM153.101 136.938L152.405 136.4L152.405 136.4L153.101 136.938ZM152.027 138.715L151.489 139.411L152.364 140.087L152.826 139.082L152.027 138.715ZM127.825 120.021L127.178 119.425L126.527 120.131L127.287 120.718L127.825 120.021ZM128.35 119.404L129.046 119.942L129.046 119.942L128.35 119.404ZM126.703 106.58L127.24 105.884L127.24 105.884L126.703 106.58ZM125.097 105.586L124.401 105.048L123.74 105.905L124.713 106.377L125.097 105.586ZM180.572 33.7619L179.904 34.3334C180.344 34.849 180.844 35.3284 181.402 35.7597L181.94 35.0636L182.477 34.3675C182.017 34.0118 181.605 33.6163 181.241 33.1904L180.572 33.7619ZM181.94 35.0636L181.402 35.7598C185.782 39.1431 192.077 38.3347 195.46 33.9543L194.764 33.4166L194.068 32.8789C191.278 36.4905 186.089 37.1569 182.477 34.3675L181.94 35.0636ZM194.764 33.4166L195.46 33.9543C196.394 32.7452 197.007 31.3885 197.315 29.988L196.456 29.799L195.597 29.61C195.343 30.7637 194.839 31.8809 194.068 32.879L194.764 33.4166ZM196.456 29.799L195.918 30.4951L220.902 49.792L221.44 49.0958L221.978 48.3997L196.994 29.1029L196.456 29.799ZM221.44 49.0958L220.929 48.38C220.148 48.9372 219.435 49.6157 218.819 50.4129L219.515 50.9506L220.211 51.4883C220.72 50.83 221.308 50.2708 221.951 49.8117L221.44 49.0958ZM219.515 50.9506L218.819 50.4129C215.436 54.7934 216.244 61.0876 220.624 64.471L221.162 63.7748L221.7 63.0787C218.088 60.2893 217.422 55.0998 220.211 51.4883L219.515 50.9506ZM221.162 63.7748L220.624 64.471C221.108 64.8447 221.615 65.1636 222.135 65.4342L222.541 64.6538L222.947 63.8735C222.514 63.6482 222.096 63.3848 221.7 63.0787L221.162 63.7748ZM222.541 64.6538L221.845 64.1162L166.428 135.866L167.124 136.403L167.82 136.941L223.237 65.1915L222.541 64.6538ZM167.124 136.403L167.776 135.814C167.383 135.379 166.947 134.969 166.463 134.595L165.925 135.291L165.387 135.987C165.784 136.293 166.144 136.631 166.472 136.993L167.124 136.403ZM165.925 135.291L166.463 134.595C162.082 131.212 155.788 132.02 152.405 136.4L153.101 136.938L153.797 137.476C156.586 133.864 161.776 133.198 165.387 135.987L165.925 135.291ZM153.101 136.938L152.405 136.4C151.929 137.017 151.539 137.671 151.228 138.347L152.027 138.715L152.826 139.082C153.084 138.522 153.405 137.982 153.797 137.476L153.101 136.938ZM152.027 138.715L152.565 138.019L128.362 119.325L127.825 120.021L127.287 120.718L151.489 139.411L152.027 138.715ZM127.825 120.021L128.471 120.618C128.666 120.407 128.86 120.182 129.046 119.942L128.35 119.404L127.653 118.866C127.506 119.058 127.347 119.242 127.178 119.425L127.825 120.021ZM128.35 119.404L129.046 119.942C132.429 115.561 131.621 109.267 127.24 105.884L126.703 106.58L126.165 107.276C129.776 110.065 130.443 115.255 127.653 118.866L128.35 119.404ZM126.703 106.58L127.24 105.884C126.682 105.452 126.092 105.09 125.481 104.794L125.097 105.586L124.713 106.377C125.218 106.622 125.704 106.92 126.165 107.276L126.703 106.58ZM125.097 105.586L125.794 106.123L181.268 34.2996L180.572 33.7619L179.876 33.2242L124.401 105.048L125.097 105.586Z" fill="black" mask="url(#path-16-inside-3_2092_3162)"/>
<path d="M161.428 75.3393C166.689 68.5278 176.476 67.271 183.287 72.5318C190.099 77.7929 191.356 87.5798 186.095 94.3914C180.834 101.203 171.047 102.46 164.235 97.1988C157.424 91.9378 156.167 82.1508 161.428 75.3393Z" fill="#39FF14" stroke="black" stroke-width="0.879596"/>
<g clip-path="url(#clip1_2092_3162)">
<path d="M181.527 81.2965C179.522 77.7419 175.136 76.1549 171.263 77.7447C168.465 78.8936 166.641 81.4112 166.249 84.2055L164.216 83.9219C164.706 80.4291 166.986 77.2822 170.484 75.8461C175.407 73.8253 180.992 75.9104 183.438 80.5122L184.909 79.9084L184.094 84.68L180.162 81.8569L181.527 81.2965ZM167.235 89.3821C169.24 92.9366 173.626 94.5237 177.499 92.9338C180.297 91.785 182.121 89.2675 182.513 86.4733L184.546 86.7568C184.056 90.2496 181.776 93.3964 178.278 94.8325C173.356 96.8532 167.77 94.7681 165.324 90.1664L163.854 90.7702L164.668 85.9986L168.6 88.8217L167.235 89.3821ZM173.81 89.4364L177.26 84.9696C177.433 84.7452 177.392 84.423 177.168 84.2498C176.943 84.0766 176.621 84.118 176.448 84.3423L173.939 87.5909C173.073 88.7122 171.461 88.9191 170.34 88.053C169.219 87.187 169.012 85.5758 169.878 84.4545L170.505 83.6423L169.693 83.015L170.948 81.3907L171.76 82.018L173.328 79.9876L174.952 81.2422L171.502 85.709C171.329 85.9333 171.37 86.2555 171.595 86.4287C171.819 86.6019 172.141 86.5606 172.314 86.3363L174.823 83.0877C175.69 81.9664 177.301 81.7594 178.422 82.6255C179.543 83.4916 179.75 85.1028 178.884 86.2241L178.257 87.0363L179.069 87.6636L177.815 89.2879L177.002 88.6606L175.434 90.6909L173.81 89.4364Z" fill="black"/>
</g>
<circle cx="6.20056" cy="6.20056" r="5.76076" transform="matrix(0.611271 -0.791421 -0.791421 -0.611271 194.705 68.2216)" fill="#C59FFF" stroke="black" stroke-width="0.879596"/>
<circle cx="6.20056" cy="6.20056" r="5.76076" transform="matrix(0.611271 -0.791421 -0.791421 -0.611271 155.369 119.151)" fill="#C59FFF" stroke="black" stroke-width="0.879596"/>
<path d="M28.5386 63.7822L28.9878 66.3558L28.5146 66.6356C30.7142 67.5843 32.9068 69.3192 34.9393 71.8657C42.316 81.1086 44.7978 97.5273 40.4826 108.538C39.8558 110.137 39.1182 111.533 38.2958 112.725L39.0845 113.179L39.4419 114.169L39.5292 114.868L33.0071 117.198C28.6974 118.909 23.643 117.165 19.3118 111.738C11.935 102.495 9.45303 86.0765 13.7685 75.0661C15.606 70.378 18.3799 67.4272 21.5286 66.2966L21.5284 66.2874L28.5386 63.7822Z" fill="#2200FF"/>
<path d="M11.6895 88.9017C11.2897 82.8447 12.9959 76.9039 13.899 74.6906L20.2479 73.5113C18.5041 80.0724 18.356 85.9339 18.4999 88.0446L11.6895 88.9017Z" fill="#39FF14"/>
<path d="M12.6407 96.943C11.9099 92.3528 11.6972 91.0872 11.7057 89.6285L18.6465 88.7011C19.0376 92.93 19.2545 93.6317 19.8856 96.2596L12.6407 96.943Z" fill="#39FF14"/>
<ellipse cx="21.4127" cy="21.4127" rx="21.4127" ry="21.4127" transform="matrix(-0.623787 -0.781595 0.364917 -0.93104 39.4746 126.019)" fill="#C59FFF"/>
<ellipse cx="15.9611" cy="15.9611" rx="15.9611" ry="15.9611" transform="matrix(-0.623787 -0.781595 0.364917 -0.93104 38.0625 116.681)" fill="#2200FF"/>
<mask id="mask0_2092_3162" style="mask-type:alpha" maskUnits="userSpaceOnUse" x="22" y="69" width="24" height="40">
<ellipse cx="15.9611" cy="15.9611" rx="15.9611" ry="15.9611" transform="matrix(-0.623787 -0.781595 0.364917 -0.93104 38.0625 116.681)" fill="#9957FF" fill-opacity="0.4"/>
</mask>
<g mask="url(#mask0_2092_3162)">
<rect width="3.70885" height="42.0336" transform="translate(32.998 65.6461) rotate(15.7113)" fill="#B280FF"/>
<rect width="3.70885" height="42.0336" transform="translate(41.3926 68.0227) rotate(15.7113)" fill="#B280FF"/>
<rect width="0.370885" height="42.0336" transform="translate(38.918 67.3905) rotate(15.7113)" fill="#B280FF"/>
</g>
<path d="M53.2261 40.3296L53.6753 42.9031L53.2012 43.1833C55.4012 44.132 57.5943 45.8669 59.6271 48.414C67.0038 57.6571 69.4859 74.0757 65.1705 85.0859C64.5437 86.6851 63.8056 88.0807 62.9833 89.2724L63.772 89.7259L64.1294 90.7161L64.2167 91.4155L57.7121 93.7393C53.3986 95.4618 48.3362 93.7195 43.9993 88.2855C36.6226 79.0424 34.1405 62.6238 38.456 51.6135C40.2935 46.9255 43.0678 43.9755 46.2165 42.8449L46.2159 42.8347L53.2261 40.3296Z" fill="#2200FF"/>
<path d="M36.377 65.4493C35.9772 59.3923 37.6834 53.4515 38.5865 51.2382L44.9354 50.059C43.1916 56.62 43.0435 62.4815 43.1874 64.5922L36.377 65.4493Z" fill="#39FF14"/>
<path d="M37.3282 73.4906C36.5974 68.9004 36.3847 67.6348 36.3932 66.1761L43.334 65.2487C43.7251 69.4776 43.942 70.1793 44.5731 72.8072L37.3282 73.4906Z" fill="#39FF14"/>
<ellipse cx="21.4127" cy="21.4127" rx="21.4127" ry="21.4127" transform="matrix(-0.623787 -0.781595 0.364917 -0.93104 64.1621 102.567)" fill="#C59FFF"/>
<ellipse cx="15.9611" cy="15.9611" rx="15.9611" ry="15.9611" transform="matrix(-0.623787 -0.781595 0.364917 -0.93104 62.75 93.2284)" fill="#2200FF"/>
<mask id="mask1_2092_3162" style="mask-type:alpha" maskUnits="userSpaceOnUse" x="47" y="46" width="24" height="40">
<ellipse cx="15.9611" cy="15.9611" rx="15.9611" ry="15.9611" transform="matrix(-0.623787 -0.781595 0.364917 -0.93104 62.75 93.2284)" fill="#9957FF" fill-opacity="0.4"/>
</mask>
<g mask="url(#mask1_2092_3162)">
<rect width="3.70885" height="42.0336" transform="translate(57.6855 42.1941) rotate(15.7113)" fill="#B280FF"/>
<rect width="3.70885" height="42.0336" transform="translate(66.0801 44.5707) rotate(15.7113)" fill="#B280FF"/>
<rect width="0.370885" height="42.0336" transform="translate(63.6055 43.9385) rotate(15.7113)" fill="#B280FF"/>
</g>
<path d="M41.2984 51.6616L41.7475 54.2352L41.2744 54.515C43.474 55.4638 45.6666 57.1985 47.6991 59.7451C55.0758 68.9882 57.5579 85.4067 53.2424 96.4171C52.6155 98.0164 51.8781 99.4126 51.0556 100.604L51.8442 101.058L52.2016 102.048L52.289 102.748L45.754 105.082C41.4471 106.785 36.398 105.038 32.0713 99.6166C24.6946 90.3735 22.2125 73.9549 26.5279 62.9446C28.3654 58.2566 31.1397 55.3066 34.2884 54.176L34.2882 54.1668L41.2984 51.6616Z" fill="#2200FF"/>
<path d="M24.4493 76.7811C24.0495 70.7241 25.7557 64.7833 26.6588 62.57L33.0076 61.3907C31.2639 67.9518 31.1157 73.8133 31.2596 75.924L24.4493 76.7811Z" fill="#39FF14"/>
<path d="M25.4005 84.8224C24.6697 80.2322 24.457 78.9666 24.4654 77.5078L31.4063 76.5805C31.7974 80.8094 32.0142 81.5111 32.6454 84.139L25.4005 84.8224Z" fill="#39FF14"/>
<ellipse cx="21.4127" cy="21.4127" rx="21.4127" ry="21.4127" transform="matrix(-0.623787 -0.781595 0.364917 -0.93104 52.2344 113.898)" fill="#C59FFF"/>
<ellipse cx="15.9611" cy="15.9611" rx="15.9611" ry="15.9611" transform="matrix(-0.623787 -0.781595 0.364917 -0.93104 50.8223 104.56)" fill="#2200FF"/>
<mask id="mask2_2092_3162" style="mask-type:alpha" maskUnits="userSpaceOnUse" x="35" y="57" width="24" height="40">
<ellipse cx="15.9611" cy="15.9611" rx="15.9611" ry="15.9611" transform="matrix(-0.623787 -0.781595 0.364917 -0.93104 50.8223 104.561)" fill="#9957FF" fill-opacity="0.4"/>
</mask>
<g mask="url(#mask2_2092_3162)">
<rect width="3.70885" height="42.0336" transform="translate(45.7578 53.5265) rotate(15.7113)" fill="#B280FF"/>
<rect width="3.70885" height="42.0336" transform="translate(54.1523 55.9023) rotate(15.7113)" fill="#B280FF"/>
<rect width="0.370885" height="42.0336" transform="translate(51.6777 55.2709) rotate(15.7113)" fill="#B280FF"/>
</g>
<rect x="28.8675" y="85.2875" width="115.022" height="68.1313" rx="6.56201" transform="rotate(-22.5089 28.8675 85.2875)" fill="#2200FF" stroke="black" stroke-width="1.87486"/>
<rect x="55.8204" y="124.8" width="6.37453" height="24.0618" rx="3.18726" transform="rotate(-110.014 55.8204 124.8)" fill="white" stroke="black" stroke-width="1.12492"/>
<rect x="90.0567" y="112.33" width="6.37453" height="24.0618" rx="3.18726" transform="rotate(-110.014 90.0567 112.33)" fill="white" stroke="black" stroke-width="1.12492"/>
<rect x="124.291" y="99.8598" width="6.37453" height="24.0618" rx="3.18726" transform="rotate(-110.014 124.291 99.8598)" fill="white" stroke="black" stroke-width="1.12492"/>
<rect x="41.6446" y="91.5196" width="21.9507" height="18.0783" rx="3.37475" transform="rotate(-21.5152 41.6446 91.5196)" fill="#F3F1F2" stroke="black" stroke-width="0.749944"/>
<path d="M47.5532 92.4602C49.2871 91.7766 51.2472 92.6283 51.9308 94.3622L53.3487 97.959C54.0322 99.693 53.1806 101.653 51.4466 102.337L46.6533 104.226L42.7598 94.3498L47.5532 92.4602Z" fill="#F5F4F9" stroke="black" stroke-width="0.749944"/>
<path d="M58.3879 88.1892C56.654 88.8728 55.8023 90.8329 56.4858 92.5668L57.9038 96.1637C58.5873 97.8976 60.5474 98.7493 62.2814 98.0657L67.0747 96.1761L63.1812 86.2996L58.3879 88.1892Z" fill="#F5F4F9" stroke="black" stroke-width="0.749944"/>
<rect x="51.7266" y="87.9445" width="0.572419" height="17.3349" transform="rotate(-21.5152 51.7266 87.9445)" fill="black"/>
<rect x="65.1172" y="91.6763" width="0.572419" height="21.6379" transform="rotate(68.4848 65.1172 91.6763)" fill="black"/>
<rect x="52.211" y="94.3498" width="4.28229" height="3.68417" rx="0.374972" transform="rotate(-21.5152 52.211 94.3498)" fill="#F5F4F9" stroke="black" stroke-width="0.749944"/>
<path d="M12.2275 105.248H149.479C165.528 105.248 178.539 118.259 178.539 134.309V191.523C178.539 207.572 165.528 220.583 149.479 220.583H12.2275C8.60371 220.583 5.66615 217.646 5.66602 214.022V111.81C5.66624 108.186 8.60377 105.249 12.2275 105.248Z" fill="#39FF14" stroke="black" stroke-width="1.87486"/>
<path d="M177.535 176.738L136.134 176.738C128.501 176.738 122.313 170.55 122.313 162.917C122.313 155.284 128.501 149.096 136.134 149.095L177.535 149.095C178.06 149.095 178.486 149.521 178.486 150.047L178.486 175.787C178.486 176.312 178.06 176.738 177.535 176.738Z" fill="#39FF14" stroke="black" stroke-width="1.87486"/>
<rect x="165.018" y="195.807" width="5.17767" height="24.0618" rx="2.58884" transform="rotate(-46.2164 165.018 195.807)" fill="#C59FFF" stroke="black" stroke-width="1.12492"/>
<path d="M178.416 185.57L133.789 177.068L135.635 176.471L178.416 177.441V185.57Z" fill="#1B1B1B"/>
<path d="M177.799 131.914C178.081 137.106 182.24 141.266 187.433 141.548V142.384C182.24 142.666 178.081 146.826 177.799 152.019H176.962C176.68 146.826 172.52 142.666 167.328 142.384V141.548C172.52 141.266 176.68 137.106 176.962 131.914H177.799Z" fill="white" stroke="black" stroke-width="1.12492"/>
<path d="M49.7949 8.55444C50.0768 13.7467 54.2365 17.9065 59.4287 18.1882V19.0242C54.2364 19.3059 50.0767 23.4666 49.7949 28.6589H48.958C48.6762 23.4667 44.5165 19.306 39.3242 19.0242V18.1882C44.5164 17.9064 48.6761 13.7466 48.958 8.55444H49.7949Z" fill="white" stroke="black" stroke-width="1.12492"/>
<circle cx="138.077" cy="162.916" r="6.4147" fill="white" stroke="black" stroke-width="1.12492"/>
<path d="M93.8893 76.5677L97.0928 75.2275C97.8685 74.9029 98.6395 74.6822 99.4057 74.5654C100.181 74.4448 100.911 74.4719 101.595 74.6467C102.276 74.8124 102.897 75.1426 103.457 75.6372C104.027 76.128 104.498 76.816 104.868 77.7013C105.196 78.4862 105.336 79.2429 105.287 79.9712C105.243 80.6866 105.056 81.3547 104.726 81.9754C104.392 82.587 103.94 83.1352 103.371 83.6201C102.801 84.1049 102.156 84.4981 101.435 84.7998L97.9443 86.2603L93.8893 76.5677ZM99.2552 83.3954L100.364 82.9315C100.857 82.7253 101.292 82.4842 101.67 82.2082C102.057 81.9283 102.358 81.6094 102.573 81.2514C102.784 80.8843 102.898 80.4773 102.915 80.0306C102.937 79.5709 102.833 79.0673 102.604 78.5197C102.406 78.0451 102.143 77.6725 101.815 77.4021C101.493 77.1187 101.133 76.9259 100.737 76.8238C100.34 76.7216 99.9134 76.7017 99.4568 76.764C99.0056 76.8133 98.5564 76.9315 98.1092 77.1186L96.8497 77.6456L99.2552 83.3954ZM113.888 78.2386C113.736 78.7958 113.456 79.2936 113.049 79.7318C112.643 80.1699 112.17 80.5017 111.632 80.7269C111.121 80.9408 110.603 81.061 110.078 81.0876C109.562 81.1104 109.072 81.0419 108.608 80.882C108.15 80.7091 107.735 80.4483 107.364 80.0996C106.993 79.7508 106.696 79.3117 106.475 78.7824C106.254 78.253 106.149 77.7338 106.161 77.2246C106.173 76.7155 106.281 76.2416 106.483 75.803C106.691 75.3514 106.984 74.9499 107.363 74.5985C107.75 74.2433 108.2 73.9588 108.711 73.745C109.185 73.5464 109.649 73.4491 110.101 73.453C110.562 73.4531 110.99 73.5529 111.384 73.7525C111.784 73.9392 112.147 74.2164 112.472 74.5843C112.798 74.9521 113.071 75.4007 113.293 75.9301L113.562 76.5735L108.798 78.5667C109.044 78.9248 109.354 79.1652 109.727 79.2879C110.096 79.4016 110.482 79.3744 110.883 79.2064C111.221 79.0651 111.473 78.8737 111.64 78.6322C111.813 78.3778 111.936 78.0956 112.01 77.7858L113.888 78.2386ZM110.924 76.0363C110.788 75.6856 110.55 75.4367 110.21 75.2896C109.869 75.1424 109.512 75.1471 109.138 75.3037C108.91 75.3992 108.724 75.5197 108.581 75.6652C108.438 75.8108 108.328 75.9696 108.25 76.1417C108.177 76.3009 108.136 76.4733 108.128 76.659C108.126 76.8318 108.154 77.0022 108.214 77.1703L110.924 76.0363ZM111.795 68.3044L113.848 67.4453L115.693 71.8535L115.72 71.8421C115.824 71.4234 116.031 71.0737 116.343 70.7932C116.66 70.4998 117.033 70.2633 117.462 70.0839C117.936 69.8853 118.403 69.8082 118.861 69.8524C119.315 69.8875 119.739 70.0159 120.132 70.2375C120.534 70.4554 120.893 70.7501 121.21 71.1218C121.531 71.4805 121.79 71.8926 121.984 72.3581C122.194 72.8601 122.31 73.3534 122.33 73.8382C122.351 74.3229 122.28 74.7815 122.118 75.214C121.961 75.6336 121.718 76.0141 121.389 76.3555C121.056 76.6878 120.643 76.957 120.15 77.1632C119.913 77.2625 119.676 77.3241 119.439 77.348C119.203 77.3719 118.972 77.3719 118.747 77.3479C118.532 77.32 118.331 77.2754 118.144 77.214C117.963 77.1397 117.807 77.0604 117.675 76.9761L117.648 76.9876L118.014 77.8638L116.125 78.6542L111.795 68.3044ZM116.622 74.5371C116.832 75.039 117.144 75.386 117.557 75.5779C117.978 75.7661 118.449 75.7513 118.97 75.5337C119.49 75.316 119.827 74.9928 119.98 74.5642C120.142 74.1317 120.118 73.6644 119.908 73.1625C119.698 72.6605 119.382 72.3155 118.96 72.1273C118.547 71.9354 118.081 71.9482 117.561 72.1659C117.04 72.3835 116.699 72.7086 116.537 73.1411C116.384 73.5698 116.412 74.0351 116.622 74.5371ZM121.8 68.4618L123.854 67.6027L126.637 74.2561L124.584 75.1152L121.8 68.4618ZM120.76 66.436C120.622 66.1074 120.62 65.7813 120.753 65.4577C120.891 65.1211 121.124 64.8841 121.452 64.7467C121.781 64.6092 122.109 64.6114 122.436 64.7532C122.769 64.8821 123.004 65.1108 123.142 65.4394C123.279 65.768 123.279 66.1005 123.141 66.4371C123.008 66.7607 122.778 66.9913 122.449 67.1287C122.12 67.2662 121.79 67.2705 121.457 67.1416C121.13 66.9998 120.897 66.7646 120.76 66.436ZM130.548 66.7325L128.741 67.4885L129.669 69.7063C129.745 69.8889 129.825 70.0539 129.908 70.2014C129.987 70.3398 130.082 70.4504 130.191 70.5332C130.301 70.616 130.433 70.6626 130.588 70.673C130.748 70.6705 130.937 70.6234 131.156 70.5318C131.266 70.486 131.403 70.4177 131.569 70.3269C131.74 70.2231 131.854 70.1111 131.911 69.9908L132.627 71.702C132.433 71.8796 132.219 72.0337 131.984 72.1641C131.749 72.2946 131.513 72.4095 131.275 72.5088C130.929 72.6539 130.594 72.751 130.271 72.8002C129.949 72.8493 129.645 72.8422 129.361 72.7787C129.074 72.706 128.812 72.5687 128.578 72.3666C128.352 72.1606 128.163 71.8752 128.01 71.5101L126.687 68.3477L125.373 68.8975L124.686 67.2547L126 66.7049L125.175 64.7335L127.229 63.8744L128.053 65.8457L129.861 65.0897L130.548 66.7325Z" fill="white"/>
<path d="M12.3633 110.839H103.045L47.0015 216.435H12.3633V110.839Z" fill="#44CF2A"/>
<defs>
<clipPath id="clip0_2092_3162">
<rect width="24.6287" height="24.6287" fill="white" transform="translate(118.551 80.1962) rotate(-69.4154)"/>
</clipPath>
<clipPath id="clip1_2092_3162">
<rect width="24.6287" height="24.6287" fill="white" transform="translate(157.104 87.5597) rotate(-52.3185)"/>
</clipPath>
</defs>
</svg>
