<svg width="238" height="223" viewBox="0 0 238 223" fill="none" xmlns="http://www.w3.org/2000/svg">
<path opacity="0.8" d="M6.21353 27.4631C3.02952 13.3901 13.7286 0 28.1572 0H168.98C179.347 0 188.373 7.08454 190.835 17.1554L231.095 181.834C234.559 196.005 223.828 209.675 209.24 209.675H65.4158C54.9031 209.675 45.7919 202.395 43.472 192.142L6.21353 27.4631Z" fill="#2200FF"/>
<path d="M12.0121 13.8401C10.3399 6.7752 15.6987 0 22.9588 0H178.289C183.488 0 188.009 3.5627 189.226 8.61738L231.546 184.489C233.249 191.565 227.887 198.37 220.609 198.37H64.5853C59.3707 198.37 54.8396 194.786 53.6386 189.712L12.0121 13.8401Z" fill="black"/>
<mask id="mask0_2092_3163" style="mask-type:alpha" maskUnits="userSpaceOnUse" x="11" y="0" width="221" height="199">
<path d="M12.0121 13.8401C10.3399 6.7752 15.6987 0 22.9588 0H178.289C183.488 0 188.009 3.5627 189.226 8.61738L231.546 184.489C233.249 191.565 227.887 198.37 220.609 198.37H64.5853C59.3707 198.37 54.8396 194.786 53.6386 189.712L12.0121 13.8401Z" fill="black"/>
</mask>
<g mask="url(#mask0_2092_3163)">
<path d="M44.0234 148.508H223.111L235.605 198.371H55.7318L44.0234 148.508Z" fill="#E8E8E8"/>
</g>
<path d="M24.3918 16.6214C24.1075 15.4419 25.0013 14.3071 26.2145 14.3071H176.95C177.818 14.3071 178.573 14.903 178.774 15.7475L206.842 133.562C207.123 134.741 206.23 135.872 205.018 135.872H54.6149C53.7487 135.872 52.9952 135.278 52.7922 134.436L24.3918 16.6214Z" fill="#39FF14"/>
<path d="M126.435 47.5389L124.218 46.2552L124.215 48.8038L126.435 50.0892L128.655 48.8041L128.652 46.2555L126.435 47.5389ZM130.857 44.9786L130.86 47.5272L136.919 44.0196V37.0073L134.712 38.278V42.7471L130.857 44.9786ZM134.712 35.7312L136.919 34.4605V31.8805L134.716 30.6053L132.514 31.8805L134.712 33.153V35.7312ZM130.311 30.6053L132.514 29.3301L126.435 25.8109L120.356 29.3302L122.559 30.6054L126.435 28.3613L130.311 30.6053ZM120.356 31.8805L118.154 30.6054L115.951 31.8805V34.4609L118.158 35.7316V33.153L120.356 31.8805ZM115.951 37.0077L118.158 38.2785V42.7471L122.012 44.9783L122.009 47.5268L115.951 44.0196V37.0077ZM132.504 34.4256L130.311 33.1557L126.435 35.3998L122.559 33.1557L120.365 34.4256V37.0024L124.226 39.2252L124.221 43.7067L126.435 44.9885L128.649 43.707L128.643 39.2251L132.504 37.002V34.4256ZM122.015 42.4298L122.017 40.5004L120.365 39.5492V41.4747L122.015 42.4298ZM124.761 31.8806L126.435 32.8494L128.108 31.8805L126.435 30.9116L124.761 31.8806ZM130.852 40.5003L132.504 39.5489V41.4746L130.854 42.4301L130.852 40.5003Z" fill="black"/>
<g clip-path="url(#clip0_2092_3163)">
<path d="M93.6144 49.8611C99.6653 47.3785 102.558 40.4606 100.076 34.4097C97.593 28.3588 90.6751 25.466 84.6242 27.9486C78.5732 30.4312 75.6805 37.349 78.1631 43.4C80.6456 49.4509 87.5635 52.3437 93.6144 49.8611ZM93.6293 35.2164C93.9128 36.4477 93.5396 37.2595 92.8044 37.7936C94.1409 37.956 95.043 38.6649 95.1479 40.5144C95.2855 42.8315 93.8033 43.655 91.5783 44.108L91.9267 46.4701L90.6059 46.6649L90.2575 44.3028C90.107 44.3223 89.9573 44.3467 89.8076 44.371C89.6012 44.4045 89.3879 44.439 89.1726 44.4627L89.5211 46.8249L88.2026 47.0194L87.8541 44.6572L85.2037 44.986L85.1742 43.2268C85.1742 43.2268 86.1756 43.1051 86.1553 43.0952C86.5223 43.0395 86.5899 42.7394 86.5897 42.5487L86.0301 38.7623L85.6469 36.0651C85.5653 35.7901 85.3409 35.4785 84.7993 35.5472C84.8245 35.5141 83.8322 35.6898 83.8322 35.6898L83.5977 34.1073L86.3046 33.7082L85.9632 31.3944L87.3269 31.1933L87.6683 33.5071C88.0164 33.4455 88.361 33.4028 88.7136 33.3529L88.3722 31.0392L89.699 30.8435L90.0493 33.218C91.7971 33.152 93.2301 33.5289 93.6293 35.2164ZM88.2178 37.9362C89.0264 37.8571 91.4237 37.6229 91.1974 36.0473C90.9751 34.5525 88.9556 34.8966 88.0173 35.0564C87.9068 35.0752 87.8112 35.0915 87.7353 35.1019L88.1503 37.9427L88.2178 37.9362ZM88.8234 42.5775L88.9404 42.5656C89.9354 42.4656 92.7588 42.1816 92.5186 40.6242C92.3101 39.1149 89.8299 39.5114 88.7195 39.689C88.5978 39.7084 88.4924 39.7253 88.4085 39.7366L88.8234 42.5775Z" fill="black"/>
</g>
<g clip-path="url(#clip1_2092_3163)">
<path d="M53.9472 25.7827L48.5072 41.2005L57.7848 44.3796L65.046 37.7876L53.9472 25.7827ZM59.5042 52.7115L48.8307 42.7681L58.1149 45.9793L65.3695 39.3552L59.5042 52.7115Z" fill="black"/>
</g>
<path d="M157.879 48.4096C151.333 48.4096 146.027 43.1038 146.027 36.5582C146.027 30.0125 151.333 24.7068 157.879 24.7068C164.424 24.7068 169.73 30.0125 169.73 36.5582C169.73 43.1038 164.424 48.4096 157.879 48.4096ZM163.116 30.6325L159.728 33.9827C159.235 34.4693 158.57 34.7421 157.877 34.7421C157.185 34.7421 156.52 34.4693 156.027 33.9827L152.642 30.6325H150.498L154.957 35.0449C155.736 35.8124 156.785 36.2426 157.879 36.2426C158.972 36.2426 160.022 35.8124 160.801 35.0449L165.257 30.6325H163.116H163.116ZM152.616 42.9009L156.03 39.521C156.523 39.0345 157.188 38.7617 157.88 38.7617C158.573 38.7617 159.238 39.0345 159.731 39.521L163.141 42.9009H165.286L160.801 38.4618C160.022 37.6943 158.972 37.2641 157.879 37.2641C156.785 37.2641 155.736 37.6943 154.957 38.4618L150.472 42.9002H152.616V42.9009Z" fill="black"/>
<path d="M63.7571 158.441C63.5494 157.58 64.2023 156.751 65.0886 156.751H88.8934C89.5275 156.751 90.0787 157.186 90.2257 157.803L94.561 176C94.766 176.861 94.1134 177.687 93.2287 177.687H69.4752C68.8424 177.687 68.292 177.254 68.1437 176.639L63.7571 158.441Z" fill="black"/>
<path d="M99.9778 158.441C99.7701 157.58 100.423 156.751 101.309 156.751H125.114C125.748 156.751 126.299 157.186 126.446 157.803L130.782 176C130.987 176.861 130.334 177.687 129.449 177.687H105.696C105.063 177.687 104.513 177.254 104.364 176.639L99.9778 158.441Z" fill="black"/>
<path d="M138.935 158.441C138.727 157.58 139.38 156.751 140.266 156.751H164.071C164.705 156.751 165.256 157.186 165.403 157.803L169.739 176C169.944 176.861 169.291 177.687 168.406 177.687H144.653C144.02 177.687 143.47 177.254 143.321 176.639L138.935 158.441Z" fill="black"/>
<path d="M180.63 158.441C180.422 157.58 181.075 156.751 181.962 156.751H205.766C206.401 156.751 206.952 157.186 207.099 157.803L211.434 176C211.639 176.861 210.986 177.687 210.102 177.687H186.348C185.715 177.687 185.165 177.254 185.017 176.639L180.63 158.441Z" fill="black"/>
<path d="M66.4954 155.702C66.2877 154.84 66.9406 154.011 67.8269 154.011H91.6316C92.2658 154.011 92.817 154.447 92.9639 155.064L97.2993 173.261C97.5043 174.122 96.8517 174.948 95.967 174.948H72.2135C71.5807 174.948 71.0303 174.514 70.882 173.899L66.4954 155.702Z" fill="#FFD23F"/>
<path d="M102.716 155.702C102.508 154.84 103.161 154.011 104.048 154.011H127.852C128.486 154.011 129.038 154.447 129.185 155.064L133.52 173.261C133.725 174.122 133.072 174.948 132.188 174.948H108.434C107.801 174.948 107.251 174.514 107.103 173.899L102.716 155.702Z" fill="#FFD23F"/>
<path d="M141.673 155.702C141.465 154.84 142.118 154.011 143.005 154.011H166.809C167.444 154.011 167.995 154.447 168.142 155.064L172.477 173.261C172.682 174.122 172.029 174.948 171.145 174.948H147.391C146.758 174.948 146.208 174.514 146.06 173.899L141.673 155.702Z" fill="#2200FF"/>
<path d="M183.368 155.702C183.161 154.84 183.814 154.011 184.7 154.011H208.505C209.139 154.011 209.69 154.447 209.837 155.064L214.172 173.261C214.377 174.122 213.725 174.948 212.84 174.948H189.087C188.454 174.948 187.903 174.514 187.755 173.899L183.368 155.702Z" fill="#2200FF"/>
<rect x="70.6728" y="191.095" width="5.17767" height="145.817" rx="2.58884" transform="rotate(-89.7021 70.6728 191.095)" fill="#2200FF" stroke="black" stroke-width="1.12492"/>
<path d="M68.1912 102.136L72.2352 102.1L72.2631 105.247L74.7504 105.225L74.6845 97.797L70.3676 95.6863C69.6878 95.3539 69.1418 94.8454 68.7296 94.1609C68.3174 93.4764 68.1067 92.6209 68.0976 91.5944L68.0808 89.6993C68.0755 89.1015 68.1495 88.5424 68.3028 88.0221C68.4673 87.4904 68.6888 87.0316 68.9675 86.6455C69.2572 86.2481 69.5929 85.9406 69.9746 85.7228C70.3561 85.4938 70.7668 85.3774 71.2068 85.3735L74.5908 85.3434L74.558 81.6378L77.1975 81.6144L77.2304 85.32L80.3946 85.2919C80.8345 85.288 81.2472 85.3971 81.6328 85.6193C82.0182 85.8303 82.3537 86.1319 82.6392 86.5242C82.9359 86.9051 83.1712 87.3599 83.3451 87.8886C83.5189 88.406 83.6085 88.9636 83.6138 89.5614L83.6292 91.3043L79.5852 91.3402L79.5573 88.193L77.2561 88.2134L77.3201 95.4215L81.45 97.4324C82.1298 97.7648 82.6758 98.2732 83.088 98.9577C83.5002 99.6422 83.7109 100.498 83.72 101.524L83.7396 103.741C83.745 104.339 83.6654 104.903 83.5009 105.435C83.3475 105.955 83.126 106.414 82.8362 106.812C82.5576 107.198 82.2275 107.505 81.846 107.734C81.4644 107.952 81.0536 108.063 80.6137 108.067L77.4326 108.095L77.4652 111.767L74.8087 111.79L74.7761 108.119L71.4259 108.148C70.9859 108.152 70.5732 108.049 70.1878 107.838C69.8023 107.616 69.4612 107.314 69.1645 106.933C68.879 106.541 68.6493 106.086 68.4755 105.568C68.3016 105.04 68.212 104.477 68.2067 103.879L68.1912 102.136ZM74.6688 94.1251L74.6165 88.2368L72.1123 88.259L72.1532 92.8614L74.6688 94.1251ZM79.7081 105.181L79.6644 100.257L77.3529 99.1102L77.4069 105.202L79.7081 105.181ZM91.2702 101.88L95.2804 101.845L95.3086 105.026L102.026 104.966L101.944 95.7275L91.2165 95.8227L91.0966 82.3202L105.242 82.1946L105.269 85.2741L95.1341 85.3641L95.2009 92.8937L102.731 92.8269C103.17 92.823 103.583 92.9321 103.969 93.1543C104.354 93.3765 104.695 93.6837 104.992 94.0759C105.289 94.4681 105.524 94.9286 105.698 95.4572C105.872 95.9746 105.962 96.5379 105.967 97.147L106.024 103.543C106.029 104.141 105.95 104.7 105.785 105.22C105.62 105.741 105.393 106.2 105.103 106.597C104.813 106.983 104.478 107.291 104.096 107.52C103.715 107.749 103.304 107.865 102.864 107.869L94.5392 107.943C94.0993 107.947 93.6809 107.838 93.2841 107.616C92.8873 107.394 92.5405 107.092 92.2438 106.711C91.9583 106.319 91.7287 105.864 91.5548 105.347C91.381 104.829 91.2915 104.272 91.2862 103.674L91.2702 101.88ZM113.165 86.4224C113.16 85.8133 113.239 85.2485 113.404 84.7281C113.568 84.1964 113.79 83.7376 114.069 83.3515C114.358 82.9541 114.7 82.6465 115.093 82.4287C115.485 82.1996 115.902 82.0831 116.342 82.0791L124.65 82.0054C125.09 82.0015 125.502 82.1106 125.888 82.3328C126.285 82.5437 126.631 82.8452 126.928 83.2374C127.225 83.6183 127.46 84.0731 127.634 84.6018C127.808 85.1192 127.898 85.6824 127.903 86.2916L128.054 103.347C128.06 103.945 127.98 104.504 127.815 105.025C127.651 105.545 127.424 106.004 127.134 106.401C126.844 106.788 126.508 107.095 126.127 107.324C125.745 107.553 125.334 107.67 124.895 107.674L116.57 107.747C116.13 107.751 115.711 107.642 115.315 107.42C114.918 107.198 114.571 106.897 114.274 106.516C113.989 106.123 113.759 105.668 113.585 105.151C113.411 104.634 113.322 104.076 113.317 103.478L113.165 86.4224ZM124.04 104.771L123.863 84.906L117.18 84.9653L117.356 104.83L124.04 104.771ZM135.602 86.2232C135.596 85.6141 135.676 85.0493 135.841 84.5289C136.005 83.9972 136.227 83.5384 136.505 83.1524C136.795 82.7549 137.136 82.4473 137.529 82.2295C137.922 82.0004 138.338 81.8839 138.778 81.88L147.086 81.8062C147.526 81.8023 147.939 81.9115 148.324 82.1337C148.721 82.3445 149.068 82.646 149.365 83.0382C149.661 83.4191 149.897 83.8739 150.071 84.4026C150.244 84.92 150.334 85.4833 150.339 86.0924L150.491 103.148C150.496 103.746 150.417 104.305 150.252 104.826C150.087 105.346 149.86 105.805 149.57 106.202C149.28 106.588 148.945 106.896 148.563 107.125C148.182 107.354 147.771 107.47 147.331 107.474L139.006 107.548C138.566 107.552 138.148 107.443 137.751 107.221C137.354 106.999 137.008 106.697 136.711 106.316C136.425 105.924 136.196 105.469 136.022 104.952C135.848 104.435 135.758 103.877 135.753 103.279L135.602 86.2232ZM146.476 104.571L146.3 84.7068L139.616 84.7662L139.793 104.631L146.476 104.571ZM158.038 86.024C158.033 85.4149 158.112 84.8501 158.277 84.3297C158.442 83.7981 158.663 83.3392 158.942 82.9532C159.231 82.5558 159.573 82.2481 159.966 82.0303C160.359 81.8012 160.775 81.6847 161.215 81.6808L169.523 81.607C169.963 81.6031 170.375 81.7123 170.761 81.9345C171.158 82.1453 171.504 82.4468 171.801 82.839C172.098 83.2199 172.333 83.6747 172.507 84.2034C172.681 84.7208 172.771 85.2841 172.776 85.8932L172.927 102.949C172.933 103.547 172.853 104.106 172.688 104.626C172.524 105.147 172.297 105.606 172.007 106.003C171.717 106.389 171.381 106.697 171 106.926C170.618 107.155 170.208 107.271 169.768 107.275L161.443 107.349C161.003 107.353 160.584 107.244 160.188 107.022C159.791 106.8 159.444 106.498 159.147 106.117C158.862 105.725 158.632 105.27 158.458 104.753C158.285 104.235 158.195 103.678 158.19 103.08L158.038 86.024ZM168.913 104.372L168.736 84.5076L162.053 84.567L162.229 104.432L168.913 104.372Z" fill="black"/>
<circle cx="99.2576" cy="7.09137" r="3.28693" fill="white"/>
<defs>
<clipPath id="clip0_2092_3163">
<rect width="28.422" height="28.422" fill="white" transform="translate(70.5781 31.1514) rotate(-22.3073)"/>
</clipPath>
<clipPath id="clip1_2092_3163">
<rect width="27.4962" height="27.4962" fill="white" transform="translate(40.4824 28.562) rotate(-11.6599)"/>
</clipPath>
</defs>
</svg>
