<svg width="231" height="276" viewBox="0 0 231 276" fill="none" xmlns="http://www.w3.org/2000/svg">
<path d="M68.9012 207.574L75.1814 207.018L75.755 208.208C78.4842 203.115 83.1037 198.201 89.638 193.835C113.36 177.986 153.335 175.366 178.923 187.984C182.639 189.816 185.846 191.871 188.543 194.09L189.792 192.29L192.246 191.632L193.944 191.564L198.199 207.644C201.479 218.372 196.259 230.2 182.3 239.527C158.578 255.376 118.604 257.996 93.0163 245.378C82.1206 240.006 75.5914 232.736 73.516 224.936L73.4961 224.937L68.9012 207.574Z" fill="#2200FF"/>
<path d="M125.85 253.193C111.209 252.92 97.2756 247.608 92.1392 244.986L90.5982 229.484C106.015 235.013 120.075 236.563 125.178 236.647L125.85 253.193Z" fill="#39FF14"/>
<path d="M145.376 252.549C134.193 253.371 131.107 253.624 127.602 253.306L126.787 236.433C137.033 236.354 138.764 235.976 145.209 234.994L145.376 252.549Z" fill="#39FF14"/>
<circle cx="51.6574" cy="51.6574" r="51.6574" transform="matrix(-0.831491 0.555539 -0.896889 -0.442255 220.734 193.968)" fill="#C59FFF"/>
<circle cx="38.5056" cy="38.5056" r="38.5056" transform="matrix(-0.831491 0.555539 -0.896889 -0.442255 198.004 195.457)" fill="#2200FF"/>
<mask id="mask0_2092_3164" style="mask-type:alpha" maskUnits="userSpaceOnUse" x="84" y="172" width="95" height="56">
<circle cx="38.5056" cy="38.5056" r="38.5056" transform="matrix(-0.831491 0.555539 -0.896889 -0.442255 198.002 195.456)" fill="#9957FF" fill-opacity="0.4"/>
</mask>
<g mask="url(#mask0_2092_3164)">
<rect width="8.94746" height="101.405" transform="translate(74.2891 197.232) rotate(-69.4433)" fill="#B280FF"/>
<rect width="8.94746" height="101.405" transform="translate(81.7109 177.535) rotate(-69.4433)" fill="#B280FF"/>
<rect width="0.894746" height="101.405" transform="translate(79.6895 183.354) rotate(-69.4433)" fill="#B280FF"/>
</g>
<path d="M50.702 168.465L56.9819 167.908L57.5558 169.099C60.2849 164.006 64.9044 159.092 71.4387 154.726C95.1607 138.877 135.134 136.257 160.722 148.874C164.438 150.706 167.646 152.761 170.343 154.98L171.593 153.181L174.046 152.523L175.745 152.454L180 168.535C183.28 179.263 178.06 191.091 164.101 200.418C140.379 216.267 100.405 218.887 74.817 206.269C63.9214 200.897 57.3922 193.627 55.3168 185.827L55.2966 185.827L50.702 168.465Z" fill="#2200FF"/>
<path d="M107.651 214.084C93.0096 213.811 79.0764 208.499 73.94 205.877L72.399 190.375C87.8154 195.904 101.875 197.455 106.978 197.539L107.651 214.084Z" fill="#39FF14"/>
<path d="M127.177 213.44C115.994 214.262 112.908 214.515 109.403 214.198L108.588 197.324C118.833 197.246 120.564 196.867 127.01 195.886L127.177 213.44Z" fill="#39FF14"/>
<circle cx="51.6574" cy="51.6574" r="51.6574" transform="matrix(-0.831491 0.555539 -0.896889 -0.442255 202.535 154.86)" fill="#C59FFF"/>
<circle cx="38.5056" cy="38.5056" r="38.5056" transform="matrix(-0.831491 0.555539 -0.896889 -0.442255 179.805 156.348)" fill="#2200FF"/>
<mask id="mask1_2092_3164" style="mask-type:alpha" maskUnits="userSpaceOnUse" x="66" y="133" width="95" height="56">
<circle cx="38.5056" cy="38.5056" r="38.5056" transform="matrix(-0.831491 0.555539 -0.896889 -0.442255 179.803 156.348)" fill="#9957FF" fill-opacity="0.4"/>
</mask>
<g mask="url(#mask1_2092_3164)">
<rect width="8.94746" height="101.405" transform="translate(56.0898 158.124) rotate(-69.4433)" fill="#B280FF"/>
<rect width="8.94746" height="101.405" transform="translate(63.5117 138.427) rotate(-69.4433)" fill="#B280FF"/>
<rect width="0.894746" height="101.405" transform="translate(61.4902 144.246) rotate(-69.4433)" fill="#B280FF"/>
</g>
<g filter="url(#filter0_f_2092_3164)">
<ellipse cx="118.905" cy="157.148" rx="36.2384" ry="15.1851" transform="rotate(-19.8454 118.905 157.148)" fill="#350A7F" fill-opacity="0.6"/>
</g>
<path d="M100.848 38.0714L101.933 44.2818L100.795 44.9539C106.1 47.2432 111.387 51.4303 116.289 57.5723C134.086 79.8709 140.072 119.48 129.662 146.043C128.149 149.901 126.373 153.271 124.389 156.146L126.289 157.24L127.151 159.628L127.362 161.316L111.658 166.929C101.254 171.075 89.0459 166.866 78.588 153.762C60.7918 131.464 54.8049 91.8543 65.2158 65.2922C69.6489 53.982 76.3403 46.8614 83.9369 44.1343L83.9355 44.1161L100.848 38.0714Z" fill="#2200FF"/>
<path d="M60.2024 98.6711C59.2379 84.0588 63.354 69.7268 65.5327 64.3873L80.8491 61.5424C76.6424 77.3706 76.285 91.5115 76.6321 96.6033L60.2024 98.6711Z" fill="#39FF14"/>
<path d="M62.4924 118.073C60.7293 107 60.2162 103.947 60.2366 100.427L76.9811 98.1902C77.9247 108.392 78.4478 110.085 79.9705 116.425L62.4924 118.073Z" fill="#39FF14"/>
<ellipse cx="51.6574" cy="51.6574" rx="51.6574" ry="51.6574" transform="matrix(-0.623787 -0.781595 0.364917 -0.93104 127.23 188.213)" fill="#C59FFF"/>
<circle cx="38.5056" cy="38.5056" r="38.5056" transform="matrix(-0.623787 -0.781595 0.364917 -0.93104 123.826 165.689)" fill="#2200FF"/>
<mask id="mask2_2092_3164" style="mask-type:alpha" maskUnits="userSpaceOnUse" x="86" y="52" width="56" height="95">
<circle cx="38.5056" cy="38.5056" r="38.5056" transform="matrix(-0.623787 -0.781595 0.364917 -0.93104 123.826 165.687)" fill="#9957FF" fill-opacity="0.4"/>
</mask>
<g mask="url(#mask2_2092_3164)">
<rect width="8.94746" height="101.405" transform="translate(111.605 42.5674) rotate(15.7113)" fill="#B280FF"/>
<rect width="8.94746" height="101.405" transform="translate(131.859 48.3002) rotate(15.7113)" fill="#B280FF"/>
<rect width="0.894747" height="101.405" transform="translate(125.891 46.7784) rotate(15.7113)" fill="#B280FF"/>
</g>
<path d="M137.915 59.1698C180.144 64.1979 210.671 78.735 210.672 95.8866L210.663 96.3856C209.935 117.475 163.057 134.488 105.336 134.488L102.617 134.475C45.6983 133.947 0 116.872 0 95.8866C0.000837083 79.2436 28.7439 65.061 69.0312 59.6405L67.1602 63.6884C53.8697 65.6141 41.9767 68.5094 32.1426 72.1132C22.8522 75.5177 15.5967 79.4827 10.7334 83.6962C5.86038 87.9182 3.75027 92.0494 3.75 95.8866C3.75 99.724 5.86013 103.856 10.7334 108.078C15.5967 112.292 22.8521 116.256 32.1426 119.661C50.6935 126.459 76.5707 130.738 105.336 130.738C134.101 130.738 159.978 126.459 178.529 119.661C187.82 116.256 195.075 112.292 199.938 108.078C204.812 103.856 206.922 99.724 206.922 95.8866C206.922 92.0494 204.811 87.9181 199.938 83.6962C195.075 79.4827 187.82 75.5177 178.529 72.1132C167.887 68.2132 154.833 65.1448 140.206 63.2352L137.915 59.1903V59.1698Z" fill="#2200FF"/>
<defs>
<filter id="filter0_f_2092_3164" x="73.9176" y="127.787" width="89.9773" height="58.7228" filterUnits="userSpaceOnUse" color-interpolation-filters="sRGB">
<feFlood flood-opacity="0" result="BackgroundImageFix"/>
<feBlend mode="normal" in="SourceGraphic" in2="BackgroundImageFix" result="shape"/>
<feGaussianBlur stdDeviation="5.25506" result="effect1_foregroundBlur_2092_3164"/>
</filter>
</defs>
</svg>
