<svg width="146" height="234" viewBox="0 0 146 234" fill="none" xmlns="http://www.w3.org/2000/svg">
<g clip-path="url(#clip0_2023_598)">
<g clip-path="url(#clip1_2023_598)">
<mask id="mask0_2023_598" style="mask-type:luminance" maskUnits="userSpaceOnUse" x="20" y="171" width="104" height="60">
<path d="M82.0872 230.216L122.739 206.3C123.979 205.56 123.959 204.38 122.699 203.681L66.6901 172.047C65.4304 171.347 63.3908 171.367 62.151 172.127L21.4988 196.042C20.259 196.782 20.279 197.962 21.5388 198.662L77.5481 230.296C78.8078 230.995 80.8474 230.975 82.0872 230.216Z" fill="white"/>
</mask>
<g mask="url(#mask0_2023_598)">
<path d="M253.046 101.962L-24.0198 261.668L-23.3707 262.794L253.695 103.088L253.046 101.962Z" fill="#150035"/>
<path d="M256.543 103.778L-20.4668 263.581L-19.8173 264.706L257.193 104.904L256.543 103.778Z" fill="#150035"/>
<path d="M259.775 105.821L-17.2627 265.576L-16.6134 266.702L260.424 106.947L259.775 105.821Z" fill="#150035"/>
<path d="M263.414 107.727L-13.6521 267.434L-13.003 268.56L264.063 108.854L263.414 107.727Z" fill="#150035"/>
<path d="M266.379 109.757L-10.6584 269.511L-10.0092 270.637L267.029 110.883L266.379 109.757Z" fill="#150035"/>
<path d="M269.956 111.692L-7.10986 271.398L-6.46078 272.524L270.605 112.818L269.956 111.692Z" fill="#150035"/>
<path d="M273.156 113.723L-3.90918 273.429L-3.26009 274.555L273.806 114.849L273.156 113.723Z" fill="#150035"/>
<path d="M276.767 115.52L-0.270996 275.275L0.378292 276.401L277.416 116.646L276.767 115.52Z" fill="#150035"/>
<path d="M279.975 117.524L2.93701 277.278L3.5863 278.404L280.624 118.65L279.975 117.524Z" fill="#150035"/>
<path d="M283.582 119.431L6.54419 279.185L7.19348 280.311L284.231 120.557L283.582 119.431Z" fill="#150035"/>
<path d="M286.79 121.434L9.7522 281.189L10.4015 282.315L287.439 122.56L286.79 121.434Z" fill="#150035"/>
<path d="M290.414 123.297L13.3765 283.052L14.0258 284.178L291.064 124.423L290.414 123.297Z" fill="#150035"/>
<path d="M293.408 125.419L16.3428 285.125L16.9919 286.252L294.058 126.545L293.408 125.419Z" fill="#150035"/>
<path d="M296.957 127.24L19.9189 286.995L20.5682 288.121L297.606 128.366L296.957 127.24Z" fill="#150035"/>
<path d="M300.175 129.261L23.1367 289.015L23.786 290.141L300.824 130.387L300.175 129.261Z" fill="#150035"/>
<path d="M303.799 131.124L26.7612 290.878L27.4105 292.004L304.448 132.25L303.799 131.124Z" fill="#150035"/>
<path d="M307 133.155L29.9619 292.909L30.6112 294.035L307.649 134.281L307 133.155Z" fill="#150035"/>
<path d="M205.614 74.7314L-71.4238 234.486L-70.7745 235.612L206.263 75.8573L205.614 74.7314Z" fill="#150035"/>
<path d="M209.224 76.5604L-67.7856 236.363L-67.1362 237.489L209.874 77.6863L209.224 76.5604Z" fill="#150035"/>
<path d="M212.218 78.6659L-64.8193 238.42L-64.17 239.546L212.868 79.7919L212.218 78.6659Z" fill="#150035"/>
<path d="M215.758 80.6005L-61.3081 240.307L-60.659 241.433L216.407 81.7266L215.758 80.6005Z" fill="#150035"/>
<path d="M218.995 82.622L-58.0703 242.328L-57.4212 243.454L219.644 83.7481L218.995 82.622Z" fill="#150035"/>
<path d="M222.596 84.413L-54.4419 244.167L-53.7926 245.293L223.245 85.539L222.596 84.413Z" fill="#150035"/>
<path d="M225.814 86.4335L-51.2241 246.188L-50.5748 247.314L226.463 87.5595L225.814 86.4335Z" fill="#150035"/>
<path d="M229.397 88.2865L-47.613 248.089L-46.9636 249.215L230.046 89.4124L229.397 88.2865Z" fill="#150035"/>
<path d="M232.629 90.3441L-44.4089 250.099L-43.7597 251.225L233.278 91.4701L232.629 90.3441Z" fill="#150035"/>
<path d="M236.267 92.245L-40.7983 251.951L-40.1493 253.077L236.916 93.3711L236.267 92.245Z" fill="#150035"/>
<path d="M239.233 94.2802L-37.8047 254.035L-37.1554 255.161L239.882 95.4061L239.233 94.2802Z" fill="#150035"/>
<path d="M242.79 96.1894L-34.2759 255.896L-33.6268 257.022L243.439 97.3154L242.79 96.1894Z" fill="#150035"/>
<path d="M246.028 98.2108L-31.0381 257.917L-30.389 259.043L246.677 99.3369L246.028 98.2108Z" fill="#150035"/>
<path d="M249.601 100.023L-27.437 259.778L-26.7877 260.904L250.25 101.149L249.601 100.023Z" fill="#150035"/>
<path d="M252.829 102.027L-24.2092 261.781L-23.5599 262.907L253.478 103.153L252.829 102.027Z" fill="#150035"/>
</g>
</g>
<path d="M1.45146 10.0806C1.38725 9.93082 1.45146 9.7596 1.57987 9.67399L15.0206 1.45542C15.6199 0.920361 16.6472 1.00597 17.7174 1.90488L22.7041 6.09977C22.961 6.31379 47.2314 26.3679 74.0274 21.4454C74.5624 21.3384 75.1403 21.3169 75.7396 21.3812C78.3935 21.638 81.3898 23.3716 84.0223 26.1967C84.643 26.8602 85.2423 27.5879 85.7987 28.3584C111.546 63.3515 136.095 71.8269 137.122 72.1693L142.087 73.7745C143.778 74.3096 145.362 76.728 145.319 78.7185L145.233 84.54C144.056 159.77 123.103 189.07 105.703 200.392L89.4158 210.344L88.3242 207.112C85.0711 207.583 82.9094 207.433 82.4813 207.39H82.4385C80.812 207.241 78.9713 206.17 77.3447 204.437L77.3019 204.394C75.0547 201.997 26.9846 149.689 16.4974 43.7254L9.24197 27.8447L1.45146 10.0806Z" fill="#150035"/>
<path d="M87.5965 208.332C84.7071 208.674 82.7809 208.524 82.3529 208.482C80.448 208.31 78.372 207.133 76.51 205.143C74.4553 202.96 26.0001 150.352 15.4272 44.0034L8.23599 28.2725L0.424072 10.5299C0.145839 9.86639 0.381267 9.0959 1.00194 8.73205L14.3571 0.534896C15.4272 -0.342607 17.011 -0.149984 18.4236 1.04856L23.4104 5.24345C24.3949 6.05674 47.8948 25.1264 73.8347 20.3536C74.4981 20.2252 75.183 20.2038 75.8679 20.268C78.8214 20.5462 82.0104 22.3869 84.8569 25.426C85.4776 26.0895 86.1197 26.86 86.719 27.6733C112.252 62.3881 136.48 70.7565 137.486 71.0775L142.451 72.6827C144.591 73.3676 146.496 76.2356 146.475 78.6968L146.389 84.5183C145.191 160.24 123.959 189.819 106.324 201.312L88.8378 211.992L87.5751 208.31L87.5965 208.332ZM74.2413 22.5367C47.317 27.5021 23.0251 7.79034 21.9978 6.95565L17.011 2.76076C16.3903 2.2471 15.8981 2.16149 15.7697 2.2899L2.75694 10.273L10.2692 27.395L17.5247 43.2757L17.6103 43.6395C28.0761 149.347 76.0819 201.483 78.1794 203.709C79.6133 205.228 81.2185 206.17 82.6097 206.299C82.9949 206.341 85.0282 206.47 88.1957 206.042L89.116 205.913L90.0578 208.696L105.125 199.471C122.269 188.299 142.965 159.277 144.142 84.5397L144.228 78.7182C144.249 77.2415 142.986 75.251 141.766 74.8658L136.779 73.2606C135.731 72.9182 110.861 64.3144 84.8998 29.043C84.3433 28.2939 83.7654 27.5877 83.209 26.9884C80.7691 24.3773 78.0081 22.7507 75.6325 22.5153C75.4613 22.5153 75.29 22.4939 75.1402 22.4939C74.8406 22.4939 74.5195 22.5153 74.2199 22.5795L74.2413 22.5367Z" fill="#150035"/>
<path d="M15.0206 1.45542C15.6199 0.920361 16.6472 1.00597 17.7174 1.90488L22.7041 6.09977C22.961 6.31379 47.2314 26.3679 74.0274 21.4454C74.5624 21.3384 75.1403 21.3169 75.7396 21.3812C78.3935 21.638 81.3898 23.3716 84.0223 26.1967C84.643 26.8602 85.2423 27.5879 85.7987 28.3584C111.546 63.3515 136.095 71.8269 137.122 72.1693L142.087 73.7745C142.965 74.0527 143.821 74.866 144.442 75.8505L104.034 98.7726L18.8945 62.902C17.9742 56.7167 17.1609 50.3173 16.5188 43.7254L9.26337 27.8447L1.45146 10.0806C1.38725 9.93082 1.45146 9.75959 1.57987 9.67398L15.0206 1.45542Z" fill="white"/>
<path d="M17.8885 63.6937L17.8029 63.073C16.8612 56.8021 16.0693 50.4027 15.4272 44.0248L8.23599 28.2939L0.424072 10.5299C0.145839 9.88779 0.381267 9.1173 1.00194 8.73205L14.3571 0.534896C15.4272 -0.342607 17.011 -0.149984 18.4236 1.04856L23.4104 5.24345C24.3949 6.05674 47.8948 25.1264 73.8347 20.3536C74.4981 20.2252 75.183 20.2038 75.8679 20.268C78.8214 20.5462 82.0104 22.3869 84.8569 25.426C85.4776 26.0895 86.1197 26.86 86.719 27.6733C112.252 62.3881 136.48 70.7565 137.486 71.0775L142.451 72.6827C143.543 73.0252 144.613 73.9669 145.405 75.2296L146.004 76.2142L104.098 99.9923L17.8885 63.6937ZM141.788 74.823L136.801 73.2178C135.752 72.8754 110.882 64.2716 84.9212 29.0002C84.3647 28.2511 83.7868 27.5449 83.2304 26.9456C80.7905 24.3345 78.0295 22.7079 75.6539 22.4725C75.183 22.4297 74.6908 22.4511 74.2413 22.5367C47.317 27.5021 23.0251 7.79034 21.9978 6.95565L17.011 2.76076C16.3903 2.2471 15.8981 2.16149 15.7697 2.2899L2.75694 10.273L10.2692 27.395L17.5247 43.2757L17.6103 43.6395C18.231 49.8463 18.98 56.053 19.9004 62.1527L103.991 97.5525L142.815 75.5293C142.472 75.1868 142.13 74.9514 141.788 74.8444V74.823Z" fill="#150035"/>
<path d="M63.4973 212.848C61.0146 210.215 2.7142 146.757 0.723764 17.5073L0.638154 11.536C0.616751 9.52415 2.20054 8.94628 3.89133 10.3588L8.87812 14.5537C9.13495 14.7678 33.4054 34.8219 60.2013 29.8993C60.7364 29.7923 61.3143 29.7709 61.9135 29.8351C64.5674 30.092 67.5638 31.8256 70.1963 34.6507C70.817 35.3142 71.4162 36.0419 71.9727 36.8123C97.7199 71.8054 122.269 80.2808 123.296 80.6233L128.261 82.2285C129.952 82.7635 131.536 85.182 131.493 87.1724L131.407 92.9939C129.417 219.932 71.1166 216.08 68.6339 215.866H68.5911C66.9645 215.716 65.1239 214.646 63.4973 212.912L63.4545 212.869L63.4973 212.848ZM115.249 92.2448C104.333 86.1879 86.612 73.7317 68.1631 50.0391C66.8575 48.3697 65.2309 47.428 63.9254 47.5778C45.1554 49.7181 27.6909 41.8847 16.9041 35.464C15.5129 34.6293 14.3786 35.3356 14.4642 37.005C18.3594 124.284 48.8794 175.244 62.3844 193.714C64.6102 196.753 68.6981 200.691 70.9026 200.178C84.3005 197.138 113.815 178.925 117.731 96.6323C117.817 95.0486 116.661 93.0153 115.249 92.2448Z" fill="#2200FF"/>
<path d="M68.5482 216.935C66.6434 216.764 64.5674 215.587 62.7481 213.639L62.7053 213.597C60.2012 210.943 1.62259 147.185 -0.389243 17.5068L-0.474854 11.5355C-0.474854 10.1871 0.0602091 9.1384 1.02332 8.68895C2.09345 8.17529 3.399 8.47492 4.61894 9.50224L9.60573 13.6971C10.5902 14.5104 34.0902 33.5801 60.03 28.8073C60.6935 28.6789 61.3784 28.6575 62.0633 28.7217C65.0168 28.9999 68.2058 30.8405 71.0523 33.8797C71.6944 34.5646 72.3151 35.3137 72.9143 36.127C98.4475 70.8418 122.675 79.2102 123.681 79.5312L128.646 81.1364C130.787 81.8213 132.692 84.6892 132.67 87.1505L132.585 92.972C131.514 161.417 113.793 191.509 99.111 204.693C86.7189 215.844 74.7121 217 70.239 217C69.3829 217 68.8051 216.957 68.5482 216.935ZM60.4367 30.9904C33.4909 35.9343 9.22048 16.244 8.17176 15.4093L3.18497 11.2144C2.5857 10.7222 2.13625 10.6366 1.98643 10.7222C1.85802 10.7864 1.75101 11.0432 1.75101 11.5355L1.83662 17.5068C3.82705 146.328 61.8492 209.487 64.3105 212.098L64.3533 212.141C65.7873 213.661 67.3925 214.602 68.7837 214.731C69.3829 214.774 83.316 215.887 97.6128 203.045C111.953 190.161 129.267 160.604 130.337 92.9506L130.423 87.1291C130.444 85.6524 129.182 83.6619 127.962 83.2767L122.975 81.6715C121.926 81.3291 97.0564 72.7252 71.0951 37.4539C70.5387 36.7048 69.9822 36.0199 69.4043 35.3993C66.9644 32.7882 64.2035 31.1616 61.8278 30.9262C61.6566 30.9262 61.4854 30.9047 61.3356 30.9047C61.0359 30.9047 60.7149 30.9262 60.4153 30.9904H60.4367ZM61.4854 194.377C48.3229 176.378 17.2892 124.99 13.3512 37.0473C13.287 35.8273 13.7364 34.8214 14.5925 34.3292C15.4058 33.8369 16.4759 33.9011 17.4818 34.5004C28.5469 41.0923 45.5619 48.5404 63.7969 46.4644C65.4877 46.2717 67.4781 47.3419 69.0405 49.3537C87.1256 72.5754 104.44 84.9675 115.784 91.2598C117.56 92.2443 118.93 94.6842 118.844 96.6746C114.649 184.639 81.2613 198.957 71.1379 201.247C70.9239 201.29 70.7099 201.311 70.4959 201.311C67.4139 201.311 63.3046 196.86 61.4854 194.334V194.377ZM116.618 96.589C116.682 95.4333 115.741 93.8067 114.713 93.2288C103.199 86.8295 85.606 74.2448 67.2855 50.7449C66.0869 49.2253 64.8456 48.5832 64.0537 48.6902C45.2195 50.8305 27.7122 43.2112 16.3475 36.4266C15.9623 36.1912 15.7696 36.234 15.7268 36.234C15.6626 36.2768 15.5556 36.4908 15.577 36.9403C19.4723 124.262 50.2491 175.2 63.2832 193.05C65.7659 196.453 69.3615 199.385 70.6457 199.086C80.3838 196.881 112.509 182.97 116.618 96.5676V96.589Z" fill="#150035"/>
<path d="M16.9042 35.4631C27.6697 41.8838 45.1555 49.7171 63.9255 47.5769C65.2311 47.4271 66.8576 48.3688 68.1632 50.0382C86.6336 73.7307 104.333 86.1656 115.249 92.2439C116.661 93.0358 117.817 95.0476 117.731 96.6314C113.815 178.924 84.3007 197.138 70.9027 200.177C68.6983 200.669 64.6104 196.752 62.3845 193.713C48.8795 175.243 18.3596 124.283 14.4643 37.004C14.4001 35.356 15.513 34.6284 16.9042 35.4631Z" fill="#2200FF"/>
<path d="M61.4855 194.377C48.323 176.377 17.2893 124.99 13.3513 37.0471C13.2871 35.8271 13.7365 34.8212 14.5926 34.329C15.4059 33.8367 16.476 33.9009 17.4819 34.5002C28.547 41.0921 45.562 48.5402 63.797 46.4642C65.4878 46.2716 67.4782 47.3417 69.0406 49.3535C87.1257 72.5752 104.462 84.9673 115.784 91.2596C117.56 92.2441 118.93 94.684 118.844 96.6744C114.649 184.639 81.2614 198.957 71.138 201.247C70.924 201.29 70.71 201.311 70.496 201.311C67.414 201.311 63.3047 196.86 61.4855 194.334V194.377ZM64.0538 48.69C45.2196 50.8303 27.7123 43.211 16.3476 36.4264C15.9624 36.191 15.7697 36.2338 15.7269 36.2338C15.6627 36.2766 15.5557 36.4906 15.5771 36.9401C19.4724 124.262 50.2492 175.2 63.2833 193.05C65.766 196.453 69.3616 199.385 70.6458 199.085C80.3839 196.881 112.509 182.969 116.618 96.5674C116.683 95.4117 115.741 93.7851 114.714 93.2072C103.199 86.8079 85.6061 74.2232 67.2856 50.7233C66.1726 49.2893 64.9527 48.6686 64.2036 48.6686C64.1608 48.6686 64.0966 48.6686 64.0538 48.6686V48.69Z" fill="#150035"/>
<path d="M16.9041 35.4631C18.8731 36.6402 21.0776 37.8601 23.4747 39.0587C28.0762 124.048 57.8899 173.83 71.1809 192.044C72.7433 194.163 75.1831 196.71 77.302 197.887C74.9263 199.021 72.7433 199.749 70.8812 200.177C68.6768 200.669 64.5889 196.752 62.363 193.713C48.8581 175.243 18.3381 124.283 14.4428 37.004C14.3786 35.356 15.4916 34.6284 16.8827 35.4631H16.9041Z" fill="#150035"/>
<path d="M61.4855 194.377C48.323 176.377 17.2893 124.99 13.3513 37.0471C13.2871 35.8271 13.7365 34.8212 14.5926 34.329C15.4059 33.8367 16.476 33.9009 17.4819 34.5002C19.6008 35.7629 21.7838 36.9615 23.9883 38.0744L24.5662 38.374L24.609 39.0161C29.2105 124.198 59.3667 173.959 72.1011 191.402C73.4709 193.264 75.8466 195.811 77.8584 196.924L79.7204 197.972L77.7942 198.893C75.5255 199.984 73.2997 200.776 71.138 201.268C70.924 201.311 70.71 201.333 70.496 201.333C67.414 201.333 63.3047 196.881 61.4855 194.355V194.377ZM70.3033 192.729C57.4618 175.179 27.1559 125.161 22.4045 39.7866C20.3499 38.7379 18.3166 37.6035 16.3476 36.4264C15.9624 36.191 15.7697 36.2338 15.7269 36.2338C15.6627 36.2766 15.5557 36.4906 15.5771 36.9401C19.4724 124.262 50.2492 175.2 63.2833 193.05C65.766 196.453 69.3616 199.385 70.6458 199.085C72.0583 198.764 73.5351 198.294 75.0333 197.673C73.2355 196.26 71.4805 194.313 70.3033 192.707V192.729Z" fill="#150035"/>
<path d="M143.909 74.8818L129.799 82.8877L130.898 84.8236L145.008 76.8178L143.909 74.8818Z" fill="#150035"/>
<path d="M135.344 70.8532L121.216 78.8696L122.314 80.8056L136.443 72.7891L135.344 70.8532Z" fill="#150035"/>
<path d="M75.8166 20.6025L61.7051 28.606L62.8032 30.5421L76.9147 22.5387L75.8166 20.6025Z" fill="#150035"/>
<path d="M88.8613 32.5986L74.7498 40.6021L75.8478 42.5382L89.9593 34.5348L88.8613 32.5986Z" fill="#150035"/>
<path d="M21.9382 4.6142L7.01953 13.4863L8.15726 15.3994L23.0759 6.52731L21.9382 4.6142Z" fill="#150035"/>
<path d="M132.991 107.354L143.693 100.977L142.558 99.0503L131.857 105.45L132.991 107.354Z" fill="#2200FF"/>
<path d="M115.206 185.175L124.644 179.524L123.51 177.598L114.05 183.248L115.206 185.175Z" fill="#2200FF"/>
<path d="M46.9532 31.2049L62.0848 22.9008L60.9932 20.9531L45.8831 29.2359L46.9532 31.2049Z" fill="#150035"/>
<path d="M63.8825 193.843L68.7194 190.803L67.5423 188.92L62.7053 191.959L63.8825 193.843Z" fill="#2200FF"/>
<path d="M17.3749 53.3343L23.5602 49.4391L22.3831 47.5557L16.1978 51.4509L17.3749 53.3343Z" fill="#2200FF"/>
<path d="M18.6376 65.7698L24.8229 61.8745L23.6458 59.9697L17.4604 63.8864L18.6376 65.7698Z" fill="#2200FF"/>
<path d="M73.0856 143.546L70.9881 142.348C63.2404 137.875 56.9695 125.889 56.9695 115.573V102.882C56.9695 99.5856 58.9599 98.0874 61.4426 99.5L82.6311 111.742C85.0924 113.176 87.1042 116.986 87.1042 120.282V132.974C87.1042 143.29 80.8333 148.041 73.0856 143.568V143.546Z" fill="#150035"/>
<path d="M78.6503 146.735C76.6384 146.735 74.4982 146.115 72.3151 144.852L70.2177 143.654C62.0633 138.945 55.45 126.339 55.45 115.552V102.86C55.45 100.57 56.2847 98.7939 57.74 97.9378C59.0242 97.1887 60.608 97.2743 62.1703 98.1732L83.3588 110.415C86.291 112.106 88.581 116.43 88.581 120.261V132.952C88.581 138.924 86.5478 143.547 82.9736 145.601C81.6466 146.372 80.1698 146.757 78.6289 146.757L78.6503 146.735ZM59.6662 100.442C59.5164 100.442 59.388 100.463 59.2596 100.549C58.8744 100.763 58.4677 101.491 58.4677 102.86V115.552C58.4677 125.376 64.4176 136.805 71.7373 141.021L73.8347 142.22C76.724 143.889 79.4422 144.146 81.4968 142.969C84.1079 141.47 85.5847 137.811 85.5847 132.931V120.239C85.5847 117.478 83.8939 114.182 81.882 113.005L60.6936 100.763C60.4581 100.613 60.0515 100.42 59.6877 100.42L59.6662 100.442Z" fill="white"/>
<path d="M73.5351 133.124L70.5173 131.347V120.646H73.5351V133.124Z" fill="white"/>
<path d="M77.152 122.958C77.152 126.211 74.862 127.538 72.0368 125.911C69.2117 124.284 66.9216 120.304 66.9216 117.05C66.9216 113.797 69.2117 112.47 72.0368 114.097C74.862 115.723 77.152 119.704 77.152 122.958Z" fill="white"/>
<path d="M83.4873 113.947L60.2656 100.528V92.9302C60.2656 88.7353 61.721 85.4821 64.2679 84.0267C66.451 82.764 69.1905 82.9352 71.93 84.519L73.3212 85.3323C79.0142 88.6283 83.4873 97.0823 83.4873 104.616V113.969V113.947ZM63.2834 98.7945L80.491 108.725V104.595C80.491 98.2594 76.5315 90.6401 71.8444 87.922L70.4532 87.1087C69.1905 86.381 67.3713 85.7175 65.8089 86.6164C64.2251 87.5367 63.3048 89.8268 63.3048 92.9088V98.7731L63.2834 98.7945Z" fill="white"/>
</g>
<defs>
<clipPath id="clip0_2023_598">
<rect width="146" height="234" fill="white"/>
</clipPath>
<clipPath id="clip1_2023_598">
<rect width="112" height="59" fill="white" transform="translate(17 172)"/>
</clipPath>
</defs>
</svg>
