<svg width="582" height="707" viewBox="0 0 582 707" fill="none" xmlns="http://www.w3.org/2000/svg">
<path d="M306.913 153.843V140.797L275.649 138.828L196.879 208.984L204.263 214.892C228.14 194.953 277.948 165.167 306.913 153.843Z" fill="#211288" stroke="black" stroke-width="1.728"/>
<path d="M398.18 47.0528L399.979 34.7727L376.268 21.793L251.492 108.527C257.478 132.366 276.258 171.164 286.727 134.645C297.196 98.1253 363.994 60.9504 398.18 47.0528Z" fill="#211288" stroke="black" stroke-width="1.728"/>
<path d="M196.699 208.898C192.481 197.217 188.827 107.348 187.881 68.5474L215.376 94.7134C244.598 44.7723 305.664 15.1676 338.245 1.24219L398.676 34.5001C346.113 46.1807 295.93 99.9331 277.409 125.349L307.016 141.572C264.187 155.2 215.626 192.134 196.699 208.898Z" fill="#2200FF" stroke="black" stroke-width="1.728"/>
<path d="M424.611 552.957V566.003L455.874 567.973L534.645 497.817L527.26 491.909C503.383 511.848 453.576 541.634 424.611 552.957Z" fill="#211288" stroke="black" stroke-width="1.728"/>
<path d="M333.344 659.75L331.545 672.03L355.255 685.01L480.031 598.276C474.046 574.437 455.265 535.638 444.796 572.158C434.327 608.677 367.53 645.852 333.344 659.75Z" fill="#211288" stroke="black" stroke-width="1.728"/>
<path d="M534.825 497.903C539.043 509.583 542.696 599.453 543.643 638.253L516.148 612.087C486.925 662.029 425.859 691.633 393.278 705.559L332.848 672.301C385.41 660.62 435.594 606.868 454.115 581.452L424.508 565.229C467.337 551.601 515.898 514.667 534.825 497.903Z" fill="#2200FF" stroke="black" stroke-width="1.728"/>
<path d="M88.5645 321.77L99.2582 306.434L373.46 536.281L336.492 559.937C322.671 568.78 307.12 574.913 290.724 574.303C256.61 573.032 192.541 561.517 131.862 500.819C74.9862 443.924 70.0079 389.103 72.4954 360.267C73.714 346.141 80.4547 333.4 88.5645 321.77Z" fill="#FFD23F" stroke="black" stroke-width="1.728"/>
<path d="M109.543 290.244C88.4245 314.78 84.4267 350.159 95.2314 387.653C106.034 425.138 131.611 464.624 169.437 497.182C207.264 529.739 250.117 549.152 288.793 554.254C327.477 559.356 361.866 550.136 382.985 525.599C404.104 501.063 408.102 465.685 397.297 428.191C386.495 390.706 360.918 351.22 323.092 318.662C285.265 286.105 242.411 266.691 203.736 261.59C165.051 256.487 130.662 265.708 109.543 290.244Z" fill="#FEE89E" stroke="black" stroke-width="1.728"/>
<ellipse cx="94.2685" cy="151.981" rx="94.2685" ry="151.981" transform="matrix(-0.652351 0.757917 0.757917 0.652351 194.223 234.963)" fill="#111111"/>
<path d="M131.513 312.836C115.831 331.056 114.004 358.401 124.008 388.061C134.006 417.7 155.777 449.486 186.984 476.347C218.192 503.208 252.865 520.004 283.662 525.478C314.482 530.955 341.25 525.078 356.932 506.858C360.916 502.229 363.504 498.755 364.905 496.102C366.32 493.422 366.396 491.823 365.821 490.755C365.213 489.626 363.705 488.722 360.994 487.92C358.33 487.132 354.775 486.513 350.403 485.749C332.955 482.702 303.54 477.53 272.054 450.43C240.65 423.399 213.094 379.607 189.533 347.417C177.712 331.266 166.936 318.088 157.175 311.24C152.303 307.822 147.78 306.051 143.574 306.186C139.405 306.32 135.388 308.335 131.513 312.836Z" fill="#FFD23F" stroke="black" stroke-width="1.728"/>
<path d="M514.499 158.349L498.924 144.158L282.338 428.951L323.621 443.846C339.056 449.414 355.578 451.956 371.433 447.735C404.422 438.953 464.358 413.554 510.112 340.941C554.218 270.943 545.277 215.222 536.176 188.456C532.118 176.524 523.816 166.837 514.499 158.349Z" fill="#FFD23F" stroke="black" stroke-width="1.728"/>
<path d="M485.309 130.643C511.331 149.902 523.053 183.52 520.807 222.475C518.561 261.421 502.349 305.585 472.658 345.702C442.968 385.818 405.469 414.227 368.879 427.754C332.28 441.285 296.704 439.897 270.682 420.639C244.66 401.38 232.938 367.761 235.184 328.806C237.429 289.86 253.641 245.697 283.332 205.58C313.022 165.464 350.522 137.054 387.112 123.527C423.711 109.996 459.287 111.384 485.309 130.643Z" fill="#FEE89E" stroke="black" stroke-width="1.728"/>
<ellipse cx="375.864" cy="273.698" rx="94.2685" ry="151.981" transform="rotate(36.5053 375.864 273.698)" fill="#111111"/>
<path d="M468.88 157.534C488.203 171.835 496.032 198.099 492.834 229.237C489.639 260.354 475.435 296.167 450.94 329.264C426.445 362.361 396.345 386.408 367.52 398.557C338.675 410.713 311.269 410.901 291.947 396.6C272.624 382.299 264.796 356.035 267.994 324.897C271.189 293.78 285.393 257.968 309.888 224.87C334.383 191.773 364.483 167.726 393.308 155.577C422.153 143.421 449.557 143.233 468.88 157.534Z" fill="#FFD23F" stroke="black" stroke-width="1.728"/>
</svg>
