<svg width="800" height="800" viewBox="0 0 800 800" fill="none" xmlns="http://www.w3.org/2000/svg">
<g clip-path="url(#clip0_2037_2125)">
<path d="M775 750H710.75L507.5 18.25C505.988 12.8424 502.699 8.10142 498.164 4.79074C493.629 1.48007 488.111 -0.207476 482.5 -9.92324e-06H315.25C312.782 0.34576 310.354 0.931879 308 1.74999H305C301.887 3.41028 299.16 5.71069 297 8.49999V10.25C295.54 12.3351 294.363 14.605 293.5 17L89.25 750H25C18.3696 750 12.0107 752.634 7.32233 757.322C2.63392 762.011 0 768.37 0 775C0 781.63 2.63392 787.989 7.32233 792.678C12.0107 797.366 18.3696 800 25 800H191.75C198.38 800 204.739 797.366 209.428 792.678C214.116 787.989 216.75 781.63 216.75 775C216.75 768.37 214.116 762.011 209.428 757.322C204.739 752.634 198.38 750 191.75 750H141.75L208.75 508.25H425L492 750H442C435.37 750 429.011 752.634 424.322 757.322C419.634 762.011 417 768.37 417 775C417 781.63 419.634 787.989 424.322 792.678C429.011 797.366 435.37 800 442 800H775C781.63 800 787.989 797.366 792.678 792.678C797.366 787.989 800 781.63 800 775C800 768.37 797.366 762.011 792.678 757.322C787.989 752.634 781.63 750 775 750ZM222.25 458.25L316.75 118.5L411 458.25H222.25ZM544 750L350 50H464.75L659.25 750H544Z" fill="#676E76"/>
</g>
<defs>
<clipPath id="clip0_2037_2125">
<rect width="800" height="800" fill="white"/>
</clipPath>
</defs>
</svg>
