<svg width="672" height="814" viewBox="0 0 672 814" fill="none" xmlns="http://www.w3.org/2000/svg">
<path d="M201.732 257.993L262.639 221.841L574.421 358.778L522.254 393.87L469.138 429.485L140.824 294.144L201.732 257.993Z" fill="#2DE2E6"/>
<path d="M201.732 257.993L522.254 393.87M522.254 393.87L469.138 429.485L140.824 294.144L262.639 221.841L574.421 358.778L522.254 393.87Z" stroke="black" stroke-width="3"/>
<path d="M141.465 556.298L140.879 294.808L468.464 429.616L521.642 394.136L573.86 359.296C574.264 359.027 574.805 359.324 574.793 359.81L567.697 652.416L513.037 694.445L458.377 736.474L181.284 616.735C157.164 606.312 141.524 582.574 141.465 556.298Z" fill="#2DE2E6"/>
<path d="M458.377 736.474L181.284 616.735C157.164 606.312 141.524 582.574 141.465 556.298L140.879 294.808L468.464 429.616M458.377 736.474L468.464 429.616M458.377 736.474L513.037 694.445M468.464 429.616L521.642 394.136M521.642 394.136L573.86 359.296C574.264 359.027 574.805 359.324 574.793 359.81L567.697 652.416L513.037 694.445M521.642 394.136L513.037 694.445" stroke="black" stroke-width="3"/>
<path d="M325.686 586.516L247.839 553.256L270.759 512.376C270.759 512.376 257.708 492.488 259.689 476.574C262.233 456.129 272.379 436.751 299.185 442.947C319.171 447.566 329.873 474.961 324.646 497.466C321.725 510.046 306.101 523.173 306.101 523.173L325.686 586.516Z" fill="black" stroke="black" stroke-width="3"/>
<path d="M287.799 442.165C287.799 442.165 281.375 462.37 285.28 475.335C288.129 484.794 297.629 501.783 297.629 501.783L274.303 542.771L317.114 559.742L325.356 586.398L247.52 553.914L269.52 512.067C269.52 512.067 256.684 491.239 258.731 477.172C264.251 439.248 287.799 442.165 287.799 442.165Z" fill="#2200FF"/>
<path d="M297.629 501.783C297.629 501.783 288.129 484.794 285.28 475.335C281.375 462.37 287.799 442.165 287.799 442.165C287.799 442.165 264.251 439.248 258.731 477.172C256.684 491.239 269.52 512.067 269.52 512.067M297.629 501.783L274.303 542.771M297.629 501.783L269.52 512.067M274.303 542.771L317.114 559.742L325.356 586.398L247.52 553.914M274.303 542.771L247.52 553.914M247.52 553.914L269.52 512.067" stroke="black" stroke-width="3"/>
<path d="M296.685 298.109C285.378 315.211 250.469 306.104 238.573 291.714C236.551 221.156 238.726 162.539 247.157 124.314C267.792 61.5084 322.98 44.6365 387.341 60.791C461.491 79.4029 484.544 158.228 486.801 195.314C489.107 224.644 490.988 300.518 480.065 369.375C457.692 392.87 426.336 373.046 417.499 356.453L420.693 206.459C419.274 177.135 413.441 125.324 361.526 116.491C318.193 109.119 303.152 148.169 301.419 165.005L296.685 298.109Z" fill="#BEBEBE" stroke="black" stroke-width="3"/>
<path d="M282.764 305.336L290.085 165.545C291.988 151.123 298.614 123.085 337.276 116.582M359.938 116.244C353.652 101.266 350.168 69.1356 386.517 60.4415M409.438 154.246C413.749 141.483 427.448 120.094 450.93 121.486M464.32 124.54C459.549 122.692 455.086 121.732 450.93 121.486M420.264 250.211C431.746 261.723 461.475 277.504 488.532 248.54M465.898 378.231C470.619 298.546 481.272 181.533 450.93 121.486M450.93 121.486C436.532 96.6843 387.915 46.9635 308.028 60.2068" stroke="black" stroke-width="3"/>
<path d="M286.603 91.7339C277.971 100.082 272.162 109.541 268.631 116.685C268.631 116.685 266.054 121.382 261.723 119.979C255.445 117.944 262.114 108.204 265.794 102.726C269.627 97.0208 274.647 89.9516 277.911 86.8975C284.352 80.8711 299.042 68.1106 309.092 66.5555C312.795 65.9826 314.799 66.6749 315.854 67.7779C318.18 70.2114 314.943 73.565 311.947 75.1015C305.385 78.467 293.547 85.0182 286.603 91.7339Z" fill="#070707" stroke="black" stroke-width="3"/>
</svg>
