<svg width="20" height="20" viewBox="0 0 20 20" fill="none" xmlns="http://www.w3.org/2000/svg">
<path fill-rule="evenodd" clip-rule="evenodd" d="M3.96262 8.38241C4.85601 5.04825 8.28311 3.06961 11.6173 3.96299C12.7181 4.25796 13.6696 4.82811 14.4195 5.5794L16.0054 7.16529H13.3523C13.0071 7.16529 12.7273 7.44511 12.7273 7.79029C12.7273 8.13547 13.0071 8.41529 13.3523 8.41529H17.5128C17.6786 8.41529 17.8375 8.34943 17.9548 8.2322C18.072 8.11497 18.1378 7.95598 18.1378 7.7902V3.62979C18.1378 3.28461 17.858 3.00479 17.5128 3.00479C17.1676 3.00479 16.8878 3.28461 16.8878 3.62979V6.27993L15.3042 4.69634C14.4032 3.79378 13.2595 3.10892 11.9408 2.75559C7.9398 1.68352 3.82728 4.05789 2.75521 8.05889C2.66588 8.3923 2.86374 8.73501 3.19716 8.82435C3.53057 8.91369 3.87328 8.71583 3.96262 8.38241ZM16.8022 11.1757C16.4687 11.0864 16.126 11.2842 16.0367 11.6176C15.1433 14.9518 11.7162 16.9305 8.38204 16.0371C7.28123 15.7421 6.32973 15.172 5.57985 14.4207L3.99494 12.8347H6.64729C6.99247 12.8347 7.27229 12.5549 7.27229 12.2097C7.27229 11.8646 6.99247 11.5847 6.64729 11.5847L2.48676 11.5847C2.14158 11.5847 1.86176 11.8646 1.86176 12.2097V16.3703C1.86176 16.7155 2.14158 16.9953 2.48676 16.9953C2.83193 16.9953 3.11176 16.7155 3.11176 16.3703V13.7193L4.69515 15.3037C5.59614 16.2064 6.73974 16.8911 8.05851 17.2445C12.0595 18.3165 16.172 15.9422 17.2441 11.9412C17.3334 11.6078 17.1356 11.265 16.8022 11.1757Z" fill="#454C52"/>
</svg>
