<svg width="20" height="20" viewBox="0 0 20 20" fill="none" xmlns="http://www.w3.org/2000/svg">
<path d="M8.33341 14.1667H11.6667V4.16669H1.66675V14.1667H4.16675" stroke="#020617" stroke-width="1.25" stroke-linecap="round" stroke-linejoin="round"/>
<path d="M16.6667 14.1667H18.3334V11.3833C18.3338 10.9455 18.2478 10.5118 18.0805 10.1072C17.9132 9.70252 17.6679 9.33479 17.3584 9.025L15.8334 7.5H11.6667" stroke="#020617" stroke-width="1.25" stroke-linecap="round" stroke-linejoin="round"/>
<path d="M11.6667 14.1667H12.5001" stroke="#020617" stroke-width="1.25" stroke-linecap="round" stroke-linejoin="round"/>
<path d="M6.25008 16.6667C7.40067 16.6667 8.33341 15.7339 8.33341 14.5833C8.33341 13.4327 7.40067 12.5 6.25008 12.5C5.09949 12.5 4.16675 13.4327 4.16675 14.5833C4.16675 15.7339 5.09949 16.6667 6.25008 16.6667Z" stroke="#020617" stroke-width="1.25" stroke-linecap="round" stroke-linejoin="round"/>
<path d="M14.5833 16.6667C15.7339 16.6667 16.6667 15.7339 16.6667 14.5833C16.6667 13.4327 15.7339 12.5 14.5833 12.5C13.4327 12.5 12.5 13.4327 12.5 14.5833C12.5 15.7339 13.4327 16.6667 14.5833 16.6667Z" stroke="#020617" stroke-width="1.25" stroke-linecap="round" stroke-linejoin="round"/>
</svg>
