<svg width="14" height="14" viewBox="0 0 14 14" fill="none" xmlns="http://www.w3.org/2000/svg">
<path fill-rule="evenodd" clip-rule="evenodd" d="M6.875 0C7.22018 0 7.5 0.279822 7.5 0.625V6.25H13.125C13.4702 6.25 13.75 6.52982 13.75 6.875C13.75 7.22018 13.4702 7.5 13.125 7.5H7.5V13.125C7.5 13.4702 7.22018 13.75 6.875 13.75C6.52982 13.75 6.25 13.4702 6.25 13.125V7.5H0.625C0.279822 7.5 0 7.22018 0 6.875C0 6.52982 0.279822 6.25 0.625 6.25H6.25V0.625C6.25 0.279822 6.52982 0 6.875 0Z" fill="#454C52"/>
</svg>
