<svg width="33" height="33" viewBox="0 0 33 33" fill="none" xmlns="http://www.w3.org/2000/svg">
<g clip-path="url(#clip0_1184_44575)">
<path d="M16.5 0C25.6135 0 33 7.38795 33 16.5C33 25.6135 25.6135 33 16.5 33C7.38795 33 0 25.6128 0 16.5C0 7.38795 7.38795 0 16.5 0Z" fill="#F5AC37"/>
<path d="M17.1026 17.6651H23.3724C23.506 17.6651 23.5691 17.6651 23.5788 17.4899C23.63 16.8521 23.63 16.2106 23.5788 15.572C23.5788 15.448 23.5172 15.3968 23.3828 15.3968H10.9049C10.7505 15.3968 10.7089 15.448 10.7089 15.5928V17.4283C10.7089 17.6651 10.7089 17.6651 10.9562 17.6651H17.1026V17.6651ZM22.8786 13.2517C22.8964 13.2049 22.8964 13.1537 22.8786 13.1076C22.7739 12.8797 22.6499 12.6621 22.5059 12.4579C22.2891 12.1089 22.0336 11.7874 21.7426 11.4986C21.6052 11.3241 21.4463 11.1674 21.2681 11.0345C20.3756 10.275 19.3146 9.73738 18.1741 9.46711C17.5986 9.33791 17.0106 9.27628 16.421 9.28148H10.8834C10.729 9.28148 10.7082 9.34311 10.7082 9.4775V13.1381C10.7082 13.2925 10.7082 13.3341 10.9042 13.3341H22.8044C22.8044 13.3341 22.9076 13.3133 22.9284 13.2517H22.8779H22.8786ZM22.8786 19.8102C22.7034 19.7909 22.5267 19.7909 22.3514 19.8102H10.9153C10.7609 19.8102 10.7089 19.8102 10.7089 20.0167V23.5955C10.7089 23.7604 10.7089 23.802 10.9153 23.802H16.1953C16.4478 23.8213 16.7002 23.8034 16.9475 23.7507C17.7137 23.6958 18.4674 23.5295 19.1861 23.2555C19.4475 23.1649 19.6999 23.0468 19.9383 22.905H20.0103C21.2481 22.2613 22.2534 21.25 22.8875 20.0085C22.8875 20.0085 22.9595 19.8526 22.8786 19.8117V19.8102ZM8.63658 25.6575V25.5959V23.1931V22.3786V19.955C8.63658 19.8206 8.63658 19.8006 8.47174 19.8006H6.23383C6.10983 19.8006 6.05859 19.8006 6.05859 19.6357V17.6763H8.45095C8.5846 17.6763 8.63658 17.6763 8.63658 17.501V15.5623C8.63658 15.4384 8.63658 15.4079 8.47174 15.4079H6.23383C6.10983 15.4079 6.05859 15.4079 6.05859 15.2431V13.4284C6.05859 13.3148 6.05859 13.2843 6.22343 13.2843H8.44056C8.595 13.2843 8.63658 13.2843 8.63658 13.0883V7.5299C8.63658 7.36507 8.63658 7.32349 8.843 7.32349H16.577C17.1383 7.34576 17.6959 7.40739 18.2476 7.50911C19.3844 7.71924 20.4766 8.12539 21.4753 8.70529C22.1376 9.09511 22.7472 9.56586 23.29 10.1079C23.6983 10.5319 24.0666 10.9907 24.3933 11.4793C24.7178 11.9746 24.9873 12.504 25.199 13.0571C25.2249 13.2012 25.363 13.2984 25.5071 13.2739H27.353C27.5898 13.2739 27.5898 13.2739 27.6002 13.5011V15.1926C27.6002 15.3574 27.5386 15.399 27.373 15.399H25.9496C25.8056 15.399 25.764 15.399 25.7744 15.5846C25.8308 16.2128 25.8308 16.8432 25.7744 17.4713C25.7744 17.6466 25.7744 17.6674 25.9712 17.6674H27.5995C27.6715 17.7602 27.5995 17.853 27.5995 17.9465C27.6099 18.0661 27.6099 18.1871 27.5995 18.3067V19.5548C27.5995 19.73 27.5482 19.782 27.3931 19.782H25.444C25.3081 19.756 25.1759 19.8429 25.1447 19.978C24.6807 21.1846 23.9382 22.2664 22.9789 23.1337C22.6284 23.4493 22.2601 23.7463 21.8755 24.0203C21.4627 24.2579 21.061 24.5051 20.6377 24.7011C19.8588 25.0516 19.0421 25.31 18.2038 25.4741C17.4078 25.6166 16.6007 25.6812 15.7906 25.6701H8.63361V25.6597L8.63658 25.6575Z" fill="#FEFEFD"/>
</g>
<defs>
<clipPath id="clip0_1184_44575">
<rect width="33" height="33" fill="white"/>
</clipPath>
</defs>
</svg>
