<svg width="33" height="33" viewBox="0 0 33 33" fill="none" xmlns="http://www.w3.org/2000/svg">
<g clip-path="url(#clip0_2024_2722)">
<path d="M16.5 33C25.6127 33 33 25.6127 33 16.5C33 7.3873 25.6127 0 16.5 0C7.3873 0 0 7.3873 0 16.5C0 25.6127 7.3873 33 16.5 33Z" fill="#FFDFE5"/>
<path d="M16.4555 6.6001L16.3242 7.04595V19.9824L16.4555 20.1133L22.4603 16.5638L16.4555 6.6001Z" fill="#343434"/>
<path d="M16.4552 6.6001L10.4502 16.5638L16.4552 20.1133V13.8343V6.6001Z" fill="#8C8C8C"/>
<path d="M16.4548 21.2501L16.3809 21.3403V25.9485L16.4548 26.1644L22.4634 17.7024L16.4548 21.2501Z" fill="#3C3C3B"/>
<path d="M16.4552 26.1644V21.2501L10.4502 17.7024L16.4552 26.1644Z" fill="#8C8C8C"/>
<path d="M16.4551 20.1132L22.4599 16.5637L16.4551 13.8342V20.1132Z" fill="#141414"/>
<path d="M10.4502 16.5637L16.4552 20.1132V13.8342L10.4502 16.5637Z" fill="#393939"/>
</g>
<defs>
<clipPath id="clip0_2024_2722">
<rect width="33" height="33" fill="white"/>
</clipPath>
</defs>
</svg>
