<svg width="33" height="33" viewBox="0 0 33 33" fill="none" xmlns="http://www.w3.org/2000/svg">
<path d="M23.5715 28.2857C23.5715 29.5855 21.7662 31.0477 18.9126 31.5857C17.748 31.5857 17.1804 31.5857 15.3468 31.5857C8.95394 31.5857 3.77148 30.1083 3.77148 28.2857C3.77148 26.4632 8.95394 24.9857 15.3468 24.9857C21.7398 24.9857 23.5715 26.4632 23.5715 28.2857Z" fill="black"/>
<path d="M32.0574 15.1367C32.0574 23.1868 24.9277 31.1143 16.8286 31.1143C8.72941 31.1143 0.47168 22.6262 0.47168 14.5761C0.47168 6.52594 7.03731 0 15.1365 0C23.2356 0 32.0574 7.08656 32.0574 15.1367Z" fill="#F61F7D"/>
<path fill-rule="evenodd" clip-rule="evenodd" d="M26.3821 25.1154C28.9542 22.3654 30.5533 18.7272 30.5533 15.1367C30.5533 11.671 28.6429 8.27178 25.6518 5.68962C22.6635 3.10987 18.7718 1.50553 15.1365 1.50553C7.85802 1.50553 1.97576 7.36739 1.97576 14.5761C1.97576 18.1067 3.8066 21.8815 6.68478 24.8078C9.56294 27.734 13.2878 29.6088 16.8286 29.6088C20.3814 29.6088 23.8114 27.8639 26.3821 25.1154ZM16.8286 31.1143C24.9277 31.1143 32.0574 23.1868 32.0574 15.1367C32.0574 7.08656 23.2356 0 15.1365 0C7.03731 0 0.47168 6.52594 0.47168 14.5761C0.47168 22.6262 8.72941 31.1143 16.8286 31.1143Z" fill="black"/>
<path d="M32.9998 16.7357C32.9998 24.9372 26.3512 31.5857 18.1498 31.5857C9.94836 31.5857 3.2998 24.9372 3.2998 16.7357C3.2998 8.5343 9.94836 1.88574 18.1498 1.88574C26.3512 1.88574 32.9998 8.5343 32.9998 16.7357Z" fill="white"/>
<path fill-rule="evenodd" clip-rule="evenodd" d="M18.1498 30.0756C25.5172 30.0756 31.4896 24.1031 31.4896 16.7357C31.4896 9.36835 25.5172 3.39591 18.1498 3.39591C10.7824 3.39591 4.80998 9.36835 4.80998 16.7357C4.80998 24.1031 10.7824 30.0756 18.1498 30.0756ZM18.1498 31.5857C26.3512 31.5857 32.9998 24.9372 32.9998 16.7357C32.9998 8.5343 26.3512 1.88574 18.1498 1.88574C9.94836 1.88574 3.2998 8.5343 3.2998 16.7357C3.2998 24.9372 9.94836 31.5857 18.1498 31.5857Z" fill="black"/>
<path fill-rule="evenodd" clip-rule="evenodd" d="M4.15645 14.6143L0.942383 12.0328L1.97118 10.8429L5.18524 13.4244L4.15645 14.6143Z" fill="black"/>
<path d="M8.01465 13.6714H9.37694L9.80716 17.792L10.3539 13.6801H11.4204L11.994 17.7658L12.4332 13.6714H13.7776L12.9082 20.7428H11.5101L10.8916 16.4737L10.309 20.7428H8.89297L8.01465 13.6714Z" fill="black"/>
<path d="M15.0078 13.6714H18.2701V14.7365H16.6121V16.4912H17.8758V17.5738H16.6121V19.6865H18.2881V20.7428H15.0078V13.6714Z" fill="black"/>
<path d="M20.127 14.8325H19.0156V13.6714H22.8426V14.8325H21.7402V20.7428H20.127V14.8325Z" fill="black"/>
<path d="M23.9482 13.6714H25.5525V16.5349H26.6728V13.6714H28.2861V20.7428H26.6728V17.6523H25.5525V20.7428H23.9482V13.6714Z" fill="black"/>
</svg>
