<?xml version="1.0" encoding="UTF-8"?>
<svg id="Layer_2" data-name="Layer 2" xmlns="http://www.w3.org/2000/svg" viewBox="0 0 1058.15 241.97">
  <defs>
    <style>
      .cls-1 {
        fill: #fafafa;
      }
    </style>
  </defs>
  <g id="Layer_1-2" data-name="Layer 1">
    <g>
      <path class="cls-1" d="m115.33,3.1H0v235.77h115.33v-75.42c0-4.1,3.32-7.42,7.42-7.42s7.42,3.32,7.42,7.42v75.42h118.01V3.1h-118.01v75.42c0,4.1-3.32,7.42-7.42,7.42s-7.42-3.32-7.42-7.42V3.1Z"/>
      <path class="cls-1" d="m406.49,0h-24.82c-61.68,0-111.68,50-111.68,111.68v18.61c0,61.68,50,111.68,111.68,111.68h24.82c61.68,0,111.68-50,111.68-111.68v-18.61c0-61.68-50-111.68-111.68-111.68Zm24.1,123.37c-1.4,1.4-3.34,2.27-5.48,2.27h-62.05c-4.28,0-7.75-3.47-7.75-7.75,0-2.15.87-4.09,2.27-5.49s3.34-2.27,5.48-2.27h62.05c4.29,0,7.75,3.47,7.75,7.76,0,2.14-.87,4.08-2.27,5.48Z"/>
      <path class="cls-1" d="m786.13,76.82c-7.64-35.95-35.73-64.04-71.68-71.68-9.57-2.04-21.1-2.04-44.17-2.04h-130.3v235.77h130.3c23.07,0,34.6,0,44.17-2.04,35.95-7.64,64.04-35.73,71.68-71.68,2.04-9.57,2.04-21.1,2.04-44.17s0-34.6-2.04-44.17Zm-114.3,75.19c0,4.29-3.47,7.75-7.75,7.75-2.14,0-4.09-.87-5.48-2.27-1.4-1.4-2.27-3.34-2.27-5.48v-62.05c0-4.28,3.47-7.75,7.75-7.75,2.14,0,4.08.87,5.48,2.27,1.4,1.4,2.27,3.34,2.27,5.48v62.05Z"/>
      <path class="cls-1" d="m809.97,238.87V3.1h125.14v127.91h123.04v107.86h-248.18Z"/>
    </g>
  </g>
</svg>