<svg width="20" height="20" viewBox="0 0 20 20" fill="none" xmlns="http://www.w3.org/2000/svg">
<g clip-path="url(#clip0_37_798)">
<path d="M0 9.99923C0 11.2224 0.220039 12.3942 0.621992 13.4775L10 13.9123L19.378 13.4775C19.78 12.3942 20 11.2224 20 9.99923C20 8.77603 19.78 7.60431 19.378 6.52099L10 6.08618L0.621992 6.52095C0.220039 7.60431 0 8.77603 0 9.99923Z" fill="#FFDA44"/>
<path d="M9.99983 -0.000732422C5.70018 -0.000732422 2.03476 2.71302 0.621826 6.52103H19.3779C17.9649 2.71302 14.2995 -0.000732422 9.99983 -0.000732422Z" fill="#D80027"/>
<path d="M19.3781 13.4784H0.62207C2.035 17.2864 5.70043 20.0001 10.0001 20.0001C14.2997 20.0001 17.9652 17.2864 19.3781 13.4784Z" fill="#496E2D"/>
<path d="M9.99996 6.52185L10.8632 9.17888H13.6573L11.397 10.8212L12.2603 13.4783L9.99996 11.8361L7.73961 13.4783L8.60305 10.8212L6.34277 9.17888H9.13668L9.99996 6.52185Z" fill="black"/>
</g>
<defs>
<clipPath id="clip0_37_798">
<rect width="20" height="20" fill="white"/>
</clipPath>
</defs>
</svg>
