<svg width="20" height="20" viewBox="0 0 20 20" fill="none" xmlns="http://www.w3.org/2000/svg">
<g clip-path="url(#clip0_37_808)">
<path d="M10 20C15.5228 20 20 15.5228 20 10C20 4.47715 15.5228 0 10 0C4.47715 0 0 4.47715 0 10C0 15.5228 4.47715 20 10 20Z" fill="#F0F0F0"/>
<path d="M10.0002 -0.000610352C6.03556 -0.000610352 2.60993 2.30662 0.992432 5.65158H19.0079C17.3904 2.30662 13.9647 -0.000610352 10.0002 -0.000610352Z" fill="black"/>
<path d="M10.0002 20.0001C6.03556 20.0001 2.60993 17.6929 0.992432 14.3479H19.0079C17.3904 17.6929 13.9647 20.0001 10.0002 20.0001Z" fill="#496E2D"/>
<path d="M19.5278 6.95593H0.472227C0.165898 7.91566 0 8.93812 0 9.99941C0 11.0607 0.165898 12.0832 0.472227 13.0429H19.5277C19.8341 12.0832 20 11.0607 20 9.99941C20 8.93812 19.8341 7.91566 19.5278 6.95593Z" fill="#A2001D"/>
<path d="M13.114 4.62094L11.9297 4.07434L10.0001 8.44352L8.07049 4.07434L6.88623 4.62094L9.28185 9.99981L6.88623 15.3787L8.07049 15.9253L10.0001 11.5561L11.9297 15.9253L13.114 15.3787L10.7183 9.99981L13.114 4.62094Z" fill="#F0F0F0"/>
<path d="M10.8045 5.13601C10.346 4.63535 10.0001 4.34753 10.0001 4.34753C10.0001 4.34753 9.65424 4.63531 9.1958 5.13601V14.8634C9.65424 15.3641 10.0001 15.6519 10.0001 15.6519C10.0001 15.6519 10.346 15.3641 10.8045 14.8634V5.13601Z" fill="#F0F0F0"/>
<path d="M7.82642 7.00182V12.9984C8.31087 13.8568 8.9038 14.5604 9.34817 15.0269V4.97339C8.9038 5.43983 8.31083 6.14347 7.82642 7.00182Z" fill="#A2001D"/>
<path d="M12.1741 7.00231C11.6896 6.14391 11.0967 5.44032 10.6523 4.97388V15.0273C11.0967 14.5609 11.6896 13.8573 12.1741 12.9989V7.00231Z" fill="#A2001D"/>
<path d="M12.1738 7.00073V12.9973C12.6643 12.1282 13.0434 11.1005 13.0434 9.99905C13.0434 8.89761 12.6643 7.86987 12.1738 7.00073Z" fill="black"/>
<path d="M7.82611 7.00073V12.9973C7.33568 12.1282 6.95654 11.1005 6.95654 9.99905C6.95654 8.89761 7.33568 7.86987 7.82611 7.00073Z" fill="black"/>
</g>
<defs>
<clipPath id="clip0_37_808">
<rect width="20" height="20" fill="white"/>
</clipPath>
</defs>
</svg>
