<svg width="20" height="20" viewBox="0 0 20 20" fill="none" xmlns="http://www.w3.org/2000/svg">
<g clip-path="url(#clip0_37_792)">
<path d="M10 20C15.5228 20 20 15.5228 20 10C20 4.47715 15.5228 0 10 0C4.47715 0 0 4.47715 0 10C0 15.5228 4.47715 20 10 20Z" fill="#F0F0F0"/>
<path d="M-0.000244141 10.0002C-0.000244141 14.2999 2.71351 17.9652 6.52151 19.3782V0.622192C2.71351 2.03508 -0.000244141 5.70055 -0.000244141 10.0002Z" fill="#6DA544"/>
<path d="M20 10.0002C20 5.70055 17.2863 2.03508 13.4783 0.622192V19.3782C17.2863 17.9652 20 14.2999 20 10.0002Z" fill="#6DA544"/>
</g>
<defs>
<clipPath id="clip0_37_792">
<rect width="20" height="20" fill="white"/>
</clipPath>
</defs>
</svg>
