<svg width="20" height="20" viewBox="0 0 20 20" fill="none" xmlns="http://www.w3.org/2000/svg">
<g clip-path="url(#clip0_37_826)">
<path d="M10 20C15.5228 20 20 15.5228 20 10C20 4.47715 15.5228 0 10 0C4.47715 0 0 4.47715 0 10C0 15.5228 4.47715 20 10 20Z" fill="#F0F0F0"/>
<path d="M2.92844 17.071C-0.976797 13.1657 -0.976797 6.83411 2.92844 2.92883C2.92816 2.92926 8.6952 9.99993 8.6952 9.99993L2.92844 17.071Z" fill="black"/>
<path d="M8.69585 10.0001L1.32647 5.02014C1.098 5.41729 0.896514 5.83182 0.723389 6.26088L4.45421 10.0001L0.723506 13.7396C0.896475 14.1683 1.09776 14.5826 1.32608 14.9795L8.69585 10.0001Z" fill="#FFDA44"/>
<path d="M19.9154 8.69556H8.69542L2.92886 2.92896C2.30745 3.55036 1.76757 4.25313 1.32632 5.01997L6.29659 9.99989L1.32593 14.9792C1.76718 15.7462 2.30729 16.4492 2.92886 17.0708L8.69542 11.3042H19.9154C19.971 10.8773 20 10.442 20 9.99989C20 9.55782 19.971 9.12251 19.9154 8.69556Z" fill="#6DA544"/>
<path d="M3.91138 17.9318C5.59767 19.2279 7.70849 19.9991 9.99974 19.9991C14.62 19.9991 18.5077 16.8654 19.6552 12.6078H9.2354L3.91138 17.9318Z" fill="#0052B4"/>
<path d="M19.6552 7.39056C18.5077 3.1329 14.62 -0.000732422 9.99974 -0.000732422C7.70849 -0.000732422 5.59767 0.770401 3.91138 2.06657L9.23536 7.39056H19.6552Z" fill="#D80027"/>
</g>
<defs>
<clipPath id="clip0_37_826">
<rect width="20" height="20" fill="white"/>
</clipPath>
</defs>
</svg>
