<svg width="64" height="63" viewBox="0 0 64 63" fill="none" xmlns="http://www.w3.org/2000/svg">
<path d="M21.6667 10C21.6667 15.5228 26.1437 20 31.6667 20C37.1897 20 41.6667 15.5228 41.6667 10C41.6667 4.47717 37.1897 0 31.6667 0C26.1437 0 21.6667 4.47717 21.6667 10Z" fill="#676E76"/>
<path d="M0 50C0 55.523 4.47717 60 10 60C15.5228 60 20 55.523 20 50C20 44.477 15.5228 40 10 40C4.47717 40 0 44.477 0 50Z" fill="#676E76"/>
<path d="M53.3334 60C47.8104 60 43.3334 55.523 43.3334 50C43.3334 44.477 47.8104 40 53.3334 40C58.8564 40 63.3334 44.477 63.3334 50C63.3334 55.523 58.8564 60 53.3334 60Z" fill="#676E76"/>
<path d="M15.6823 15.2079C16.7174 14.2942 16.8159 12.7144 15.9023 11.6792C14.9886 10.644 13.4088 10.5455 12.3736 11.4592C6.32253 16.7999 2.5 24.6219 2.5 33.3335C2.5 34.7142 3.6193 35.8335 5 35.8335C6.3807 35.8335 7.5 34.7142 7.5 33.3335C7.5 26.1159 10.6609 19.6398 15.6823 15.2079Z" fill="#676E76"/>
<path d="M50.9597 11.4592C49.9247 10.5455 48.3447 10.644 47.431 11.6792C46.5173 12.7144 46.616 14.2942 47.651 15.2079C52.6723 19.6398 55.8333 26.1159 55.8333 33.3335C55.8333 34.7142 56.9527 35.8335 58.3333 35.8335C59.714 35.8335 60.8333 34.7142 60.8333 33.3335C60.8333 24.6219 57.0107 16.7999 50.9597 11.4592Z" fill="#676E76"/>
<path d="M25.623 56.7388C24.286 56.3944 22.9231 57.1994 22.5789 58.5364C22.2348 59.8738 23.0397 61.2368 24.3769 61.5808C26.7097 62.1811 29.1527 62.4998 31.6667 62.4998C34.1807 62.4998 36.6237 62.1811 38.9563 61.5808C40.2937 61.2368 41.0987 59.8738 40.7543 58.5364C40.4103 57.1994 39.0473 56.3944 37.7103 56.7388C35.7813 57.2351 33.7567 57.4998 31.6667 57.4998C29.5767 57.4998 27.552 57.2351 25.623 56.7388Z" fill="#676E76"/>
</svg>
