<svg width="32" height="32" viewBox="0 0 32 32" fill="none" xmlns="http://www.w3.org/2000/svg">
<mask id="mask0_1151_44434" style="mask-type:luminance" maskUnits="userSpaceOnUse" x="0" y="0" width="32" height="32">
<path d="M16 32C7.16288 32 0 24.8371 0 16C0 7.16288 7.16288 0 16 0C24.8371 0 32 7.16288 32 16C32 24.8371 24.8371 32 16 32Z" fill="white"/>
</mask>
<g mask="url(#mask0_1151_44434)">
<path fill-rule="evenodd" clip-rule="evenodd" d="M16.0015 15.9989L-6.62891 15.8593L-6.60843 15.0273L16.0015 15.9989Z" fill="#FEFEFF"/>
<path fill-rule="evenodd" clip-rule="evenodd" d="M16.0005 15.9997L-6.61328 15.1664L-6.57872 14.4727L16.0005 15.9997Z" fill="#FDFEFF"/>
<path fill-rule="evenodd" clip-rule="evenodd" d="M16.0009 15.998L-6.58594 14.6104L-6.53474 13.918L16.0009 15.998Z" fill="#FCFDFF"/>
<path fill-rule="evenodd" clip-rule="evenodd" d="M16.003 16.0001L-6.54297 14.0584L-6.47513 13.3672L16.003 16.0001Z" fill="#FBFCFF"/>
<path fill-rule="evenodd" clip-rule="evenodd" d="M16.0026 15.9998L-6.48828 13.505L-6.4038 12.8164L16.0026 15.9998Z" fill="#FAFCFF"/>
<path fill-rule="evenodd" clip-rule="evenodd" d="M16.0012 16.0001L-6.42188 12.9549L-6.32076 12.2676L16.0012 16.0001Z" fill="#F9FBFF"/>
<path fill-rule="evenodd" clip-rule="evenodd" d="M16.0013 15.9997L-6.33984 12.4042L-6.22208 11.7207L16.0013 15.9997Z" fill="#F8FAFF"/>
<path fill-rule="evenodd" clip-rule="evenodd" d="M16.0003 15.9988L-6.24609 11.8567L-6.11169 11.1758L16.0003 15.9988Z" fill="#F7FAFF"/>
<path fill-rule="evenodd" clip-rule="evenodd" d="M16.0022 15.9992L-6.13672 11.3132L-5.9844 10.6348L16.0022 15.9992Z" fill="#F6F9FF"/>
<path fill-rule="evenodd" clip-rule="evenodd" d="M16.0017 15.9997L-6.01562 10.7709L-5.84666 10.0977L16.0017 15.9997Z" fill="#F5F8FF"/>
<path fill-rule="evenodd" clip-rule="evenodd" d="M16.0027 15.9996L-5.87891 10.2319L-5.69459 9.5625L16.0027 15.9996Z" fill="#F4F8FF"/>
<path fill-rule="evenodd" clip-rule="evenodd" d="M16 16.0002L-5.73438 9.69752L-5.53214 9.0332L16 16.0002Z" fill="#F3F7FF"/>
<path fill-rule="evenodd" clip-rule="evenodd" d="M16.0028 16.0009L-5.57031 9.16701L-5.35143 8.50781L16.0028 16.0009Z" fill="#F2F6FF"/>
<path fill-rule="evenodd" clip-rule="evenodd" d="M16.0006 15.9997L-5.39844 8.63846L-5.1642 7.98438L16.0006 15.9997Z" fill="#F1F6FF"/>
<path fill-rule="evenodd" clip-rule="evenodd" d="M15.9999 15.9993L-5.21094 8.11448L-4.96134 7.4668L15.9999 15.9993Z" fill="#F0F5FF"/>
<path fill-rule="evenodd" clip-rule="evenodd" d="M16.0034 15.9996L-5.00781 7.59636L-4.74285 6.95508L16.0034 15.9996Z" fill="#EFF4FF"/>
<path fill-rule="evenodd" clip-rule="evenodd" d="M16.0018 15.9993L-4.79688 7.08282L-4.51528 6.44922L16.0018 15.9993Z" fill="#EEF3FF"/>
<path fill-rule="evenodd" clip-rule="evenodd" d="M16.0031 15.9998L-4.57031 6.57642L-4.27335 5.94922L16.0031 15.9998Z" fill="#EDF3FF"/>
<path fill-rule="evenodd" clip-rule="evenodd" d="M16.0007 15.999L-4.33594 6.07392L-4.02362 5.45312L16.0007 15.999Z" fill="#ECF2FF"/>
<path fill-rule="evenodd" clip-rule="evenodd" d="M16.0011 15.9984L-4.08594 5.57668L-3.75826 4.96484L16.0011 15.9984Z" fill="#EBF1FF"/>
<path fill-rule="evenodd" clip-rule="evenodd" d="M16.0004 15.9986L-3.82422 5.08786L-3.48246 4.48242L16.0004 15.9986Z" fill="#EAF1FF"/>
<path fill-rule="evenodd" clip-rule="evenodd" d="M15.9999 15.9995L-3.55078 4.60497L-3.19366 4.00977L15.9999 15.9995Z" fill="#E9F0FF"/>
<path fill-rule="evenodd" clip-rule="evenodd" d="M15.9997 15.9993L-3.26562 4.12854L-2.89443 3.54102L15.9997 15.9993Z" fill="#E8EFFF"/>
<path fill-rule="evenodd" clip-rule="evenodd" d="M15.9996 15.9998L-2.96875 3.65931L-2.58219 3.08203L15.9996 15.9998Z" fill="#E7EFFF"/>
<path fill-rule="evenodd" clip-rule="evenodd" d="M15.9997 16.0005L-2.66016 3.1979L-2.2608 2.63086L15.9997 16.0005Z" fill="#E6EEFF"/>
<path fill-rule="evenodd" clip-rule="evenodd" d="M16 15.9993L-2.33984 2.74363L-1.9264 2.18555L16 15.9993Z" fill="#E5EDFF"/>
<path fill-rule="evenodd" clip-rule="evenodd" d="M16.0018 16.0002L-2.00781 2.29784L-1.58029 1.75L16.0018 16.0002Z" fill="#E4EDFF"/>
<path fill-rule="evenodd" clip-rule="evenodd" d="M15.9999 16.0007L-1.66797 1.86054L-1.22765 1.32422L15.9999 16.0007Z" fill="#E3ECFF"/>
<path fill-rule="evenodd" clip-rule="evenodd" d="M16.0021 15.9993L-1.3125 1.43038L-0.85938 0.904297L16.0021 15.9993Z" fill="#E2EBFF"/>
<path fill-rule="evenodd" clip-rule="evenodd" d="M16.0031 16.0007L-0.949219 1.01065L-0.483299 0.496094L16.0031 16.0007Z" fill="#E1EBFF"/>
<path fill-rule="evenodd" clip-rule="evenodd" d="M16.0017 15.9997L-0.578125 0.598743L-0.0994051 0.0957031L16.0017 15.9997Z" fill="#E0EAFF"/>
<path fill-rule="evenodd" clip-rule="evenodd" d="M16.0018 15.9995L-0.195312 0.196598L0.296208 -0.294922L16.0018 15.9995Z" fill="#DFE9FF"/>
<path fill-rule="evenodd" clip-rule="evenodd" d="M16.0021 15.9988L0.199219 -0.198341L0.700979 -0.675781L16.0021 15.9988Z" fill="#DEE9FF"/>
<path fill-rule="evenodd" clip-rule="evenodd" d="M16.0025 16.0008L0.601562 -0.579002L1.11612 -1.04492L16.0025 16.0008Z" fill="#DDE8FF"/>
<path fill-rule="evenodd" clip-rule="evenodd" d="M16.0018 15.9992L1.01172 -0.95313L1.5378 -1.40625L16.0018 15.9992Z" fill="#DCE7FF"/>
<path fill-rule="evenodd" clip-rule="evenodd" d="M16.0026 15.999L1.43359 -1.31554L1.96991 -1.75586L16.0026 15.999Z" fill="#DBE7FF"/>
<path fill-rule="evenodd" clip-rule="evenodd" d="M16.0034 16.0003L1.86328 -1.66751L2.41112 -2.09375L16.0034 16.0003Z" fill="#DAE6FF"/>
<path fill-rule="evenodd" clip-rule="evenodd" d="M16.0032 15.9992L2.30078 -2.01039L2.85886 -2.42383L16.0032 15.9992Z" fill="#D9E5FF"/>
<path fill-rule="evenodd" clip-rule="evenodd" d="M16.0018 15.999L2.74609 -2.34087L3.31313 -2.74023L16.0018 15.999Z" fill="#D8E5FF"/>
<path fill-rule="evenodd" clip-rule="evenodd" d="M16.0018 16.0002L3.19922 -2.65964L3.7765 -3.04492L16.0018 16.0002Z" fill="#D7E4FF"/>
<path fill-rule="evenodd" clip-rule="evenodd" d="M16.0006 15.9997L3.66016 -2.96864L4.24768 -3.33984L16.0006 15.9997Z" fill="#D6E3FF"/>
<path fill-rule="evenodd" clip-rule="evenodd" d="M15.9996 15.9994L4.12891 -3.26593L4.72411 -3.62305L15.9996 15.9994Z" fill="#D5E3FF"/>
<path fill-rule="evenodd" clip-rule="evenodd" d="M16 15.9979L4.60547 -3.55277L5.20963 -3.89453L16 15.9979Z" fill="#D4E2FF"/>
<path fill-rule="evenodd" clip-rule="evenodd" d="M16.0006 16L5.08984 -3.82466L5.70168 -4.15234L16.0006 16Z" fill="#D3E1FF"/>
<path fill-rule="evenodd" clip-rule="evenodd" d="M15.9999 15.9996L5.57812 -4.0874L6.19893 -4.39844L15.9999 15.9996Z" fill="#D2E0FF"/>
<path fill-rule="evenodd" clip-rule="evenodd" d="M16.0032 15.9995L6.07812 -4.33713L6.70532 -4.63281L16.0032 15.9995Z" fill="#D1E0FF"/>
<path fill-rule="evenodd" clip-rule="evenodd" d="M16.0015 15.9996L6.57812 -4.57387L7.21301 -4.85547L16.0015 15.9996Z" fill="#D0DFFF"/>
<path fill-rule="evenodd" clip-rule="evenodd" d="M16.0024 15.9986L7.08594 -4.80017L7.7285 -5.06641L16.0024 15.9986Z" fill="#CFDEFF"/>
<path fill-rule="evenodd" clip-rule="evenodd" d="M16.0009 15.9991L7.59766 -5.01212L8.24662 -5.26172L16.0009 15.9991Z" fill="#CEDEFF"/>
<path fill-rule="evenodd" clip-rule="evenodd" d="M16.002 15.9998L8.11719 -5.21107L8.77127 -5.44531L16.002 15.9998Z" fill="#CDDDFF"/>
<path fill-rule="evenodd" clip-rule="evenodd" d="M16.0019 16.0001L8.64062 -5.39891L9.29983 -5.61523L16.0019 16.0001Z" fill="#CCDCFF"/>
<path fill-rule="evenodd" clip-rule="evenodd" d="M16.0019 16.0006L9.16797 -5.57248L9.83229 -5.77344L16.0019 16.0006Z" fill="#CBDCFF"/>
<path fill-rule="evenodd" clip-rule="evenodd" d="M16.0019 15.9988L9.69922 -5.7356L10.3687 -5.91992L16.0019 15.9988Z" fill="#CADBFF"/>
<path fill-rule="evenodd" clip-rule="evenodd" d="M16.0021 15.9998L10.2344 -5.88182L10.9077 -6.05078L16.0021 15.9998Z" fill="#C9DAFF"/>
<path fill-rule="evenodd" clip-rule="evenodd" d="M16.0022 15.9984L10.7734 -6.01888L11.4506 -6.16992L16.0022 15.9984Z" fill="#C8DAFF"/>
<path fill-rule="evenodd" clip-rule="evenodd" d="M16.0025 15.9998L11.3164 -6.13904L11.9961 -6.27344L16.0025 15.9998Z" fill="#C7D9FF"/>
<path fill-rule="evenodd" clip-rule="evenodd" d="M16.0015 16.0002L11.8594 -6.24619L12.5429 -6.36523L16.0015 16.0002Z" fill="#C6D8FF"/>
<path fill-rule="evenodd" clip-rule="evenodd" d="M16.0018 16.0002L12.4062 -6.34096L13.0936 -6.44336L16.0018 16.0002Z" fill="#C5D8FF"/>
<path fill-rule="evenodd" clip-rule="evenodd" d="M16.0022 15.9997L12.957 -6.42333L13.6457 -6.50781L16.0022 15.9997Z" fill="#C4D7FF"/>
<path fill-rule="evenodd" clip-rule="evenodd" d="M16.0025 15.9982L13.5078 -6.49271L14.199 -6.56055L16.0025 15.9982Z" fill="#C3D6FF"/>
<path fill-rule="evenodd" clip-rule="evenodd" d="M16.0004 15.9995L14.0586 -6.54646L14.7511 -6.59766L16.0004 15.9995Z" fill="#C2D6FF"/>
<path fill-rule="evenodd" clip-rule="evenodd" d="M16.0008 15.9991L14.6133 -6.58781L15.307 -6.62109L16.0008 15.9991Z" fill="#C1D5FF"/>
<path fill-rule="evenodd" clip-rule="evenodd" d="M16.0012 15.9995L15.168 -6.61422L15.8617 -6.63086L16.0012 15.9995Z" fill="#C0D4FF"/>
<path fill-rule="evenodd" clip-rule="evenodd" d="M16.0004 15.9989L15.7227 -6.62891H16.4164L16.0004 15.9989Z" fill="#BFD4FF"/>
<path fill-rule="evenodd" clip-rule="evenodd" d="M16 15.9989L16.2778 -6.62891L16.9715 -6.61099L16 15.9989Z" fill="#BED3FF"/>
<path fill-rule="evenodd" clip-rule="evenodd" d="M16 16.0005L16.8333 -6.61328L17.5258 -6.57872L16 16.0005Z" fill="#BDD2FF"/>
<path fill-rule="evenodd" clip-rule="evenodd" d="M16 16.0009L17.3875 -6.58594L18.08 -6.53474L16 16.0009Z" fill="#BCD2FF"/>
<path fill-rule="evenodd" clip-rule="evenodd" d="M16 15.999L17.9418 -6.54688L18.633 -6.47904L16 15.999Z" fill="#BBD1FF"/>
<path fill-rule="evenodd" clip-rule="evenodd" d="M16 15.9987L18.4934 -6.49219L19.1834 -6.40771L16 15.9987Z" fill="#BAD0FF"/>
<path fill-rule="evenodd" clip-rule="evenodd" d="M16 15.9992L19.0451 -6.42383L19.7325 -6.32271L16 15.9992Z" fill="#B9D0FF"/>
<path fill-rule="evenodd" clip-rule="evenodd" d="M16 15.9993L19.5942 -6.3418L20.279 -6.22404L16 15.9993Z" fill="#B8CFFF"/>
<path fill-rule="evenodd" clip-rule="evenodd" d="M16 15.9984L20.1421 -6.24805L20.823 -6.11365L16 15.9984Z" fill="#B7CEFF"/>
<path fill-rule="evenodd" clip-rule="evenodd" d="M16 16.0002L20.6861 -6.13867L21.3645 -5.98635L16 16.0002Z" fill="#B6CDFF"/>
<path fill-rule="evenodd" clip-rule="evenodd" d="M16 15.9997L21.2288 -6.01758L21.9021 -5.84862L16 15.9997Z" fill="#B5CDFF"/>
<path fill-rule="evenodd" clip-rule="evenodd" d="M16 15.9988L21.7677 -5.88281L22.4358 -5.69849L16 15.9988Z" fill="#B4CCFF"/>
<path fill-rule="evenodd" clip-rule="evenodd" d="M16 16L22.3027 -5.73438L22.967 -5.53214L16 16Z" fill="#B3CBFF"/>
<path fill-rule="evenodd" clip-rule="evenodd" d="M16 15.9989L22.8339 -5.57422L23.4931 -5.35534L16 15.9989Z" fill="#B2CBFF"/>
<path fill-rule="evenodd" clip-rule="evenodd" d="M16 16.0006L23.3613 -5.39844L24.0154 -5.1642L16 16.0006Z" fill="#B1CAFF"/>
<path fill-rule="evenodd" clip-rule="evenodd" d="M16 15.9999L23.8848 -5.21094L24.5325 -4.96134L16 15.9999Z" fill="#B0C9FF"/>
<path fill-rule="evenodd" clip-rule="evenodd" d="M16 15.9995L24.4019 -5.01172L25.0445 -4.74676L16 15.9995Z" fill="#AFC9FF"/>
<path fill-rule="evenodd" clip-rule="evenodd" d="M16 15.9999L24.9152 -4.79883L25.5501 -4.51723L16 15.9999Z" fill="#AEC8FF"/>
<path fill-rule="evenodd" clip-rule="evenodd" d="M16 15.9992L25.4234 -4.57422L26.0506 -4.27726L16 15.9992Z" fill="#ADC7FF"/>
<path fill-rule="evenodd" clip-rule="evenodd" d="M16 16.0007L25.9251 -4.33594L26.5459 -4.02362L16 16.0007Z" fill="#ACC7FF"/>
<path fill-rule="evenodd" clip-rule="evenodd" d="M16 16.0011L26.4218 -4.08594L27.0336 -3.75826L16 16.0011Z" fill="#ABC6FF"/>
<path fill-rule="evenodd" clip-rule="evenodd" d="M16 15.9985L26.9107 -3.82617L27.5162 -3.48441L16 15.9985Z" fill="#AAC5FF"/>
<path fill-rule="evenodd" clip-rule="evenodd" d="M16 15.9999L27.3946 -3.55078L27.9898 -3.19366L16 15.9999Z" fill="#A9C5FF"/>
<path fill-rule="evenodd" clip-rule="evenodd" d="M16 15.9997L27.8707 -3.26562L28.457 -2.89443L16 15.9997Z" fill="#A8C4FF"/>
<path fill-rule="evenodd" clip-rule="evenodd" d="M16 15.9996L28.3405 -2.96875L28.9178 -2.58219L16 15.9996Z" fill="#A7C3FF"/>
<path fill-rule="evenodd" clip-rule="evenodd" d="M16 15.9997L28.8026 -2.66016L29.3696 -2.2608L16 15.9997Z" fill="#A6C3FF"/>
<path fill-rule="evenodd" clip-rule="evenodd" d="M16 16L29.2557 -2.33984L29.8138 -1.9264L16 16Z" fill="#A5C2FF"/>
<path fill-rule="evenodd" clip-rule="evenodd" d="M16 15.9998L29.7024 -2.00977L30.249 -1.58225L16 15.9998Z" fill="#A4C1FF"/>
<path fill-rule="evenodd" clip-rule="evenodd" d="M16 15.9999L30.1402 -1.66797L30.6765 -1.22765L16 15.9999Z" fill="#A3C1FF"/>
<path fill-rule="evenodd" clip-rule="evenodd" d="M16 15.9982L30.569 -1.31641L31.095 -0.863286L16 15.9982Z" fill="#A2C0FF"/>
<path fill-rule="evenodd" clip-rule="evenodd" d="M16 15.9992L30.9901 -0.953125L31.5046 -0.487205L16 15.9992Z" fill="#A1BFFF"/>
<path fill-rule="evenodd" clip-rule="evenodd" d="M16 15.9998L31.401 -0.580078L31.904 -0.101358L16 15.9998Z" fill="#A0BFFF"/>
<path fill-rule="evenodd" clip-rule="evenodd" d="M16 15.9999L31.8029 -0.197266L32.2944 0.294254L16 15.9999Z" fill="#9FBEFF"/>
<path fill-rule="evenodd" clip-rule="evenodd" d="M16 16.0001L32.1958 0.197266L32.6746 0.699026L16 16.0001Z" fill="#9EBDFF"/>
<path fill-rule="evenodd" clip-rule="evenodd" d="M16 16.0006L32.5798 0.599609L33.0458 1.11417L16 16.0006Z" fill="#9DBDFF"/>
<path fill-rule="evenodd" clip-rule="evenodd" d="M16 15.9998L32.9523 1.00977L33.4054 1.53585L16 15.9998Z" fill="#9CBCFF"/>
<path fill-rule="evenodd" clip-rule="evenodd" d="M16 15.9986L33.3146 1.42969L33.7549 1.96601L16 15.9986Z" fill="#9BBBFF"/>
<path fill-rule="evenodd" clip-rule="evenodd" d="M16 15.9995L33.6678 1.85938L34.0941 2.40721L16 15.9995Z" fill="#9ABAFF"/>
<path fill-rule="evenodd" clip-rule="evenodd" d="M16 15.9993L34.0096 2.29688L34.423 2.85496L16 15.9993Z" fill="#99BAFF"/>
<path fill-rule="evenodd" clip-rule="evenodd" d="M16 15.9998L34.3398 2.74414L34.7392 3.31118L16 15.9998Z" fill="#98B9FF"/>
<path fill-rule="evenodd" clip-rule="evenodd" d="M16 15.9998L34.6598 3.19727L35.0451 3.77455L16 15.9998Z" fill="#97B8FF"/>
<path fill-rule="evenodd" clip-rule="evenodd" d="M16 15.9987L34.9683 3.6582L35.3395 4.24572L16 15.9987Z" fill="#96B8FF"/>
<path fill-rule="evenodd" clip-rule="evenodd" d="M16 15.9996L35.2653 4.12891L35.6224 4.72411L16 15.9996Z" fill="#95B7FF"/>
<path fill-rule="evenodd" clip-rule="evenodd" d="M16 16L35.5507 4.60547L35.8925 5.20963L16 16Z" fill="#94B6FF"/>
<path fill-rule="evenodd" clip-rule="evenodd" d="M16 16.0006L35.8246 5.08984L36.151 5.70168L16 16.0006Z" fill="#93B6FF"/>
<path fill-rule="evenodd" clip-rule="evenodd" d="M16 15.9999L36.0858 5.57812L36.3981 6.19893L16 15.9999Z" fill="#92B5FF"/>
<path fill-rule="evenodd" clip-rule="evenodd" d="M16 15.9993L36.3366 6.07422L36.6323 6.70142L16 15.9993Z" fill="#91B4FF"/>
<path fill-rule="evenodd" clip-rule="evenodd" d="M16 15.9995L36.5734 6.57617L36.855 7.21105L16 15.9995Z" fill="#90B4FF"/>
<path fill-rule="evenodd" clip-rule="evenodd" d="M16 16.0005L36.7987 7.08398L37.0637 7.72654L16 16.0005Z" fill="#8FB3FF"/>
<path fill-rule="evenodd" clip-rule="evenodd" d="M16 15.9989L37.0112 7.5957L37.2608 8.24466L16 15.9989Z" fill="#8EB2FF"/>
<path fill-rule="evenodd" clip-rule="evenodd" d="M16 16L37.2109 8.11523L37.4451 8.76931L16 16Z" fill="#8DB2FF"/>
<path fill-rule="evenodd" clip-rule="evenodd" d="M16 15.998L37.3978 8.63672L37.6154 9.29592L16 15.998Z" fill="#8CB1FF"/>
<path fill-rule="evenodd" clip-rule="evenodd" d="M16 15.9999L37.5718 9.16602L37.7741 9.83034L16 15.9999Z" fill="#8BB0FF"/>
<path fill-rule="evenodd" clip-rule="evenodd" d="M16 16L37.7331 9.69727L37.9187 10.3667L16 16Z" fill="#8AB0FF"/>
<path fill-rule="evenodd" clip-rule="evenodd" d="M16 15.9981L37.8816 10.2305L38.0506 10.9037L16 15.9981Z" fill="#89AFFF"/>
<path fill-rule="evenodd" clip-rule="evenodd" d="M16 16.0003L38.0173 10.7715L38.1683 11.4486L16 16.0003Z" fill="#88AEFF"/>
<path fill-rule="evenodd" clip-rule="evenodd" d="M16 16.0005L38.1376 11.3145L38.2733 11.9941L16 16.0005Z" fill="#87AEFF"/>
<path fill-rule="evenodd" clip-rule="evenodd" d="M16 15.9995L38.2464 11.8574L38.3654 12.5409L16 15.9995Z" fill="#86ADFF"/>
<path fill-rule="evenodd" clip-rule="evenodd" d="M16 15.9998L38.3411 12.4043L38.4435 13.0917L16 15.9998Z" fill="#85ACFF"/>
<path fill-rule="evenodd" clip-rule="evenodd" d="M16 16.0002L38.423 12.9551L38.5075 13.6437L16 16.0002Z" fill="#84ACFF"/>
<path fill-rule="evenodd" clip-rule="evenodd" d="M16 16.0006L38.4909 13.5059L38.5587 14.1971L16 16.0006Z" fill="#83ABFF"/>
<path fill-rule="evenodd" clip-rule="evenodd" d="M16 16.0004L38.5459 14.0586L38.5971 14.7511L16 16.0004Z" fill="#82AAFF"/>
<path fill-rule="evenodd" clip-rule="evenodd" d="M16 15.9988L38.5869 14.6113L38.6202 15.3051L16 15.9988Z" fill="#81AAFF"/>
<path fill-rule="evenodd" clip-rule="evenodd" d="M16 15.9993L38.6138 15.166L38.6304 15.8598L16 15.9993Z" fill="#80A9FF"/>
<path fill-rule="evenodd" clip-rule="evenodd" d="M16 15.9985L38.6266 15.7207V16.4145L16 15.9985Z" fill="#7FA8FF"/>
<path fill-rule="evenodd" clip-rule="evenodd" d="M16 16L38.6266 16.2778L38.6099 16.9715L16 16Z" fill="#7EA7FF"/>
<path fill-rule="evenodd" clip-rule="evenodd" d="M16 16L38.6138 16.8333L38.5792 17.5258L16 16Z" fill="#7DA7FF"/>
<path fill-rule="evenodd" clip-rule="evenodd" d="M16 16L38.5869 17.3875L38.5357 18.08L16 16Z" fill="#7CA6FF"/>
<path fill-rule="evenodd" clip-rule="evenodd" d="M16 16L38.5459 17.9418L38.4781 18.633L16 16Z" fill="#7BA5FF"/>
<path fill-rule="evenodd" clip-rule="evenodd" d="M16 16L38.4909 18.4934L38.4064 19.1834L16 16Z" fill="#7AA5FF"/>
<path fill-rule="evenodd" clip-rule="evenodd" d="M16 16L38.423 19.0451L38.3206 19.7325L16 16Z" fill="#79A4FF"/>
<path fill-rule="evenodd" clip-rule="evenodd" d="M16 16L38.3411 19.5942L38.2234 20.279L16 16Z" fill="#78A3FF"/>
<path fill-rule="evenodd" clip-rule="evenodd" d="M16 16L38.2464 20.1421L38.1107 20.823L16 16Z" fill="#77A3FF"/>
<path fill-rule="evenodd" clip-rule="evenodd" d="M16 16L38.1376 20.6861L37.9866 21.3645L16 16Z" fill="#76A2FF"/>
<path fill-rule="evenodd" clip-rule="evenodd" d="M16 16L38.0173 21.2288L37.8483 21.9021L16 16Z" fill="#75A1FF"/>
<path fill-rule="evenodd" clip-rule="evenodd" d="M16 16L37.8816 21.7677L37.6973 22.4358L16 16Z" fill="#74A1FF"/>
<path fill-rule="evenodd" clip-rule="evenodd" d="M16 16L37.7331 22.3027L37.5322 22.967L16 16Z" fill="#73A0FF"/>
<path fill-rule="evenodd" clip-rule="evenodd" d="M16 16L37.5718 22.8339L37.3542 23.4931L16 16Z" fill="#729FFF"/>
<path fill-rule="evenodd" clip-rule="evenodd" d="M16 16L37.3978 23.3613L37.1648 24.0154L16 16Z" fill="#719FFF"/>
<path fill-rule="evenodd" clip-rule="evenodd" d="M16 16L37.2109 23.8848L36.9613 24.5325L16 16Z" fill="#709EFF"/>
<path fill-rule="evenodd" clip-rule="evenodd" d="M16 16L37.0112 24.4019L36.745 25.0445L16 16Z" fill="#6F9DFF"/>
<path fill-rule="evenodd" clip-rule="evenodd" d="M16 16L36.7987 24.9152L36.5171 25.5501L16 16Z" fill="#6E9DFF"/>
<path fill-rule="evenodd" clip-rule="evenodd" d="M16 16L36.5734 25.4234L36.2765 26.0506L16 16Z" fill="#6D9CFF"/>
<path fill-rule="evenodd" clip-rule="evenodd" d="M16 16L36.3366 25.9251L36.0243 26.5459L16 16Z" fill="#6C9BFF"/>
<path fill-rule="evenodd" clip-rule="evenodd" d="M16 16L36.0858 26.4218L35.7594 27.0336L16 16Z" fill="#6B9BFF"/>
<path fill-rule="evenodd" clip-rule="evenodd" d="M16 16L35.8246 26.9107L35.4829 27.5162L16 16Z" fill="#6A9AFF"/>
<path fill-rule="evenodd" clip-rule="evenodd" d="M16 16L35.5507 27.3946L35.1936 27.9898L16 16Z" fill="#6999FF"/>
<path fill-rule="evenodd" clip-rule="evenodd" d="M16 16L35.2653 27.8707L34.8941 28.457L16 16Z" fill="#6899FF"/>
<path fill-rule="evenodd" clip-rule="evenodd" d="M16 16L34.9683 28.3405L34.5818 28.9178L16 16Z" fill="#6798FF"/>
<path fill-rule="evenodd" clip-rule="evenodd" d="M16 16L34.6598 28.8026L34.2605 29.3696L16 16Z" fill="#6697FF"/>
<path fill-rule="evenodd" clip-rule="evenodd" d="M16 16L34.3398 29.2557L33.9264 29.8138L16 16Z" fill="#6597FF"/>
<path fill-rule="evenodd" clip-rule="evenodd" d="M16 16L34.0096 29.7024L33.5821 30.249L16 16Z" fill="#6496FF"/>
<path fill-rule="evenodd" clip-rule="evenodd" d="M16 16L33.6678 30.1402L33.2275 30.6765L16 16Z" fill="#6395FF"/>
<path fill-rule="evenodd" clip-rule="evenodd" d="M16 16L33.3146 30.569L32.8614 31.095L16 16Z" fill="#6294FF"/>
<path fill-rule="evenodd" clip-rule="evenodd" d="M16 16L32.9523 30.9901L32.4864 31.5046L16 16Z" fill="#6194FF"/>
<path fill-rule="evenodd" clip-rule="evenodd" d="M16 16L32.5798 31.401L32.1011 31.904L16 16Z" fill="#6093FF"/>
<path fill-rule="evenodd" clip-rule="evenodd" d="M16 16L32.1958 31.8029L31.7056 32.2944L16 16Z" fill="#5F92FF"/>
<path fill-rule="evenodd" clip-rule="evenodd" d="M16 16L31.8029 32.1958L31.3011 32.6746L16 16Z" fill="#5E92FF"/>
<path fill-rule="evenodd" clip-rule="evenodd" d="M16 16L31.401 32.5798L30.8864 33.0458L16 16Z" fill="#5D91FF"/>
<path fill-rule="evenodd" clip-rule="evenodd" d="M16 16L30.9901 32.9523L30.464 33.4054L16 16Z" fill="#5C90FF"/>
<path fill-rule="evenodd" clip-rule="evenodd" d="M16 16L30.569 33.3146L30.0326 33.7549L16 16Z" fill="#5B90FF"/>
<path fill-rule="evenodd" clip-rule="evenodd" d="M16 16L30.1402 33.6678L29.5923 34.0941L16 16Z" fill="#5A8FFF"/>
<path fill-rule="evenodd" clip-rule="evenodd" d="M16 16L29.7024 34.0096L29.1443 34.423L16 16Z" fill="#598EFF"/>
<path fill-rule="evenodd" clip-rule="evenodd" d="M16 16L29.2557 34.3398L28.6886 34.7392L16 16Z" fill="#588EFF"/>
<path fill-rule="evenodd" clip-rule="evenodd" d="M16 16L28.8026 34.6598L28.224 35.0451L16 16Z" fill="#578DFF"/>
<path fill-rule="evenodd" clip-rule="evenodd" d="M16 16L28.3405 34.9683L27.753 35.3395L16 16Z" fill="#568CFF"/>
<path fill-rule="evenodd" clip-rule="evenodd" d="M16 16L27.8707 35.2653L27.2755 35.6224L16 16Z" fill="#558CFF"/>
<path fill-rule="evenodd" clip-rule="evenodd" d="M16 16L27.3946 35.5507L26.7904 35.8925L16 16Z" fill="#548BFF"/>
<path fill-rule="evenodd" clip-rule="evenodd" d="M16 16L26.9107 35.8246L26.2989 36.151L16 16Z" fill="#538AFF"/>
<path fill-rule="evenodd" clip-rule="evenodd" d="M16 16L26.4218 36.0858L25.801 36.3981L16 16Z" fill="#528AFF"/>
<path fill-rule="evenodd" clip-rule="evenodd" d="M16 16L25.9251 36.3366L25.2979 36.6323L16 16Z" fill="#5189FF"/>
<path fill-rule="evenodd" clip-rule="evenodd" d="M16 16L25.4234 36.5734L24.7885 36.855L16 16Z" fill="#5088FF"/>
<path fill-rule="evenodd" clip-rule="evenodd" d="M16 16L24.9152 36.7987L24.2739 37.0637L16 16Z" fill="#4F88FF"/>
<path fill-rule="evenodd" clip-rule="evenodd" d="M16 16L24.4019 37.0112L23.7542 37.2608L16 16Z" fill="#4E87FF"/>
<path fill-rule="evenodd" clip-rule="evenodd" d="M16 16L23.8848 37.2109L23.2307 37.4451L16 16Z" fill="#4D86FF"/>
<path fill-rule="evenodd" clip-rule="evenodd" d="M16 16L23.3613 37.3978L22.7021 37.6154L16 16Z" fill="#4C86FF"/>
<path fill-rule="evenodd" clip-rule="evenodd" d="M16 16L22.8339 37.5718L22.1696 37.7741L16 16Z" fill="#4B85FF"/>
<path fill-rule="evenodd" clip-rule="evenodd" d="M16 16L22.3027 37.7331L21.6333 37.9187L16 16Z" fill="#4A84FF"/>
<path fill-rule="evenodd" clip-rule="evenodd" d="M16 16L21.7677 37.8816L21.0931 38.0506L16 16Z" fill="#4984FF"/>
<path fill-rule="evenodd" clip-rule="evenodd" d="M16 16L21.2288 38.0173L20.5517 38.1683L16 16Z" fill="#4883FF"/>
<path fill-rule="evenodd" clip-rule="evenodd" d="M16 16L20.6861 38.1376L20.0051 38.2733L16 16Z" fill="#4782FF"/>
<path fill-rule="evenodd" clip-rule="evenodd" d="M16 16L20.1421 38.2464L19.4586 38.3654L16 16Z" fill="#4681FF"/>
<path fill-rule="evenodd" clip-rule="evenodd" d="M16 16L19.5942 38.3411L18.9082 38.4435L16 16Z" fill="#4581FF"/>
<path fill-rule="evenodd" clip-rule="evenodd" d="M16 16L19.0451 38.423L18.3565 38.5075L16 16Z" fill="#4480FF"/>
<path fill-rule="evenodd" clip-rule="evenodd" d="M16 16L18.4934 38.4909L17.8035 38.5587L16 16Z" fill="#437FFF"/>
<path fill-rule="evenodd" clip-rule="evenodd" d="M16 16L17.9418 38.5459L17.2493 38.5971L16 16Z" fill="#427FFF"/>
<path fill-rule="evenodd" clip-rule="evenodd" d="M16 16L17.3875 38.5869L16.6938 38.6202L16 16Z" fill="#417EFF"/>
<path fill-rule="evenodd" clip-rule="evenodd" d="M16 16L16.8333 38.6138L16.1382 38.6304L16 16Z" fill="#407DFF"/>
<path fill-rule="evenodd" clip-rule="evenodd" d="M16.0032 16L16.281 38.6266H15.5859L16.0032 16Z" fill="#3F7DFF"/>
<path fill-rule="evenodd" clip-rule="evenodd" d="M16.0028 16L15.725 38.6266L15.0312 38.6099L16.0028 16Z" fill="#3E7CFF"/>
<path fill-rule="evenodd" clip-rule="evenodd" d="M15.9997 16L15.1664 38.6138L14.4727 38.5792L15.9997 16Z" fill="#3D7BFF"/>
<path fill-rule="evenodd" clip-rule="evenodd" d="M16.0019 16L14.6144 38.5869L13.9219 38.5357L16.0019 16Z" fill="#3C7BFF"/>
<path fill-rule="evenodd" clip-rule="evenodd" d="M16.0001 16L14.0584 38.5459L13.3672 38.4781L16.0001 16Z" fill="#3B7AFF"/>
<path fill-rule="evenodd" clip-rule="evenodd" d="M15.9998 16L13.505 38.4909L12.8164 38.4064L15.9998 16Z" fill="#3A79FF"/>
<path fill-rule="evenodd" clip-rule="evenodd" d="M16.002 16L12.9569 38.423L12.2695 38.3206L16.002 16Z" fill="#3979FF"/>
<path fill-rule="evenodd" clip-rule="evenodd" d="M16.0017 16L12.4062 38.3411L11.7227 38.2234L16.0017 16Z" fill="#3878FF"/>
<path fill-rule="evenodd" clip-rule="evenodd" d="M16.0027 16L11.8606 38.2464L11.1797 38.1107L16.0027 16Z" fill="#3777FF"/>
<path fill-rule="evenodd" clip-rule="evenodd" d="M16.0012 16L11.3151 38.1376L10.6367 37.9866L16.0012 16Z" fill="#3677FF"/>
<path fill-rule="evenodd" clip-rule="evenodd" d="M15.9997 16L10.7709 38.0173L10.0977 37.8483L15.9997 16Z" fill="#3576FF"/>
<path fill-rule="evenodd" clip-rule="evenodd" d="M15.9996 16L10.2319 37.8816L9.5625 37.6973L15.9996 16Z" fill="#3475FF"/>
<path fill-rule="evenodd" clip-rule="evenodd" d="M16.0022 16L9.69948 37.7331L9.03516 37.5322L16.0022 16Z" fill="#3375FF"/>
<path fill-rule="evenodd" clip-rule="evenodd" d="M16.0009 16L9.16701 37.5718L8.50781 37.3542L16.0009 16Z" fill="#3274FF"/>
<path fill-rule="evenodd" clip-rule="evenodd" d="M15.9997 16L8.63846 37.3978L7.98438 37.1648L15.9997 16Z" fill="#3173FF"/>
<path fill-rule="evenodd" clip-rule="evenodd" d="M16.0012 16L8.11643 37.2109L7.46875 36.9613L16.0012 16Z" fill="#3073FF"/>
<path fill-rule="evenodd" clip-rule="evenodd" d="M16.0015 16L7.59831 37.0112L6.95703 36.745L16.0015 16Z" fill="#2F72FF"/>
<path fill-rule="evenodd" clip-rule="evenodd" d="M16.0032 16L7.08673 36.7987L6.45312 36.5171L16.0032 16Z" fill="#2E71FF"/>
<path fill-rule="evenodd" clip-rule="evenodd" d="M15.9998 16L6.57642 36.5734L5.94922 36.2765L15.9998 16Z" fill="#2D71FF"/>
<path fill-rule="evenodd" clip-rule="evenodd" d="M16.003 16L6.07783 36.3366L5.45703 36.0243L16.003 16Z" fill="#2C70FF"/>
<path fill-rule="evenodd" clip-rule="evenodd" d="M16.0023 16L5.58059 36.0858L4.96875 35.7594L16.0023 16Z" fill="#2B6FFF"/>
<path fill-rule="evenodd" clip-rule="evenodd" d="M16.0005 16L5.08982 35.8246L4.48438 35.4829L16.0005 16Z" fill="#2A6EFF"/>
<path fill-rule="evenodd" clip-rule="evenodd" d="M16.0015 16L4.60692 35.5507L4.01172 35.1936L16.0015 16Z" fill="#296EFF"/>
<path fill-rule="evenodd" clip-rule="evenodd" d="M16.0012 16L4.13049 35.2653L3.54297 34.8941L16.0012 16Z" fill="#286DFF"/>
<path fill-rule="evenodd" clip-rule="evenodd" d="M15.9998 16L3.65931 34.9683L3.08203 34.5818L15.9998 16Z" fill="#276CFF"/>
<path fill-rule="evenodd" clip-rule="evenodd" d="M16.0024 16L3.19985 34.6598L2.63281 34.2605L16.0024 16Z" fill="#266CFF"/>
<path fill-rule="evenodd" clip-rule="evenodd" d="M16.0013 16L2.74558 34.3398L2.1875 33.9264L16.0013 16Z" fill="#256BFF"/>
<path fill-rule="evenodd" clip-rule="evenodd" d="M16.0002 16L2.29784 34.0096L1.75 33.5821L16.0002 16Z" fill="#246AFF"/>
<path fill-rule="evenodd" clip-rule="evenodd" d="M16.0007 16L1.86054 33.6678L1.32422 33.2275L16.0007 16Z" fill="#236AFF"/>
<path fill-rule="evenodd" clip-rule="evenodd" d="M16.0013 16L1.43233 33.3146L0.90625 32.8614L16.0013 16Z" fill="#2269FF"/>
<path fill-rule="evenodd" clip-rule="evenodd" d="M16.0007 16L1.01065 32.9523L0.496094 32.4864L16.0007 16Z" fill="#2168FF"/>
<path fill-rule="evenodd" clip-rule="evenodd" d="M16.0017 16L0.600696 32.5798L0.0976562 32.1011L16.0017 16Z" fill="#2068FF"/>
<path fill-rule="evenodd" clip-rule="evenodd" d="M16.0014 16L0.198551 32.1958L-0.292969 31.7056L16.0014 16Z" fill="#1F67FF"/>
<path fill-rule="evenodd" clip-rule="evenodd" d="M16.0027 16L-0.194435 31.8029L-0.671875 31.3011L16.0027 16Z" fill="#1E66FF"/>
<path fill-rule="evenodd" clip-rule="evenodd" d="M16.0028 16L-0.577049 31.401L-1.04297 30.8864L16.0028 16Z" fill="#1D66FF"/>
<path fill-rule="evenodd" clip-rule="evenodd" d="M16.0031 16L-0.949224 30.9901L-1.40234 30.464L16.0031 16Z" fill="#1C65FF"/>
<path fill-rule="evenodd" clip-rule="evenodd" d="M16.001 16L-1.31359 30.569L-1.75391 30.0326L16.001 16Z" fill="#1B64FF"/>
<path fill-rule="evenodd" clip-rule="evenodd" d="M16.0003 16L-1.66751 30.1402L-2.09375 29.5923L16.0003 16Z" fill="#1A64FF"/>
<path fill-rule="evenodd" clip-rule="evenodd" d="M16.0012 16L-2.00843 29.7024L-2.42188 29.1443L16.0012 16Z" fill="#1963FF"/>
<path fill-rule="evenodd" clip-rule="evenodd" d="M16.0009 16L-2.33892 29.2557L-2.73828 28.6886L16.0009 16Z" fill="#1862FF"/>
<path fill-rule="evenodd" clip-rule="evenodd" d="M16.0022 16L-2.65769 28.8026L-3.04297 28.224L16.0022 16Z" fill="#1762FF"/>
<path fill-rule="evenodd" clip-rule="evenodd" d="M15.9997 16L-2.96864 28.3405L-3.33984 27.753L15.9997 16Z" fill="#1661FF"/>
<path fill-rule="evenodd" clip-rule="evenodd" d="M16.0013 16L-3.26397 27.8707L-3.62109 27.2755L16.0013 16Z" fill="#1560FF"/>
<path fill-rule="evenodd" clip-rule="evenodd" d="M16.0019 16L-3.54886 27.3946L-3.89062 26.7904L16.0019 16Z" fill="#1460FF"/>
<path fill-rule="evenodd" clip-rule="evenodd" d="M16 16L-3.82466 26.9107L-4.15234 26.2989L16 16Z" fill="#135FFF"/>
<path fill-rule="evenodd" clip-rule="evenodd" d="M15.9996 16L-4.0874 26.4218L-4.39844 25.801L15.9996 16Z" fill="#125EFF"/>
<path fill-rule="evenodd" clip-rule="evenodd" d="M16.0034 16L-4.33323 25.9251L-4.62891 25.2979L16.0034 16Z" fill="#115EFF"/>
<path fill-rule="evenodd" clip-rule="evenodd" d="M15.9996 16L-4.57387 25.4234L-4.85547 24.7885L15.9996 16Z" fill="#105DFF"/>
<path fill-rule="evenodd" clip-rule="evenodd" d="M16.0025 16L-4.79626 24.9152L-5.0625 24.2739L16.0025 16Z" fill="#0F5CFF"/>
<path fill-rule="evenodd" clip-rule="evenodd" d="M16.003 16L-5.00821 24.4019L-5.25781 23.7542L16.003 16Z" fill="#0E5BFF"/>
<path fill-rule="evenodd" clip-rule="evenodd" d="M15.9998 16L-5.21107 23.8848L-5.44531 23.2307L15.9998 16Z" fill="#0D5BFF"/>
<path fill-rule="evenodd" clip-rule="evenodd" d="M16.0021 16L-5.39696 23.3613L-5.61328 22.7021L16.0021 16Z" fill="#0C5AFF"/>
<path fill-rule="evenodd" clip-rule="evenodd" d="M16.0006 16L-5.57248 22.8339L-5.77344 22.1696L16.0006 16Z" fill="#0B59FF"/>
<path fill-rule="evenodd" clip-rule="evenodd" d="M16.0008 16L-5.73365 22.3027L-5.91797 21.6333L16.0008 16Z" fill="#0A59FF"/>
<path fill-rule="evenodd" clip-rule="evenodd" d="M15.9998 16L-5.88182 21.7677L-6.05078 21.0931L15.9998 16Z" fill="#0958FF"/>
<path fill-rule="evenodd" clip-rule="evenodd" d="M16.0004 16L-6.01693 21.2288L-6.16797 20.5517L16.0004 16Z" fill="#0857FF"/>
<path fill-rule="evenodd" clip-rule="evenodd" d="M15.9998 16L-6.13904 20.6861L-6.27344 20.0051L15.9998 16Z" fill="#0757FF"/>
<path fill-rule="evenodd" clip-rule="evenodd" d="M16.0022 16L-6.24424 20.1421L-6.36328 19.4586L16.0022 16Z" fill="#0656FF"/>
<path fill-rule="evenodd" clip-rule="evenodd" d="M16.0021 16L-6.33901 19.5942L-6.44141 18.9082L16.0021 16Z" fill="#0555FF"/>
<path fill-rule="evenodd" clip-rule="evenodd" d="M15.9997 16L-6.42333 19.0451L-6.50781 18.3565L15.9997 16Z" fill="#0455FF"/>
<path fill-rule="evenodd" clip-rule="evenodd" d="M16.0001 16L-6.49075 18.4934L-6.55859 17.8035L16.0001 16Z" fill="#0354FF"/>
<path fill-rule="evenodd" clip-rule="evenodd" d="M16.0034 16L-6.54255 17.9418L-6.59375 17.2493L16.0034 16Z" fill="#0253FF"/>
<path fill-rule="evenodd" clip-rule="evenodd" d="M16.003 16L-6.58391 17.3875L-6.61719 16.6938L16.003 16Z" fill="#0153FF"/>
<path fill-rule="evenodd" clip-rule="evenodd" d="M16.0015 16L-6.61227 16.8333L-6.62891 16.1382L16.0015 16Z" fill="#0052FF"/>
<path fill-rule="evenodd" clip-rule="evenodd" d="M16.0028 15.9985L-6.625 16.2762V15.7207L16.0028 15.9985Z" fill="white"/>
</g>
</svg>
