<svg width="32" height="32" viewBox="0 0 32 32" fill="none" xmlns="http://www.w3.org/2000/svg">
<g clip-path="url(#clip0_1184_41277)">
<path d="M16 32C24.8366 32 32 24.8366 32 16C32 7.16344 24.8366 0 16 0C7.16344 0 0 7.16344 0 16C0 24.8366 7.16344 32 16 32Z" fill="#627EEA"/>
<path d="M16.4961 4V12.87L23.9931 16.22L16.4961 4Z" fill="white" fill-opacity="0.602"/>
<path d="M16.498 4L9 16.22L16.498 12.87V4Z" fill="white"/>
<path d="M16.4961 21.9672V27.9942L23.9981 17.6152L16.4961 21.9672Z" fill="white" fill-opacity="0.602"/>
<path d="M16.498 27.9942V21.9662L9 17.6152L16.498 27.9942Z" fill="white"/>
<path d="M16.4961 20.5721L23.9931 16.2191L16.4961 12.8711V20.5721Z" fill="white" fill-opacity="0.2"/>
<path d="M9 16.2191L16.498 20.5721V12.8711L9 16.2191Z" fill="white" fill-opacity="0.602"/>
</g>
<defs>
<clipPath id="clip0_1184_41277">
<rect width="32" height="32" fill="white"/>
</clipPath>
</defs>
</svg>
