<svg width="32" height="32" viewBox="0 0 32 32" fill="none" xmlns="http://www.w3.org/2000/svg">
<circle cx="16" cy="16" r="16" fill="black"/>
<g clip-path="url(#clip0_1184_41298)">
<path d="M8.69526 19.9748C8.82583 19.8439 9.00536 19.7676 9.19577 19.7676H26.4635C26.779 19.7676 26.9368 20.1494 26.7137 20.373L23.3026 23.7926C23.1721 23.9235 22.9925 23.9999 22.8021 23.9999H5.53441C5.21887 23.9999 5.0611 23.6181 5.28415 23.3945L8.69526 19.9748Z" fill="url(#paint0_linear_1184_41298)"/>
<path d="M8.69526 7.20725C8.83127 7.07636 9.0108 7 9.19577 7H26.4635C26.779 7 26.9368 7.38178 26.7137 7.60539L23.3026 11.025C23.1721 11.1559 22.9925 11.2323 22.8021 11.2323H5.53441C5.21887 11.2323 5.0611 10.8505 5.28415 10.6269L8.69526 7.20725Z" fill="url(#paint1_linear_1184_41298)"/>
<path d="M23.3026 13.551C23.1721 13.4201 22.9925 13.3438 22.8021 13.3438H5.53441C5.21887 13.3438 5.0611 13.7255 5.28415 13.9491L8.69526 17.3688C8.82583 17.4997 9.00536 17.576 9.19577 17.576H26.4635C26.779 17.576 26.9368 17.1942 26.7137 16.9706L23.3026 13.551Z" fill="url(#paint2_linear_1184_41298)"/>
</g>
<defs>
<linearGradient id="paint0_linear_1184_41298" x1="24.8139" y1="4.95707" x2="12.8163" y2="27.88" gradientUnits="userSpaceOnUse">
<stop stop-color="#00FFA3"/>
<stop offset="1" stop-color="#DC1FFF"/>
</linearGradient>
<linearGradient id="paint1_linear_1184_41298" x1="19.5884" y1="2.22227" x2="7.59084" y2="25.1452" gradientUnits="userSpaceOnUse">
<stop stop-color="#00FFA3"/>
<stop offset="1" stop-color="#DC1FFF"/>
</linearGradient>
<linearGradient id="paint2_linear_1184_41298" x1="22.1845" y1="3.58181" x2="10.1869" y2="26.5047" gradientUnits="userSpaceOnUse">
<stop stop-color="#00FFA3"/>
<stop offset="1" stop-color="#DC1FFF"/>
</linearGradient>
<clipPath id="clip0_1184_41298">
<rect width="22" height="17" fill="white" transform="translate(5 7)"/>
</clipPath>
</defs>
</svg>
